<?xml version="1.0" encoding="UTF-8" standalone="no"?>
<!DOCTYPE svg PUBLIC "-//W3C//DTD SVG 1.1//EN"
 "http://www.w3.org/Graphics/SVG/1.1/DTD/svg11.dtd">
<!-- Generated by graphviz version 2.40.1 (20161225.0304)
 -->
<!-- Title: orphans Pages: 1 -->
<svg width="252pt" height="371pt"
 viewBox="0.00 0.00 252.00 371.00" xmlns="http://www.w3.org/2000/svg" xmlns:xlink="http://www.w3.org/1999/xlink">
<g id="graph0" class="graph" transform="scale(1 1) rotate(0) translate(4 367)">
<title>orphans</title>
<polygon fill="#ffffff" stroke="transparent" points="-4,4 -4,-367 248,-367 248,4 -4,4"/>
<!-- _prisma_migrations -->
<g id="node1" class="node">
<title>_prisma_migrations</title>
<g id="a_node1"><a xlink:href="../../tables/_prisma_migrations.html" xlink:title="_prisma_migrations" target="_top">
<polygon fill="#ffffff" stroke="transparent" points="8,-4 8,-226 236,-226 236,-4 8,-4"/>
<polygon fill="#f5f5f5" stroke="transparent" points="10,-201 10,-224 234,-224 234,-201 10,-201"/>
<polygon fill="none" stroke="#000000" points="10,-201 10,-224 234,-224 234,-201 10,-201"/>
<text text-anchor="start" x="15" y="-209.6" font-family="Helvetica,sans-Serif" font-weight="bold" font-size="11.00" fill="#000000">_prisma_migrations</text>
<text text-anchor="start" x="199.0437" y="-209.1" font-family="Helvetica,sans-Serif" font-size="11.00" fill="#000000">[table]</text>
<polygon fill="none" stroke="#000000" points="10,-179 10,-201 151,-201 151,-179 10,-179"/>
<image xlink:href="../../images/primaryKeys.png" width="11px" height="12px" preserveAspectRatio="xMinYMin meet" x="15" y="-196"/>
<text text-anchor="start" x="30" y="-186.1" font-family="Helvetica,sans-Serif" font-size="11.00" fill="#000000">id</text>
<polygon fill="none" stroke="#000000" points="151,-179 151,-201 234,-201 234,-179 151,-179"/>
<text text-anchor="start" x="154" y="-186.7" font-family="Helvetica,sans-Serif" font-size="11.00" fill="#000000">varchar[36]</text>
<polygon fill="none" stroke="#000000" points="10,-157 10,-179 151,-179 151,-157 10,-157"/>
<text text-anchor="start" x="30" y="-164.1" font-family="Helvetica,sans-Serif" font-size="11.00" fill="#000000">checksum</text>
<polygon fill="none" stroke="#000000" points="151,-157 151,-179 234,-179 234,-157 151,-157"/>
<text text-anchor="start" x="154" y="-164.7" font-family="Helvetica,sans-Serif" font-size="11.00" fill="#000000">varchar[64]</text>
<polygon fill="none" stroke="#000000" points="10,-135 10,-157 151,-157 151,-135 10,-135"/>
<text text-anchor="start" x="30" y="-142.1" font-family="Helvetica,sans-Serif" font-size="11.00" fill="#000000">finished_at</text>
<polygon fill="none" stroke="#000000" points="151,-135 151,-157 234,-157 234,-135 151,-135"/>
<text text-anchor="start" x="154" y="-142.7" font-family="Helvetica,sans-Serif" font-size="11.00" fill="#000000">datetime[23]</text>
<polygon fill="none" stroke="#000000" points="10,-113 10,-135 151,-135 151,-113 10,-113"/>
<text text-anchor="start" x="30" y="-120.1" font-family="Helvetica,sans-Serif" font-size="11.00" fill="#000000">migration_name</text>
<polygon fill="none" stroke="#000000" points="151,-113 151,-135 234,-135 234,-113 151,-113"/>
<text text-anchor="start" x="154" y="-120.7" font-family="Helvetica,sans-Serif" font-size="11.00" fill="#000000">varchar[255]</text>
<polygon fill="none" stroke="#000000" points="10,-91 10,-113 151,-113 151,-91 10,-91"/>
<text text-anchor="start" x="30" y="-98.1" font-family="Helvetica,sans-Serif" font-size="11.00" fill="#000000">logs</text>
<polygon fill="none" stroke="#000000" points="151,-91 151,-113 234,-113 234,-91 151,-91"/>
<text text-anchor="start" x="154" y="-98.7" font-family="Helvetica,sans-Serif" font-size="11.00" fill="#000000">text[65535]</text>
<polygon fill="none" stroke="#000000" points="10,-69 10,-91 151,-91 151,-69 10,-69"/>
<text text-anchor="start" x="30" y="-76.1" font-family="Helvetica,sans-Serif" font-size="11.00" fill="#000000">rolled_back_at</text>
<polygon fill="none" stroke="#000000" points="151,-69 151,-91 234,-91 234,-69 151,-69"/>
<text text-anchor="start" x="154" y="-76.7" font-family="Helvetica,sans-Serif" font-size="11.00" fill="#000000">datetime[23]</text>
<polygon fill="none" stroke="#000000" points="10,-47 10,-69 151,-69 151,-47 10,-47"/>
<text text-anchor="start" x="30" y="-54.1" font-family="Helvetica,sans-Serif" font-size="11.00" fill="#000000">started_at</text>
<polygon fill="none" stroke="#000000" points="151,-47 151,-69 234,-69 234,-47 151,-47"/>
<text text-anchor="start" x="154" y="-54.7" font-family="Helvetica,sans-Serif" font-size="11.00" fill="#000000">datetime[23]</text>
<polygon fill="none" stroke="#000000" points="10,-25 10,-47 151,-47 151,-25 10,-25"/>
<text text-anchor="start" x="30" y="-32.1" font-family="Helvetica,sans-Serif" font-size="11.00" fill="#000000">applied_steps_count</text>
<polygon fill="none" stroke="#000000" points="151,-25 151,-47 234,-47 234,-25 151,-25"/>
<text text-anchor="start" x="153.6783" y="-32.7" font-family="Helvetica,sans-Serif" font-size="11.00" fill="#000000">int unsigned[10]</text>
<polygon fill="#ffffff" stroke="transparent" points="10,-6 10,-25 72,-25 72,-6 10,-6"/>
<polygon fill="none" stroke="#000000" points="10,-6 10,-25 72,-25 72,-6 10,-6"/>
<text text-anchor="start" x="13" y="-12.1" font-family="Helvetica,sans-Serif" font-size="11.00" fill="#000000">&lt; 0</text>
<polygon fill="#ffffff" stroke="transparent" points="72,-6 72,-25 151,-25 151,-6 72,-6"/>
<polygon fill="none" stroke="#000000" points="72,-6 72,-25 151,-25 151,-6 72,-6"/>
<text text-anchor="start" x="115.6105" y="-12.1" font-family="Helvetica,sans-Serif" font-size="11.00" fill="#000000">4 rows</text>
<polygon fill="#ffffff" stroke="transparent" points="151,-6 151,-25 234,-25 234,-6 151,-6"/>
<polygon fill="none" stroke="#000000" points="151,-6 151,-25 234,-25 234,-6 151,-6"/>
<text text-anchor="start" x="215.4053" y="-12.1" font-family="Helvetica,sans-Serif" font-size="11.00" fill="#000000">0 &gt;</text>
<polygon fill="none" stroke="#000000" stroke-width="2" points="9,-5 9,-225 235,-225 235,-5 9,-5"/>
</a>
</g>
</g>
<!-- VerificationToken -->
<g id="node2" class="node">
<title>VerificationToken</title>
<g id="a_node2"><a xlink:href="../../tables/VerificationToken.html" xlink:title="VerificationToken" target="_top">
<polygon fill="#ffffff" stroke="transparent" points="23,-247 23,-359 221,-359 221,-247 23,-247"/>
<polygon fill="#f5f5f5" stroke="transparent" points="25,-334 25,-357 219,-357 219,-334 25,-334"/>
<polygon fill="none" stroke="#000000" points="25,-334 25,-357 219,-357 219,-334 25,-334"/>
<text text-anchor="start" x="30" y="-342.6" font-family="Helvetica,sans-Serif" font-weight="bold" font-size="11.00" fill="#000000">VerificationToken</text>
<text text-anchor="start" x="184.0437" y="-342.1" font-family="Helvetica,sans-Serif" font-size="11.00" fill="#000000">[table]</text>
<polygon fill="#ffffff" stroke="transparent" points="25,-312 25,-334 152,-334 152,-312 25,-312"/>
<polygon fill="none" stroke="#000000" points="25,-312 25,-334 152,-334 152,-312 25,-312"/>
<text text-anchor="start" x="45" y="-319.1" font-family="Helvetica,sans-Serif" font-size="11.00" fill="#000000">identifier</text>
<polygon fill="none" stroke="#000000" points="152,-312 152,-334 219,-334 219,-312 152,-312"/>
<text text-anchor="start" x="154.9365" y="-319.7" font-family="Helvetica,sans-Serif" font-size="11.00" fill="#000000">varchar[191]</text>
<polygon fill="#ffffff" stroke="transparent" points="25,-290 25,-312 152,-312 152,-290 25,-290"/>
<polygon fill="none" stroke="#000000" points="25,-290 25,-312 152,-312 152,-290 25,-290"/>
<text text-anchor="start" x="45" y="-297.1" font-family="Helvetica,sans-Serif" font-size="11.00" fill="#000000">token</text>
<polygon fill="none" stroke="#000000" points="152,-290 152,-312 219,-312 219,-290 152,-290"/>
<text text-anchor="start" x="154.9365" y="-297.7" font-family="Helvetica,sans-Serif" font-size="11.00" fill="#000000">varchar[191]</text>
<polygon fill="none" stroke="#000000" points="25,-268 25,-290 152,-290 152,-268 25,-268"/>
<text text-anchor="start" x="45" y="-275.1" font-family="Helvetica,sans-Serif" font-size="11.00" fill="#000000">expires</text>
<polygon fill="none" stroke="#000000" points="152,-268 152,-290 219,-290 219,-268 152,-268"/>
<text text-anchor="start" x="155" y="-275.7" font-family="Helvetica,sans-Serif" font-size="11.00" fill="#000000">datetime[23]</text>
<polygon fill="#ffffff" stroke="transparent" points="25,-249 25,-268 80,-268 80,-249 25,-249"/>
<polygon fill="none" stroke="#000000" points="25,-249 25,-268 80,-268 80,-249 25,-249"/>
<text text-anchor="start" x="28" y="-255.1" font-family="Helvetica,sans-Serif" font-size="11.00" fill="#000000">&lt; 0</text>
<polygon fill="#ffffff" stroke="transparent" points="80,-249 80,-268 152,-268 152,-249 80,-249"/>
<polygon fill="none" stroke="#000000" points="80,-249 80,-268 152,-268 152,-249 80,-249"/>
<text text-anchor="start" x="116.6105" y="-255.1" font-family="Helvetica,sans-Serif" font-size="11.00" fill="#000000">0 rows</text>
<polygon fill="#ffffff" stroke="transparent" points="152,-249 152,-268 219,-268 219,-249 152,-249"/>
<polygon fill="none" stroke="#000000" points="152,-249 152,-268 219,-268 219,-249 152,-249"/>
<text text-anchor="start" x="200.4053" y="-255.1" font-family="Helvetica,sans-Serif" font-size="11.00" fill="#000000">0 &gt;</text>
<polygon fill="none" stroke="#000000" stroke-width="2" points="24,-248 24,-358 220,-358 220,-248 24,-248"/>
</a>
</g>
</g>
</g>
</svg>
