<?xml version="1.0" encoding="UTF-8" standalone="no"?>
<!DOCTYPE svg PUBLIC "-//W3C//DTD SVG 1.1//EN"
 "http://www.w3.org/Graphics/SVG/1.1/DTD/svg11.dtd">
<!-- Generated by graphviz version 2.40.1 (20161225.0304)
 -->
<!-- Title: oneDegreeRelationshipsDiagram Pages: 1 -->
<svg width="329pt" height="237pt"
 viewBox="0.00 0.00 329.00 237.20" xmlns="http://www.w3.org/2000/svg" xmlns:xlink="http://www.w3.org/1999/xlink">
<g id="graph0" class="graph" transform="scale(1 1) rotate(0) translate(4 233.2)">
<title>oneDegreeRelationshipsDiagram</title>
<polygon fill="#ffffff" stroke="transparent" points="-4,4 -4,-233.2 325,-233.2 325,4 -4,4"/>
<text text-anchor="middle" x="72.4936" y="-7.3" font-family="Helvetica,sans-Serif" font-size="11.00" fill="#000000">Generated by SchemaSpy</text>
<!-- _KeywordToVideo -->
<g id="node1" class="node">
<title>_KeywordToVideo</title>
<g id="a_node1"><a xlink:href="../../tables/_KeywordToVideo.html" xlink:title="_KeywordToVideo" target="_top">
<polygon fill="#ffffff" stroke="transparent" points="148,-95.7 148,-185.7 313,-185.7 313,-95.7 148,-95.7"/>
<polygon fill="#f5f5f5" stroke="transparent" points="150.5,-160.7 150.5,-183.7 311.5,-183.7 311.5,-160.7 150.5,-160.7"/>
<polygon fill="none" stroke="#000000" points="150.5,-160.7 150.5,-183.7 311.5,-183.7 311.5,-160.7 150.5,-160.7"/>
<text text-anchor="start" x="155.5" y="-169.3" font-family="Helvetica,sans-Serif" font-weight="bold" font-size="11.00" fill="#000000">_KeywordToVideo</text>
<text text-anchor="start" x="276.5437" y="-168.8" font-family="Helvetica,sans-Serif" font-size="11.00" fill="#000000">[table]</text>
<polygon fill="#ffffff" stroke="transparent" points="150.5,-138.7 150.5,-160.7 276.5,-160.7 276.5,-138.7 150.5,-138.7"/>
<polygon fill="none" stroke="#000000" points="150.5,-138.7 150.5,-160.7 276.5,-160.7 276.5,-138.7 150.5,-138.7"/>
<image xlink:href="../../images/foreignKeys.png" width="11px" height="12px" preserveAspectRatio="xMinYMin meet" x="155.5" y="-155.7"/>
<text text-anchor="start" x="170.5" y="-145.8" font-family="Helvetica,sans-Serif" font-size="11.00" fill="#000000">A</text>
<polygon fill="none" stroke="#000000" points="276.5,-138.7 276.5,-160.7 311.5,-160.7 311.5,-138.7 276.5,-138.7"/>
<text text-anchor="start" x="279.0219" y="-146.4" font-family="Helvetica,sans-Serif" font-size="11.00" fill="#000000">int[10]</text>
<polygon fill="#ffffff" stroke="transparent" points="150.5,-116.7 150.5,-138.7 276.5,-138.7 276.5,-116.7 150.5,-116.7"/>
<polygon fill="none" stroke="#000000" points="150.5,-116.7 150.5,-138.7 276.5,-138.7 276.5,-116.7 150.5,-116.7"/>
<image xlink:href="../../images/foreignKeys.png" width="11px" height="12px" preserveAspectRatio="xMinYMin meet" x="155.5" y="-133.7"/>
<text text-anchor="start" x="170.5" y="-123.8" font-family="Helvetica,sans-Serif" font-size="11.00" fill="#000000">B</text>
<polygon fill="none" stroke="#000000" points="276.5,-116.7 276.5,-138.7 311.5,-138.7 311.5,-116.7 276.5,-116.7"/>
<text text-anchor="start" x="279.0219" y="-124.4" font-family="Helvetica,sans-Serif" font-size="11.00" fill="#000000">int[10]</text>
<polygon fill="#ffffff" stroke="transparent" points="150.5,-97.7 150.5,-116.7 204.5,-116.7 204.5,-97.7 150.5,-97.7"/>
<polygon fill="none" stroke="#000000" points="150.5,-97.7 150.5,-116.7 204.5,-116.7 204.5,-97.7 150.5,-97.7"/>
<text text-anchor="start" x="153.5" y="-103.8" font-family="Helvetica,sans-Serif" font-size="11.00" fill="#000000">&lt; 2</text>
<polygon fill="#ffffff" stroke="transparent" points="204.5,-97.7 204.5,-116.7 276.5,-116.7 276.5,-97.7 204.5,-97.7"/>
<polygon fill="none" stroke="#000000" points="204.5,-97.7 204.5,-116.7 276.5,-116.7 276.5,-97.7 204.5,-97.7"/>
<text text-anchor="start" x="241.1105" y="-103.8" font-family="Helvetica,sans-Serif" font-size="11.00" fill="#000000">0 rows</text>
<polygon fill="#ffffff" stroke="transparent" points="276.5,-97.7 276.5,-116.7 311.5,-116.7 311.5,-97.7 276.5,-97.7"/>
<polygon fill="none" stroke="#000000" points="276.5,-97.7 276.5,-116.7 311.5,-116.7 311.5,-97.7 276.5,-97.7"/>
<text text-anchor="start" x="292.9053" y="-103.8" font-family="Helvetica,sans-Serif" font-size="11.00" fill="#000000">0 &gt;</text>
<polygon fill="none" stroke="#000000" stroke-width="2" points="149,-96.7 149,-184.7 312,-184.7 312,-96.7 149,-96.7"/>
</a>
</g>
</g>
<!-- Keyword -->
<g id="node2" class="node">
<title>Keyword</title>
<g id="a_node2"><a xlink:href="../../tables/Keyword.html" xlink:title="Keyword" target="_top">
<polygon fill="#ffffff" stroke="transparent" points="8,-142.2 8,-225.2 99,-225.2 99,-142.2 8,-142.2"/>
<polygon fill="#f5f5f5" stroke="transparent" points="8.5,-201.7 8.5,-224.7 99.5,-224.7 99.5,-201.7 8.5,-201.7"/>
<polygon fill="none" stroke="#000000" points="8.5,-201.7 8.5,-224.7 99.5,-224.7 99.5,-201.7 8.5,-201.7"/>
<text text-anchor="start" x="13.5" y="-210.3" font-family="Helvetica,sans-Serif" font-weight="bold" font-size="11.00" fill="#000000">Keyword</text>
<text text-anchor="start" x="65.0219" y="-209.8" font-family="Helvetica,sans-Serif" font-size="11.00" fill="#000000">[table]</text>
<polygon fill="none" stroke="#000000" points="8.5,-179.7 8.5,-201.7 99.5,-201.7 99.5,-179.7 8.5,-179.7"/>
<image xlink:href="../../images/primaryKeys.png" width="11px" height="12px" preserveAspectRatio="xMinYMin meet" x="13.5" y="-196.7"/>
<text text-anchor="start" x="32.5" y="-186.8" font-family="Helvetica,sans-Serif" font-size="11.00" fill="#000000">id</text>
<polygon fill="none" stroke="#000000" points="8.5,-160.7 8.5,-179.7 99.5,-179.7 99.5,-160.7 8.5,-160.7"/>
<text text-anchor="start" x="11.5" y="-166.8" font-family="Helvetica,sans-Serif" font-size="11.00" fill="#000000">...</text>
<polygon fill="#ffffff" stroke="transparent" points="8.5,-141.7 8.5,-160.7 30.5,-160.7 30.5,-141.7 8.5,-141.7"/>
<polygon fill="none" stroke="#000000" points="8.5,-141.7 8.5,-160.7 30.5,-160.7 30.5,-141.7 8.5,-141.7"/>
<text text-anchor="start" x="11.5" y="-147.8" font-family="Helvetica,sans-Serif" font-size="11.00" fill="#000000"> &#160;</text>
<polygon fill="#ffffff" stroke="transparent" points="30.5,-141.7 30.5,-160.7 73.5,-160.7 73.5,-141.7 30.5,-141.7"/>
<polygon fill="none" stroke="#000000" points="30.5,-141.7 30.5,-160.7 73.5,-160.7 73.5,-141.7 30.5,-141.7"/>
<text text-anchor="start" x="38.1105" y="-147.8" font-family="Helvetica,sans-Serif" font-size="11.00" fill="#000000">0 rows</text>
<polygon fill="#ffffff" stroke="transparent" points="73.5,-141.7 73.5,-160.7 99.5,-160.7 99.5,-141.7 73.5,-141.7"/>
<polygon fill="none" stroke="#000000" points="73.5,-141.7 73.5,-160.7 99.5,-160.7 99.5,-141.7 73.5,-141.7"/>
<text text-anchor="start" x="80.9053" y="-147.8" font-family="Helvetica,sans-Serif" font-size="11.00" fill="#000000">1 &gt;</text>
</a>
</g>
</g>
<!-- _KeywordToVideo&#45;&gt;Keyword -->
<g id="edge1" class="edge">
<title>_KeywordToVideo:w&#45;&gt;Keyword:e</title>
<path fill="none" stroke="#000000" d="M136.6568,-154.0877C122.8325,-164.6646 122.6756,-190.7 99.5,-190.7"/>
<polygon fill="#000000" stroke="#000000" points="142.8739,-152.1172 151.5877,-153.1317 146.6869,-150.9086 150.5,-149.7 150.5,-149.7 150.5,-149.7 146.6869,-150.9086 149.4123,-146.2683 142.8739,-152.1172 142.8739,-152.1172"/>
<ellipse fill="none" stroke="#000000" cx="139.8235" cy="-153.0841" rx="3.2" ry="3.2"/>
</g>
<!-- Video -->
<g id="node3" class="node">
<title>Video</title>
<g id="a_node3"><a xlink:href="../../tables/Video.html" xlink:title="Video" target="_top">
<polygon fill="#ffffff" stroke="transparent" points="9.5,-38.2 9.5,-121.2 97.5,-121.2 97.5,-38.2 9.5,-38.2"/>
<polygon fill="#f5f5f5" stroke="transparent" points="9.5,-97.7 9.5,-120.7 97.5,-120.7 97.5,-97.7 9.5,-97.7"/>
<polygon fill="none" stroke="#000000" points="9.5,-97.7 9.5,-120.7 97.5,-120.7 97.5,-97.7 9.5,-97.7"/>
<text text-anchor="start" x="14.5" y="-106.3" font-family="Helvetica,sans-Serif" font-weight="bold" font-size="11.00" fill="#000000">Video</text>
<text text-anchor="start" x="62.5437" y="-105.8" font-family="Helvetica,sans-Serif" font-size="11.00" fill="#000000">[table]</text>
<polygon fill="none" stroke="#000000" points="9.5,-75.7 9.5,-97.7 97.5,-97.7 97.5,-75.7 9.5,-75.7"/>
<image xlink:href="../../images/primaryKeys.png" width="11px" height="12px" preserveAspectRatio="xMinYMin meet" x="14.5" y="-92.7"/>
<text text-anchor="start" x="29.5" y="-82.8" font-family="Helvetica,sans-Serif" font-size="11.00" fill="#000000">id</text>
<polygon fill="none" stroke="#000000" points="9.5,-56.7 9.5,-75.7 97.5,-75.7 97.5,-56.7 9.5,-56.7"/>
<text text-anchor="start" x="12.5" y="-62.8" font-family="Helvetica,sans-Serif" font-size="11.00" fill="#000000">...</text>
<polygon fill="#ffffff" stroke="transparent" points="9.5,-37.7 9.5,-56.7 29.5,-56.7 29.5,-37.7 9.5,-37.7"/>
<polygon fill="none" stroke="#000000" points="9.5,-37.7 9.5,-56.7 29.5,-56.7 29.5,-37.7 9.5,-37.7"/>
<text text-anchor="start" x="12.5" y="-43.8" font-family="Helvetica,sans-Serif" font-size="11.00" fill="#000000"> &#160;</text>
<polygon fill="#ffffff" stroke="transparent" points="29.5,-37.7 29.5,-56.7 71.5,-56.7 71.5,-37.7 29.5,-37.7"/>
<polygon fill="none" stroke="#000000" points="29.5,-37.7 29.5,-56.7 71.5,-56.7 71.5,-37.7 29.5,-37.7"/>
<text text-anchor="start" x="36.1105" y="-43.8" font-family="Helvetica,sans-Serif" font-size="11.00" fill="#000000">0 rows</text>
<polygon fill="#ffffff" stroke="transparent" points="71.5,-37.7 71.5,-56.7 97.5,-56.7 97.5,-37.7 71.5,-37.7"/>
<polygon fill="none" stroke="#000000" points="71.5,-37.7 71.5,-56.7 97.5,-56.7 97.5,-37.7 71.5,-37.7"/>
<text text-anchor="start" x="78.9053" y="-43.8" font-family="Helvetica,sans-Serif" font-size="11.00" fill="#000000">1 &gt;</text>
</a>
</g>
</g>
<!-- _KeywordToVideo&#45;&gt;Video -->
<g id="edge2" class="edge">
<title>_KeywordToVideo:w&#45;&gt;Video:e</title>
<path fill="none" stroke="#000000" d="M136.6677,-123.6189C121.8959,-113.2484 121.4645,-86.7 97.5,-86.7"/>
<polygon fill="#000000" stroke="#000000" points="142.827,-125.4361 149.4812,-131.1528 146.6635,-126.568 150.5,-127.7 150.5,-127.7 150.5,-127.7 146.6635,-126.568 151.5188,-124.2472 142.827,-125.4361 142.827,-125.4361"/>
<ellipse fill="none" stroke="#000000" cx="139.7578" cy="-124.5305" rx="3.2" ry="3.2"/>
</g>
</g>
</svg>
