<?xml version="1.0" encoding="UTF-8" standalone="no"?>
<!DOCTYPE svg PUBLIC "-//W3C//DTD SVG 1.1//EN"
 "http://www.w3.org/Graphics/SVG/1.1/DTD/svg11.dtd">
<!-- Generated by graphviz version 2.40.1 (20161225.0304)
 -->
<!-- Title: twoDegreesRelationshipsDiagram Pages: 1 -->
<svg width="377pt" height="443pt"
 viewBox="0.00 0.00 377.00 442.70" xmlns="http://www.w3.org/2000/svg" xmlns:xlink="http://www.w3.org/1999/xlink">
<g id="graph0" class="graph" transform="scale(1 1) rotate(0) translate(4 438.7)">
<title>twoDegreesRelationshipsDiagram</title>
<polygon fill="#ffffff" stroke="transparent" points="-4,4 -4,-438.7 373,-438.7 373,4 -4,4"/>
<text text-anchor="middle" x="72.4936" y="-7.3" font-family="Helvetica,sans-Serif" font-size="11.00" fill="#000000">Generated by SchemaSpy</text>
<!-- Account -->
<g id="node1" class="node">
<title>Account</title>
<g id="a_node1"><a xlink:href="../../tables/Account.html" xlink:title="Account" target="_top">
<polygon fill="#ffffff" stroke="transparent" points="158,-120.7 158,-430.7 361,-430.7 361,-120.7 158,-120.7"/>
<polygon fill="#f5f5f5" stroke="transparent" points="160.5,-405.7 160.5,-428.7 359.5,-428.7 359.5,-405.7 160.5,-405.7"/>
<polygon fill="none" stroke="#000000" points="160.5,-405.7 160.5,-428.7 359.5,-428.7 359.5,-405.7 160.5,-405.7"/>
<text text-anchor="start" x="165.5" y="-414.3" font-family="Helvetica,sans-Serif" font-weight="bold" font-size="11.00" fill="#000000">Account</text>
<text text-anchor="start" x="324.5437" y="-413.8" font-family="Helvetica,sans-Serif" font-size="11.00" fill="#000000">[table]</text>
<polygon fill="none" stroke="#000000" points="160.5,-383.7 160.5,-405.7 292.5,-405.7 292.5,-383.7 160.5,-383.7"/>
<image xlink:href="../../images/primaryKeys.png" width="11px" height="12px" preserveAspectRatio="xMinYMin meet" x="165.5" y="-400.7"/>
<text text-anchor="start" x="180.5" y="-390.8" font-family="Helvetica,sans-Serif" font-size="11.00" fill="#000000">id</text>
<polygon fill="none" stroke="#000000" points="292.5,-383.7 292.5,-405.7 359.5,-405.7 359.5,-383.7 292.5,-383.7"/>
<text text-anchor="start" x="295.4365" y="-391.4" font-family="Helvetica,sans-Serif" font-size="11.00" fill="#000000">varchar[191]</text>
<polygon fill="#ffffff" stroke="transparent" points="160.5,-361.7 160.5,-383.7 292.5,-383.7 292.5,-361.7 160.5,-361.7"/>
<polygon fill="none" stroke="#000000" points="160.5,-361.7 160.5,-383.7 292.5,-383.7 292.5,-361.7 160.5,-361.7"/>
<image xlink:href="../../images/foreignKeys.png" width="11px" height="12px" preserveAspectRatio="xMinYMin meet" x="165.5" y="-378.7"/>
<text text-anchor="start" x="180.5" y="-368.8" font-family="Helvetica,sans-Serif" font-size="11.00" fill="#000000">userId</text>
<polygon fill="none" stroke="#000000" points="292.5,-361.7 292.5,-383.7 359.5,-383.7 359.5,-361.7 292.5,-361.7"/>
<text text-anchor="start" x="295.4365" y="-369.4" font-family="Helvetica,sans-Serif" font-size="11.00" fill="#000000">varchar[191]</text>
<polygon fill="none" stroke="#000000" points="160.5,-339.7 160.5,-361.7 292.5,-361.7 292.5,-339.7 160.5,-339.7"/>
<text text-anchor="start" x="180.5" y="-346.8" font-family="Helvetica,sans-Serif" font-size="11.00" fill="#000000">type</text>
<polygon fill="none" stroke="#000000" points="292.5,-339.7 292.5,-361.7 359.5,-361.7 359.5,-339.7 292.5,-339.7"/>
<text text-anchor="start" x="295.4365" y="-347.4" font-family="Helvetica,sans-Serif" font-size="11.00" fill="#000000">varchar[191]</text>
<polygon fill="#ffffff" stroke="transparent" points="160.5,-317.7 160.5,-339.7 292.5,-339.7 292.5,-317.7 160.5,-317.7"/>
<polygon fill="none" stroke="#000000" points="160.5,-317.7 160.5,-339.7 292.5,-339.7 292.5,-317.7 160.5,-317.7"/>
<text text-anchor="start" x="180.5" y="-324.8" font-family="Helvetica,sans-Serif" font-size="11.00" fill="#000000">provider</text>
<polygon fill="none" stroke="#000000" points="292.5,-317.7 292.5,-339.7 359.5,-339.7 359.5,-317.7 292.5,-317.7"/>
<text text-anchor="start" x="295.4365" y="-325.4" font-family="Helvetica,sans-Serif" font-size="11.00" fill="#000000">varchar[191]</text>
<polygon fill="#ffffff" stroke="transparent" points="160.5,-295.7 160.5,-317.7 292.5,-317.7 292.5,-295.7 160.5,-295.7"/>
<polygon fill="none" stroke="#000000" points="160.5,-295.7 160.5,-317.7 292.5,-317.7 292.5,-295.7 160.5,-295.7"/>
<text text-anchor="start" x="180.5" y="-302.8" font-family="Helvetica,sans-Serif" font-size="11.00" fill="#000000">providerAccountId</text>
<polygon fill="none" stroke="#000000" points="292.5,-295.7 292.5,-317.7 359.5,-317.7 359.5,-295.7 292.5,-295.7"/>
<text text-anchor="start" x="295.4365" y="-303.4" font-family="Helvetica,sans-Serif" font-size="11.00" fill="#000000">varchar[191]</text>
<polygon fill="none" stroke="#000000" points="160.5,-273.7 160.5,-295.7 292.5,-295.7 292.5,-273.7 160.5,-273.7"/>
<text text-anchor="start" x="180.5" y="-280.8" font-family="Helvetica,sans-Serif" font-size="11.00" fill="#000000">refresh_token</text>
<polygon fill="none" stroke="#000000" points="292.5,-273.7 292.5,-295.7 359.5,-295.7 359.5,-273.7 292.5,-273.7"/>
<text text-anchor="start" x="295.5" y="-281.4" font-family="Helvetica,sans-Serif" font-size="11.00" fill="#000000">text[65535]</text>
<polygon fill="none" stroke="#000000" points="160.5,-251.7 160.5,-273.7 292.5,-273.7 292.5,-251.7 160.5,-251.7"/>
<text text-anchor="start" x="180.5" y="-258.8" font-family="Helvetica,sans-Serif" font-size="11.00" fill="#000000">access_token</text>
<polygon fill="none" stroke="#000000" points="292.5,-251.7 292.5,-273.7 359.5,-273.7 359.5,-251.7 292.5,-251.7"/>
<text text-anchor="start" x="295.5" y="-259.4" font-family="Helvetica,sans-Serif" font-size="11.00" fill="#000000">text[65535]</text>
<polygon fill="none" stroke="#000000" points="160.5,-229.7 160.5,-251.7 292.5,-251.7 292.5,-229.7 160.5,-229.7"/>
<text text-anchor="start" x="180.5" y="-236.8" font-family="Helvetica,sans-Serif" font-size="11.00" fill="#000000">expires_at</text>
<polygon fill="none" stroke="#000000" points="292.5,-229.7 292.5,-251.7 359.5,-251.7 359.5,-229.7 292.5,-229.7"/>
<text text-anchor="start" x="295.5" y="-237.4" font-family="Helvetica,sans-Serif" font-size="11.00" fill="#000000">int[10]</text>
<polygon fill="none" stroke="#000000" points="160.5,-207.7 160.5,-229.7 292.5,-229.7 292.5,-207.7 160.5,-207.7"/>
<text text-anchor="start" x="180.5" y="-214.8" font-family="Helvetica,sans-Serif" font-size="11.00" fill="#000000">token_type</text>
<polygon fill="none" stroke="#000000" points="292.5,-207.7 292.5,-229.7 359.5,-229.7 359.5,-207.7 292.5,-207.7"/>
<text text-anchor="start" x="295.4365" y="-215.4" font-family="Helvetica,sans-Serif" font-size="11.00" fill="#000000">varchar[191]</text>
<polygon fill="none" stroke="#000000" points="160.5,-185.7 160.5,-207.7 292.5,-207.7 292.5,-185.7 160.5,-185.7"/>
<text text-anchor="start" x="180.5" y="-192.8" font-family="Helvetica,sans-Serif" font-size="11.00" fill="#000000">scope</text>
<polygon fill="none" stroke="#000000" points="292.5,-185.7 292.5,-207.7 359.5,-207.7 359.5,-185.7 292.5,-185.7"/>
<text text-anchor="start" x="295.4365" y="-193.4" font-family="Helvetica,sans-Serif" font-size="11.00" fill="#000000">varchar[191]</text>
<polygon fill="none" stroke="#000000" points="160.5,-163.7 160.5,-185.7 292.5,-185.7 292.5,-163.7 160.5,-163.7"/>
<text text-anchor="start" x="180.5" y="-170.8" font-family="Helvetica,sans-Serif" font-size="11.00" fill="#000000">id_token</text>
<polygon fill="none" stroke="#000000" points="292.5,-163.7 292.5,-185.7 359.5,-185.7 359.5,-163.7 292.5,-163.7"/>
<text text-anchor="start" x="295.5" y="-171.4" font-family="Helvetica,sans-Serif" font-size="11.00" fill="#000000">text[65535]</text>
<polygon fill="none" stroke="#000000" points="160.5,-141.7 160.5,-163.7 292.5,-163.7 292.5,-141.7 160.5,-141.7"/>
<text text-anchor="start" x="180.5" y="-148.8" font-family="Helvetica,sans-Serif" font-size="11.00" fill="#000000">session_state</text>
<polygon fill="none" stroke="#000000" points="292.5,-141.7 292.5,-163.7 359.5,-163.7 359.5,-141.7 292.5,-141.7"/>
<text text-anchor="start" x="295.4365" y="-149.4" font-family="Helvetica,sans-Serif" font-size="11.00" fill="#000000">varchar[191]</text>
<polygon fill="#ffffff" stroke="transparent" points="160.5,-122.7 160.5,-141.7 217.5,-141.7 217.5,-122.7 160.5,-122.7"/>
<polygon fill="none" stroke="#000000" points="160.5,-122.7 160.5,-141.7 217.5,-141.7 217.5,-122.7 160.5,-122.7"/>
<text text-anchor="start" x="163.5" y="-128.8" font-family="Helvetica,sans-Serif" font-size="11.00" fill="#000000">&lt; 1</text>
<polygon fill="#ffffff" stroke="transparent" points="217.5,-122.7 217.5,-141.7 292.5,-141.7 292.5,-122.7 217.5,-122.7"/>
<polygon fill="none" stroke="#000000" points="217.5,-122.7 217.5,-141.7 292.5,-141.7 292.5,-122.7 217.5,-122.7"/>
<text text-anchor="start" x="257.1105" y="-128.8" font-family="Helvetica,sans-Serif" font-size="11.00" fill="#000000">0 rows</text>
<polygon fill="#ffffff" stroke="transparent" points="292.5,-122.7 292.5,-141.7 359.5,-141.7 359.5,-122.7 292.5,-122.7"/>
<polygon fill="none" stroke="#000000" points="292.5,-122.7 292.5,-141.7 359.5,-141.7 359.5,-122.7 292.5,-122.7"/>
<text text-anchor="start" x="340.9053" y="-128.8" font-family="Helvetica,sans-Serif" font-size="11.00" fill="#000000">0 &gt;</text>
<polygon fill="none" stroke="#000000" stroke-width="2" points="159,-121.7 159,-429.7 360,-429.7 360,-121.7 159,-121.7"/>
</a>
</g>
</g>
<!-- User -->
<g id="node2" class="node">
<title>User</title>
<g id="a_node2"><a xlink:href="../../tables/User.html" xlink:title="User" target="_top">
<polygon fill="#ffffff" stroke="transparent" points="8,-148.2 8,-253.2 109,-253.2 109,-148.2 8,-148.2"/>
<polygon fill="#f5f5f5" stroke="transparent" points="8.5,-229.7 8.5,-252.7 109.5,-252.7 109.5,-229.7 8.5,-229.7"/>
<polygon fill="none" stroke="#000000" points="8.5,-229.7 8.5,-252.7 109.5,-252.7 109.5,-229.7 8.5,-229.7"/>
<text text-anchor="start" x="13.3912" y="-238.3" font-family="Helvetica,sans-Serif" font-weight="bold" font-size="11.00" fill="#000000">User</text>
<text text-anchor="start" x="74.5437" y="-237.8" font-family="Helvetica,sans-Serif" font-size="11.00" fill="#000000">[table]</text>
<polygon fill="none" stroke="#000000" points="8.5,-207.7 8.5,-229.7 109.5,-229.7 109.5,-207.7 8.5,-207.7"/>
<image xlink:href="../../images/primaryKeys.png" width="11px" height="12px" preserveAspectRatio="xMinYMin meet" x="13.5" y="-224.7"/>
<text text-anchor="start" x="28.5" y="-214.8" font-family="Helvetica,sans-Serif" font-size="11.00" fill="#000000">id</text>
<polygon fill="#ffffff" stroke="transparent" points="8.5,-185.7 8.5,-207.7 109.5,-207.7 109.5,-185.7 8.5,-185.7"/>
<polygon fill="none" stroke="#000000" points="8.5,-185.7 8.5,-207.7 109.5,-207.7 109.5,-185.7 8.5,-185.7"/>
<text text-anchor="start" x="28.5" y="-192.8" font-family="Helvetica,sans-Serif" font-size="11.00" fill="#000000">email</text>
<polygon fill="none" stroke="#000000" points="8.5,-166.7 8.5,-185.7 109.5,-185.7 109.5,-166.7 8.5,-166.7"/>
<text text-anchor="start" x="11.5" y="-172.8" font-family="Helvetica,sans-Serif" font-size="11.00" fill="#000000">...</text>
<polygon fill="#ffffff" stroke="transparent" points="8.5,-147.7 8.5,-166.7 35.5,-166.7 35.5,-147.7 8.5,-147.7"/>
<polygon fill="none" stroke="#000000" points="8.5,-147.7 8.5,-166.7 35.5,-166.7 35.5,-147.7 8.5,-147.7"/>
<text text-anchor="start" x="11.5" y="-153.8" font-family="Helvetica,sans-Serif" font-size="11.00" fill="#000000"> &#160;</text>
<polygon fill="#ffffff" stroke="transparent" points="35.5,-147.7 35.5,-166.7 80.5,-166.7 80.5,-147.7 35.5,-147.7"/>
<polygon fill="none" stroke="#000000" points="35.5,-147.7 35.5,-166.7 80.5,-166.7 80.5,-147.7 35.5,-147.7"/>
<text text-anchor="start" x="45.1105" y="-153.8" font-family="Helvetica,sans-Serif" font-size="11.00" fill="#000000">0 rows</text>
<polygon fill="#ffffff" stroke="transparent" points="80.5,-147.7 80.5,-166.7 109.5,-166.7 109.5,-147.7 80.5,-147.7"/>
<polygon fill="none" stroke="#000000" points="80.5,-147.7 80.5,-166.7 109.5,-166.7 109.5,-147.7 80.5,-147.7"/>
<text text-anchor="start" x="90.9053" y="-153.8" font-family="Helvetica,sans-Serif" font-size="11.00" fill="#000000">2 &gt;</text>
</a>
</g>
</g>
<!-- Account&#45;&gt;User -->
<g id="edge1" class="edge">
<title>Account:w&#45;&gt;User:e</title>
<path fill="none" stroke="#000000" d="M146.1893,-369.8956C102.2665,-349.0235 175.8264,-218.7 109.5,-218.7"/>
<polygon fill="#000000" stroke="#000000" points="152.6493,-371.1615 159.8077,-376.2328 156.5747,-371.9307 160.5,-372.7 160.5,-372.7 160.5,-372.7 156.5747,-371.9307 161.1923,-369.1672 152.6493,-371.1615 152.6493,-371.1615"/>
<ellipse fill="none" stroke="#000000" cx="149.5091" cy="-370.5461" rx="3.2" ry="3.2"/>
</g>
<!-- Session -->
<g id="node3" class="node">
<title>Session</title>
<g id="a_node3"><a xlink:href="../../tables/Session.html" xlink:title="Session" target="_top">
<polygon fill="#ffffff" stroke="transparent" points="218,-38.2 218,-99.2 301,-99.2 301,-38.2 218,-38.2"/>
<polygon fill="#f5f5f5" stroke="transparent" points="218.5,-75.7 218.5,-98.7 301.5,-98.7 301.5,-75.7 218.5,-75.7"/>
<polygon fill="none" stroke="#000000" points="218.5,-75.7 218.5,-98.7 301.5,-98.7 301.5,-75.7 218.5,-75.7"/>
<text text-anchor="start" x="223.5" y="-84.3" font-family="Helvetica,sans-Serif" font-weight="bold" font-size="11.00" fill="#000000">Session</text>
<text text-anchor="start" x="267.0219" y="-83.8" font-family="Helvetica,sans-Serif" font-size="11.00" fill="#000000">[table]</text>
<polygon fill="none" stroke="#000000" points="218.5,-56.7 218.5,-75.7 301.5,-75.7 301.5,-56.7 218.5,-56.7"/>
<text text-anchor="start" x="221.5" y="-62.8" font-family="Helvetica,sans-Serif" font-size="11.00" fill="#000000">...</text>
<polygon fill="#ffffff" stroke="transparent" points="218.5,-37.7 218.5,-56.7 245.5,-56.7 245.5,-37.7 218.5,-37.7"/>
<polygon fill="none" stroke="#000000" points="218.5,-37.7 218.5,-56.7 245.5,-56.7 245.5,-37.7 218.5,-37.7"/>
<text text-anchor="start" x="221.5" y="-43.8" font-family="Helvetica,sans-Serif" font-size="11.00" fill="#000000">&lt; 1</text>
<polygon fill="#ffffff" stroke="transparent" points="245.5,-37.7 245.5,-56.7 286.5,-56.7 286.5,-37.7 245.5,-37.7"/>
<polygon fill="none" stroke="#000000" points="245.5,-37.7 245.5,-56.7 286.5,-56.7 286.5,-37.7 245.5,-37.7"/>
<text text-anchor="start" x="251.1105" y="-43.8" font-family="Helvetica,sans-Serif" font-size="11.00" fill="#000000">0 rows</text>
<polygon fill="#ffffff" stroke="transparent" points="286.5,-37.7 286.5,-56.7 301.5,-56.7 301.5,-37.7 286.5,-37.7"/>
<polygon fill="none" stroke="#000000" points="286.5,-37.7 286.5,-56.7 301.5,-56.7 301.5,-37.7 286.5,-37.7"/>
<text text-anchor="start" x="292.3862" y="-43.8" font-family="Helvetica,sans-Serif" font-size="11.00" fill="#000000"> &#160;</text>
</a>
</g>
</g>
<!-- Session&#45;&gt;User -->
<g id="edge2" class="edge">
<title>Session:w&#45;&gt;User:e</title>
<path fill="none" stroke="#000000" d="M203.9373,-66.7784C179.0072,-70.8737 169.3636,-86.467 150,-110.7 117.9986,-150.7489 160.764,-218.7 109.5,-218.7"/>
<polygon fill="#000000" stroke="#000000" points="210.5218,-66.2908 218.7659,-69.2902 214.5109,-65.9954 218.5,-65.7 218.5,-65.7 218.5,-65.7 214.5109,-65.9954 218.2341,-62.1098 210.5218,-66.2908 210.5218,-66.2908"/>
<ellipse fill="none" stroke="#000000" cx="207.3306" cy="-66.5272" rx="3.2" ry="3.2"/>
</g>
</g>
</svg>
