<?xml version="1.0" encoding="UTF-8" standalone="no"?>
<!DOCTYPE svg PUBLIC "-//W3C//DTD SVG 1.1//EN"
 "http://www.w3.org/Graphics/SVG/1.1/DTD/svg11.dtd">
<!-- Generated by graphviz version 2.40.1 (20161225.0304)
 -->
<!-- Title: oneDegreeRelationshipsDiagram Pages: 1 -->
<svg width="377pt" height="360pt"
 viewBox="0.00 0.00 377.00 360.20" xmlns="http://www.w3.org/2000/svg" xmlns:xlink="http://www.w3.org/1999/xlink">
<g id="graph0" class="graph" transform="scale(1 1) rotate(0) translate(4 356.2)">
<title>oneDegreeRelationshipsDiagram</title>
<polygon fill="#ffffff" stroke="transparent" points="-4,4 -4,-356.2 373,-356.2 373,4 -4,4"/>
<text text-anchor="middle" x="72.4936" y="-7.3" font-family="Helvetica,sans-Serif" font-size="11.00" fill="#000000">Generated by SchemaSpy</text>
<!-- Account -->
<g id="node1" class="node">
<title>Account</title>
<g id="a_node1"><a xlink:href="../../tables/Account.html" xlink:title="Account" target="_top">
<polygon fill="#ffffff" stroke="transparent" points="158,-38.2 158,-348.2 361,-348.2 361,-38.2 158,-38.2"/>
<polygon fill="#f5f5f5" stroke="transparent" points="160.5,-323.2 160.5,-346.2 359.5,-346.2 359.5,-323.2 160.5,-323.2"/>
<polygon fill="none" stroke="#000000" points="160.5,-323.2 160.5,-346.2 359.5,-346.2 359.5,-323.2 160.5,-323.2"/>
<text text-anchor="start" x="165.5" y="-331.8" font-family="Helvetica,sans-Serif" font-weight="bold" font-size="11.00" fill="#000000">Account</text>
<text text-anchor="start" x="324.5437" y="-331.3" font-family="Helvetica,sans-Serif" font-size="11.00" fill="#000000">[table]</text>
<polygon fill="none" stroke="#000000" points="160.5,-301.2 160.5,-323.2 292.5,-323.2 292.5,-301.2 160.5,-301.2"/>
<image xlink:href="../../images/primaryKeys.png" width="11px" height="12px" preserveAspectRatio="xMinYMin meet" x="165.5" y="-318.2"/>
<text text-anchor="start" x="180.5" y="-308.3" font-family="Helvetica,sans-Serif" font-size="11.00" fill="#000000">id</text>
<polygon fill="none" stroke="#000000" points="292.5,-301.2 292.5,-323.2 359.5,-323.2 359.5,-301.2 292.5,-301.2"/>
<text text-anchor="start" x="295.4365" y="-308.9" font-family="Helvetica,sans-Serif" font-size="11.00" fill="#000000">varchar[191]</text>
<polygon fill="#ffffff" stroke="transparent" points="160.5,-279.2 160.5,-301.2 292.5,-301.2 292.5,-279.2 160.5,-279.2"/>
<polygon fill="none" stroke="#000000" points="160.5,-279.2 160.5,-301.2 292.5,-301.2 292.5,-279.2 160.5,-279.2"/>
<image xlink:href="../../images/foreignKeys.png" width="11px" height="12px" preserveAspectRatio="xMinYMin meet" x="165.5" y="-296.2"/>
<text text-anchor="start" x="180.5" y="-286.3" font-family="Helvetica,sans-Serif" font-size="11.00" fill="#000000">userId</text>
<polygon fill="none" stroke="#000000" points="292.5,-279.2 292.5,-301.2 359.5,-301.2 359.5,-279.2 292.5,-279.2"/>
<text text-anchor="start" x="295.4365" y="-286.9" font-family="Helvetica,sans-Serif" font-size="11.00" fill="#000000">varchar[191]</text>
<polygon fill="none" stroke="#000000" points="160.5,-257.2 160.5,-279.2 292.5,-279.2 292.5,-257.2 160.5,-257.2"/>
<text text-anchor="start" x="180.5" y="-264.3" font-family="Helvetica,sans-Serif" font-size="11.00" fill="#000000">type</text>
<polygon fill="none" stroke="#000000" points="292.5,-257.2 292.5,-279.2 359.5,-279.2 359.5,-257.2 292.5,-257.2"/>
<text text-anchor="start" x="295.4365" y="-264.9" font-family="Helvetica,sans-Serif" font-size="11.00" fill="#000000">varchar[191]</text>
<polygon fill="#ffffff" stroke="transparent" points="160.5,-235.2 160.5,-257.2 292.5,-257.2 292.5,-235.2 160.5,-235.2"/>
<polygon fill="none" stroke="#000000" points="160.5,-235.2 160.5,-257.2 292.5,-257.2 292.5,-235.2 160.5,-235.2"/>
<text text-anchor="start" x="180.5" y="-242.3" font-family="Helvetica,sans-Serif" font-size="11.00" fill="#000000">provider</text>
<polygon fill="none" stroke="#000000" points="292.5,-235.2 292.5,-257.2 359.5,-257.2 359.5,-235.2 292.5,-235.2"/>
<text text-anchor="start" x="295.4365" y="-242.9" font-family="Helvetica,sans-Serif" font-size="11.00" fill="#000000">varchar[191]</text>
<polygon fill="#ffffff" stroke="transparent" points="160.5,-213.2 160.5,-235.2 292.5,-235.2 292.5,-213.2 160.5,-213.2"/>
<polygon fill="none" stroke="#000000" points="160.5,-213.2 160.5,-235.2 292.5,-235.2 292.5,-213.2 160.5,-213.2"/>
<text text-anchor="start" x="180.5" y="-220.3" font-family="Helvetica,sans-Serif" font-size="11.00" fill="#000000">providerAccountId</text>
<polygon fill="none" stroke="#000000" points="292.5,-213.2 292.5,-235.2 359.5,-235.2 359.5,-213.2 292.5,-213.2"/>
<text text-anchor="start" x="295.4365" y="-220.9" font-family="Helvetica,sans-Serif" font-size="11.00" fill="#000000">varchar[191]</text>
<polygon fill="none" stroke="#000000" points="160.5,-191.2 160.5,-213.2 292.5,-213.2 292.5,-191.2 160.5,-191.2"/>
<text text-anchor="start" x="180.5" y="-198.3" font-family="Helvetica,sans-Serif" font-size="11.00" fill="#000000">refresh_token</text>
<polygon fill="none" stroke="#000000" points="292.5,-191.2 292.5,-213.2 359.5,-213.2 359.5,-191.2 292.5,-191.2"/>
<text text-anchor="start" x="295.5" y="-198.9" font-family="Helvetica,sans-Serif" font-size="11.00" fill="#000000">text[65535]</text>
<polygon fill="none" stroke="#000000" points="160.5,-169.2 160.5,-191.2 292.5,-191.2 292.5,-169.2 160.5,-169.2"/>
<text text-anchor="start" x="180.5" y="-176.3" font-family="Helvetica,sans-Serif" font-size="11.00" fill="#000000">access_token</text>
<polygon fill="none" stroke="#000000" points="292.5,-169.2 292.5,-191.2 359.5,-191.2 359.5,-169.2 292.5,-169.2"/>
<text text-anchor="start" x="295.5" y="-176.9" font-family="Helvetica,sans-Serif" font-size="11.00" fill="#000000">text[65535]</text>
<polygon fill="none" stroke="#000000" points="160.5,-147.2 160.5,-169.2 292.5,-169.2 292.5,-147.2 160.5,-147.2"/>
<text text-anchor="start" x="180.5" y="-154.3" font-family="Helvetica,sans-Serif" font-size="11.00" fill="#000000">expires_at</text>
<polygon fill="none" stroke="#000000" points="292.5,-147.2 292.5,-169.2 359.5,-169.2 359.5,-147.2 292.5,-147.2"/>
<text text-anchor="start" x="295.5" y="-154.9" font-family="Helvetica,sans-Serif" font-size="11.00" fill="#000000">int[10]</text>
<polygon fill="none" stroke="#000000" points="160.5,-125.2 160.5,-147.2 292.5,-147.2 292.5,-125.2 160.5,-125.2"/>
<text text-anchor="start" x="180.5" y="-132.3" font-family="Helvetica,sans-Serif" font-size="11.00" fill="#000000">token_type</text>
<polygon fill="none" stroke="#000000" points="292.5,-125.2 292.5,-147.2 359.5,-147.2 359.5,-125.2 292.5,-125.2"/>
<text text-anchor="start" x="295.4365" y="-132.9" font-family="Helvetica,sans-Serif" font-size="11.00" fill="#000000">varchar[191]</text>
<polygon fill="none" stroke="#000000" points="160.5,-103.2 160.5,-125.2 292.5,-125.2 292.5,-103.2 160.5,-103.2"/>
<text text-anchor="start" x="180.5" y="-110.3" font-family="Helvetica,sans-Serif" font-size="11.00" fill="#000000">scope</text>
<polygon fill="none" stroke="#000000" points="292.5,-103.2 292.5,-125.2 359.5,-125.2 359.5,-103.2 292.5,-103.2"/>
<text text-anchor="start" x="295.4365" y="-110.9" font-family="Helvetica,sans-Serif" font-size="11.00" fill="#000000">varchar[191]</text>
<polygon fill="none" stroke="#000000" points="160.5,-81.2 160.5,-103.2 292.5,-103.2 292.5,-81.2 160.5,-81.2"/>
<text text-anchor="start" x="180.5" y="-88.3" font-family="Helvetica,sans-Serif" font-size="11.00" fill="#000000">id_token</text>
<polygon fill="none" stroke="#000000" points="292.5,-81.2 292.5,-103.2 359.5,-103.2 359.5,-81.2 292.5,-81.2"/>
<text text-anchor="start" x="295.5" y="-88.9" font-family="Helvetica,sans-Serif" font-size="11.00" fill="#000000">text[65535]</text>
<polygon fill="none" stroke="#000000" points="160.5,-59.2 160.5,-81.2 292.5,-81.2 292.5,-59.2 160.5,-59.2"/>
<text text-anchor="start" x="180.5" y="-66.3" font-family="Helvetica,sans-Serif" font-size="11.00" fill="#000000">session_state</text>
<polygon fill="none" stroke="#000000" points="292.5,-59.2 292.5,-81.2 359.5,-81.2 359.5,-59.2 292.5,-59.2"/>
<text text-anchor="start" x="295.4365" y="-66.9" font-family="Helvetica,sans-Serif" font-size="11.00" fill="#000000">varchar[191]</text>
<polygon fill="#ffffff" stroke="transparent" points="160.5,-40.2 160.5,-59.2 217.5,-59.2 217.5,-40.2 160.5,-40.2"/>
<polygon fill="none" stroke="#000000" points="160.5,-40.2 160.5,-59.2 217.5,-59.2 217.5,-40.2 160.5,-40.2"/>
<text text-anchor="start" x="163.5" y="-46.3" font-family="Helvetica,sans-Serif" font-size="11.00" fill="#000000">&lt; 1</text>
<polygon fill="#ffffff" stroke="transparent" points="217.5,-40.2 217.5,-59.2 292.5,-59.2 292.5,-40.2 217.5,-40.2"/>
<polygon fill="none" stroke="#000000" points="217.5,-40.2 217.5,-59.2 292.5,-59.2 292.5,-40.2 217.5,-40.2"/>
<text text-anchor="start" x="257.1105" y="-46.3" font-family="Helvetica,sans-Serif" font-size="11.00" fill="#000000">0 rows</text>
<polygon fill="#ffffff" stroke="transparent" points="292.5,-40.2 292.5,-59.2 359.5,-59.2 359.5,-40.2 292.5,-40.2"/>
<polygon fill="none" stroke="#000000" points="292.5,-40.2 292.5,-59.2 359.5,-59.2 359.5,-40.2 292.5,-40.2"/>
<text text-anchor="start" x="340.9053" y="-46.3" font-family="Helvetica,sans-Serif" font-size="11.00" fill="#000000">0 &gt;</text>
<polygon fill="none" stroke="#000000" stroke-width="2" points="159,-39.2 159,-347.2 360,-347.2 360,-39.2 159,-39.2"/>
</a>
</g>
</g>
<!-- User -->
<g id="node2" class="node">
<title>User</title>
<g id="a_node2"><a xlink:href="../../tables/User.html" xlink:title="User" target="_top">
<polygon fill="#ffffff" stroke="transparent" points="8,-219.7 8,-324.7 109,-324.7 109,-219.7 8,-219.7"/>
<polygon fill="#f5f5f5" stroke="transparent" points="8.5,-301.2 8.5,-324.2 109.5,-324.2 109.5,-301.2 8.5,-301.2"/>
<polygon fill="none" stroke="#000000" points="8.5,-301.2 8.5,-324.2 109.5,-324.2 109.5,-301.2 8.5,-301.2"/>
<text text-anchor="start" x="13.3912" y="-309.8" font-family="Helvetica,sans-Serif" font-weight="bold" font-size="11.00" fill="#000000">User</text>
<text text-anchor="start" x="74.5437" y="-309.3" font-family="Helvetica,sans-Serif" font-size="11.00" fill="#000000">[table]</text>
<polygon fill="none" stroke="#000000" points="8.5,-279.2 8.5,-301.2 109.5,-301.2 109.5,-279.2 8.5,-279.2"/>
<image xlink:href="../../images/primaryKeys.png" width="11px" height="12px" preserveAspectRatio="xMinYMin meet" x="13.5" y="-296.2"/>
<text text-anchor="start" x="28.5" y="-286.3" font-family="Helvetica,sans-Serif" font-size="11.00" fill="#000000">id</text>
<polygon fill="#ffffff" stroke="transparent" points="8.5,-257.2 8.5,-279.2 109.5,-279.2 109.5,-257.2 8.5,-257.2"/>
<polygon fill="none" stroke="#000000" points="8.5,-257.2 8.5,-279.2 109.5,-279.2 109.5,-257.2 8.5,-257.2"/>
<text text-anchor="start" x="28.5" y="-264.3" font-family="Helvetica,sans-Serif" font-size="11.00" fill="#000000">email</text>
<polygon fill="none" stroke="#000000" points="8.5,-238.2 8.5,-257.2 109.5,-257.2 109.5,-238.2 8.5,-238.2"/>
<text text-anchor="start" x="11.5" y="-244.3" font-family="Helvetica,sans-Serif" font-size="11.00" fill="#000000">...</text>
<polygon fill="#ffffff" stroke="transparent" points="8.5,-219.2 8.5,-238.2 35.5,-238.2 35.5,-219.2 8.5,-219.2"/>
<polygon fill="none" stroke="#000000" points="8.5,-219.2 8.5,-238.2 35.5,-238.2 35.5,-219.2 8.5,-219.2"/>
<text text-anchor="start" x="11.5" y="-225.3" font-family="Helvetica,sans-Serif" font-size="11.00" fill="#000000"> &#160;</text>
<polygon fill="#ffffff" stroke="transparent" points="35.5,-219.2 35.5,-238.2 80.5,-238.2 80.5,-219.2 35.5,-219.2"/>
<polygon fill="none" stroke="#000000" points="35.5,-219.2 35.5,-238.2 80.5,-238.2 80.5,-219.2 35.5,-219.2"/>
<text text-anchor="start" x="45.1105" y="-225.3" font-family="Helvetica,sans-Serif" font-size="11.00" fill="#000000">0 rows</text>
<polygon fill="#ffffff" stroke="transparent" points="80.5,-219.2 80.5,-238.2 109.5,-238.2 109.5,-219.2 80.5,-219.2"/>
<polygon fill="none" stroke="#000000" points="80.5,-219.2 80.5,-238.2 109.5,-238.2 109.5,-219.2 80.5,-219.2"/>
<text text-anchor="start" x="90.9053" y="-225.3" font-family="Helvetica,sans-Serif" font-size="11.00" fill="#000000">2 &gt;</text>
</a>
</g>
</g>
<!-- Account&#45;&gt;User -->
<g id="edge1" class="edge">
<title>Account:w&#45;&gt;User:e</title>
<path fill="none" stroke="#000000" d="M145.776,-290.2C133.7815,-290.2 126.3229,-290.2 109.5,-290.2"/>
<polygon fill="#000000" stroke="#000000" points="152.5,-290.2001 160.5,-293.8 156.5,-290.2 160.5,-290.2 160.5,-290.2 160.5,-290.2 156.5,-290.2 160.5,-286.6 152.5,-290.2001 152.5,-290.2001"/>
<ellipse fill="none" stroke="#000000" cx="149.3" cy="-290.2001" rx="3.2" ry="3.2"/>
</g>
</g>
</svg>
