<?xml version="1.0" encoding="UTF-8" standalone="no"?>
<!DOCTYPE svg PUBLIC "-//W3C//DTD SVG 1.1//EN"
 "http://www.w3.org/Graphics/SVG/1.1/DTD/svg11.dtd">
<!-- Generated by graphviz version 2.40.1 (20161225.0304)
 -->
<!-- Title: twoDegreesRelationshipsDiagram Pages: 1 -->
<svg width="372pt" height="267pt"
 viewBox="0.00 0.00 372.00 266.70" xmlns="http://www.w3.org/2000/svg" xmlns:xlink="http://www.w3.org/1999/xlink">
<g id="graph0" class="graph" transform="scale(1 1) rotate(0) translate(4 262.7)">
<title>twoDegreesRelationshipsDiagram</title>
<polygon fill="#ffffff" stroke="transparent" points="-4,4 -4,-262.7 368,-262.7 368,4 -4,4"/>
<text text-anchor="middle" x="72.4936" y="-7.3" font-family="Helvetica,sans-Serif" font-size="11.00" fill="#000000">Generated by SchemaSpy</text>
<!-- _KeywordToVideo -->
<g id="node1" class="node">
<title>_KeywordToVideo</title>
<g id="a_node1"><a xlink:href="../../tables/_KeywordToVideo.html" xlink:title="_KeywordToVideo" target="_top">
<polygon fill="#ffffff" stroke="transparent" points="212,-100.7 212,-186.7 356,-186.7 356,-100.7 212,-100.7"/>
<polygon fill="#f5f5f5" stroke="transparent" points="212,-163.7 212,-186.7 356,-186.7 356,-163.7 212,-163.7"/>
<polygon fill="none" stroke="#000000" points="212,-163.7 212,-186.7 356,-186.7 356,-163.7 212,-163.7"/>
<text text-anchor="start" x="217" y="-172.3" font-family="Helvetica,sans-Serif" font-weight="bold" font-size="11.00" fill="#000000">_KeywordToVideo</text>
<text text-anchor="start" x="321.5219" y="-171.8" font-family="Helvetica,sans-Serif" font-size="11.00" fill="#000000">[table]</text>
<polygon fill="#ffffff" stroke="transparent" points="212,-141.7 212,-163.7 356,-163.7 356,-141.7 212,-141.7"/>
<polygon fill="none" stroke="#000000" points="212,-141.7 212,-163.7 356,-163.7 356,-141.7 212,-141.7"/>
<image xlink:href="../../images/foreignKeys.png" width="11px" height="12px" preserveAspectRatio="xMinYMin meet" x="217" y="-158.7"/>
<text text-anchor="start" x="241" y="-148.8" font-family="Helvetica,sans-Serif" font-size="11.00" fill="#000000">A</text>
<polygon fill="#ffffff" stroke="transparent" points="212,-119.7 212,-141.7 356,-141.7 356,-119.7 212,-119.7"/>
<polygon fill="none" stroke="#000000" points="212,-119.7 212,-141.7 356,-141.7 356,-119.7 212,-119.7"/>
<image xlink:href="../../images/foreignKeys.png" width="11px" height="12px" preserveAspectRatio="xMinYMin meet" x="217" y="-136.7"/>
<text text-anchor="start" x="241" y="-126.8" font-family="Helvetica,sans-Serif" font-size="11.00" fill="#000000">B</text>
<polygon fill="#ffffff" stroke="transparent" points="212,-100.7 212,-119.7 269,-119.7 269,-100.7 212,-100.7"/>
<polygon fill="none" stroke="#000000" points="212,-100.7 212,-119.7 269,-119.7 269,-100.7 212,-100.7"/>
<text text-anchor="start" x="215" y="-106.8" font-family="Helvetica,sans-Serif" font-size="11.00" fill="#000000">&lt; 2</text>
<polygon fill="#ffffff" stroke="transparent" points="269,-100.7 269,-119.7 325,-119.7 325,-100.7 269,-100.7"/>
<polygon fill="none" stroke="#000000" points="269,-100.7 269,-119.7 325,-119.7 325,-100.7 269,-100.7"/>
<text text-anchor="start" x="289.6105" y="-106.8" font-family="Helvetica,sans-Serif" font-size="11.00" fill="#000000">0 rows</text>
<polygon fill="#ffffff" stroke="transparent" points="325,-100.7 325,-119.7 356,-119.7 356,-100.7 325,-100.7"/>
<polygon fill="none" stroke="#000000" points="325,-100.7 325,-119.7 356,-119.7 356,-100.7 325,-100.7"/>
<text text-anchor="start" x="346.8862" y="-106.8" font-family="Helvetica,sans-Serif" font-size="11.00" fill="#000000"> &#160;</text>
</a>
</g>
</g>
<!-- Keyword -->
<g id="node2" class="node">
<title>Keyword</title>
<g id="a_node2"><a xlink:href="../../tables/Keyword.html" xlink:title="Keyword" target="_top">
<polygon fill="#ffffff" stroke="transparent" points="8,-120.7 8,-254.7 163,-254.7 163,-120.7 8,-120.7"/>
<polygon fill="#f5f5f5" stroke="transparent" points="10.5,-229.7 10.5,-252.7 161.5,-252.7 161.5,-229.7 10.5,-229.7"/>
<polygon fill="none" stroke="#000000" points="10.5,-229.7 10.5,-252.7 161.5,-252.7 161.5,-229.7 10.5,-229.7"/>
<text text-anchor="start" x="15.5" y="-238.3" font-family="Helvetica,sans-Serif" font-weight="bold" font-size="11.00" fill="#000000">Keyword</text>
<text text-anchor="start" x="126.5437" y="-237.8" font-family="Helvetica,sans-Serif" font-size="11.00" fill="#000000">[table]</text>
<polygon fill="none" stroke="#000000" points="10.5,-207.7 10.5,-229.7 94.5,-229.7 94.5,-207.7 10.5,-207.7"/>
<image xlink:href="../../images/primaryKeys.png" width="11px" height="12px" preserveAspectRatio="xMinYMin meet" x="15.5" y="-224.7"/>
<text text-anchor="start" x="30.5" y="-214.8" font-family="Helvetica,sans-Serif" font-size="11.00" fill="#000000">id</text>
<polygon fill="none" stroke="#000000" points="94.5,-207.7 94.5,-229.7 161.5,-229.7 161.5,-207.7 94.5,-207.7"/>
<text text-anchor="start" x="97.5" y="-215.4" font-family="Helvetica,sans-Serif" font-size="11.00" fill="#000000">int[10]</text>
<polygon fill="none" stroke="#000000" points="10.5,-185.7 10.5,-207.7 94.5,-207.7 94.5,-185.7 10.5,-185.7"/>
<text text-anchor="start" x="30.5" y="-192.8" font-family="Helvetica,sans-Serif" font-size="11.00" fill="#000000">keyword</text>
<polygon fill="none" stroke="#000000" points="94.5,-185.7 94.5,-207.7 161.5,-207.7 161.5,-185.7 94.5,-185.7"/>
<text text-anchor="start" x="97.4365" y="-193.4" font-family="Helvetica,sans-Serif" font-size="11.00" fill="#000000">varchar[191]</text>
<polygon fill="none" stroke="#000000" points="10.5,-163.7 10.5,-185.7 94.5,-185.7 94.5,-163.7 10.5,-163.7"/>
<text text-anchor="start" x="30.5" y="-170.8" font-family="Helvetica,sans-Serif" font-size="11.00" fill="#000000">createdAt</text>
<polygon fill="none" stroke="#000000" points="94.5,-163.7 94.5,-185.7 161.5,-185.7 161.5,-163.7 94.5,-163.7"/>
<text text-anchor="start" x="97.5" y="-171.4" font-family="Helvetica,sans-Serif" font-size="11.00" fill="#000000">datetime[23]</text>
<polygon fill="none" stroke="#000000" points="10.5,-141.7 10.5,-163.7 94.5,-163.7 94.5,-141.7 10.5,-141.7"/>
<text text-anchor="start" x="30.5" y="-148.8" font-family="Helvetica,sans-Serif" font-size="11.00" fill="#000000">updatedAt</text>
<polygon fill="none" stroke="#000000" points="94.5,-141.7 94.5,-163.7 161.5,-163.7 161.5,-141.7 94.5,-141.7"/>
<text text-anchor="start" x="97.5" y="-149.4" font-family="Helvetica,sans-Serif" font-size="11.00" fill="#000000">datetime[23]</text>
<polygon fill="#ffffff" stroke="transparent" points="10.5,-122.7 10.5,-141.7 43.5,-141.7 43.5,-122.7 10.5,-122.7"/>
<polygon fill="none" stroke="#000000" points="10.5,-122.7 10.5,-141.7 43.5,-141.7 43.5,-122.7 10.5,-122.7"/>
<text text-anchor="start" x="13.5" y="-128.8" font-family="Helvetica,sans-Serif" font-size="11.00" fill="#000000">&lt; 0</text>
<polygon fill="#ffffff" stroke="transparent" points="43.5,-122.7 43.5,-141.7 94.5,-141.7 94.5,-122.7 43.5,-122.7"/>
<polygon fill="none" stroke="#000000" points="43.5,-122.7 43.5,-141.7 94.5,-141.7 94.5,-122.7 43.5,-122.7"/>
<text text-anchor="start" x="59.1105" y="-128.8" font-family="Helvetica,sans-Serif" font-size="11.00" fill="#000000">0 rows</text>
<polygon fill="#ffffff" stroke="transparent" points="94.5,-122.7 94.5,-141.7 161.5,-141.7 161.5,-122.7 94.5,-122.7"/>
<polygon fill="none" stroke="#000000" points="94.5,-122.7 94.5,-141.7 161.5,-141.7 161.5,-122.7 94.5,-122.7"/>
<text text-anchor="start" x="142.9053" y="-128.8" font-family="Helvetica,sans-Serif" font-size="11.00" fill="#000000">1 &gt;</text>
<polygon fill="none" stroke="#000000" stroke-width="2" points="9,-121.7 9,-253.7 162,-253.7 162,-121.7 9,-121.7"/>
</a>
</g>
</g>
<!-- _KeywordToVideo&#45;&gt;Keyword -->
<g id="edge1" class="edge">
<title>_KeywordToVideo:w&#45;&gt;Keyword:e</title>
<path fill="none" stroke="#000000" d="M198.158,-157.4466C181.1101,-172.5798 192.3754,-218.7 161.5,-218.7"/>
<polygon fill="#000000" stroke="#000000" points="204.4326,-155.295 213.1677,-156.1054 208.2163,-153.9975 212,-152.7 212,-152.7 212,-152.7 208.2163,-153.9975 210.8323,-149.2946 204.4326,-155.295 204.4326,-155.295"/>
<ellipse fill="none" stroke="#000000" cx="201.4056" cy="-156.333" rx="3.2" ry="3.2"/>
</g>
<!-- Video -->
<g id="node3" class="node">
<title>Video</title>
<g id="a_node3"><a xlink:href="../../tables/Video.html" xlink:title="Video" target="_top">
<polygon fill="#ffffff" stroke="transparent" points="49.5,-38.2 49.5,-99.2 121.5,-99.2 121.5,-38.2 49.5,-38.2"/>
<polygon fill="#f5f5f5" stroke="transparent" points="49.5,-75.7 49.5,-98.7 121.5,-98.7 121.5,-75.7 49.5,-75.7"/>
<polygon fill="none" stroke="#000000" points="49.5,-75.7 49.5,-98.7 121.5,-98.7 121.5,-75.7 49.5,-75.7"/>
<text text-anchor="start" x="54.5" y="-84.3" font-family="Helvetica,sans-Serif" font-weight="bold" font-size="11.00" fill="#000000">Video</text>
<text text-anchor="start" x="87.0219" y="-83.8" font-family="Helvetica,sans-Serif" font-size="11.00" fill="#000000">[table]</text>
<polygon fill="none" stroke="#000000" points="49.5,-56.7 49.5,-75.7 121.5,-75.7 121.5,-56.7 49.5,-56.7"/>
<text text-anchor="start" x="52.5" y="-62.8" font-family="Helvetica,sans-Serif" font-size="11.00" fill="#000000">...</text>
<polygon fill="#ffffff" stroke="transparent" points="49.5,-37.7 49.5,-56.7 61.5,-56.7 61.5,-37.7 49.5,-37.7"/>
<polygon fill="none" stroke="#000000" points="49.5,-37.7 49.5,-56.7 61.5,-56.7 61.5,-37.7 49.5,-37.7"/>
<text text-anchor="start" x="52.4431" y="-43.8" font-family="Helvetica,sans-Serif" font-size="11.00" fill="#000000"> &#160;</text>
<polygon fill="#ffffff" stroke="transparent" points="61.5,-37.7 61.5,-56.7 99.5,-56.7 99.5,-37.7 61.5,-37.7"/>
<polygon fill="none" stroke="#000000" points="61.5,-37.7 61.5,-56.7 99.5,-56.7 99.5,-37.7 61.5,-37.7"/>
<text text-anchor="start" x="64.3053" y="-43.8" font-family="Helvetica,sans-Serif" font-size="11.00" fill="#000000">0 rows</text>
<polygon fill="#ffffff" stroke="transparent" points="99.5,-37.7 99.5,-56.7 121.5,-56.7 121.5,-37.7 99.5,-37.7"/>
<polygon fill="none" stroke="#000000" points="99.5,-37.7 99.5,-56.7 121.5,-56.7 121.5,-37.7 99.5,-37.7"/>
<text text-anchor="start" x="102.9053" y="-43.8" font-family="Helvetica,sans-Serif" font-size="11.00" fill="#000000">1 &gt;</text>
</a>
</g>
</g>
<!-- _KeywordToVideo&#45;&gt;Video -->
<g id="edge2" class="edge">
<title>_KeywordToVideo:w&#45;&gt;Video:e</title>
<path fill="none" stroke="#000000" d="M197.6826,-128.5373C163.6526,-117.2588 165.6052,-65.7 121.5,-65.7"/>
<polygon fill="#000000" stroke="#000000" points="204.0897,-129.5051 211.4623,-134.2596 208.0449,-130.1025 212,-130.7 212,-130.7 212,-130.7 208.0449,-130.1025 212.5377,-127.1404 204.0897,-129.5051 204.0897,-129.5051"/>
<ellipse fill="none" stroke="#000000" cx="200.9256" cy="-129.0271" rx="3.2" ry="3.2"/>
</g>
</g>
</svg>
