<?xml version="1.0" encoding="UTF-8" standalone="no"?>
<!DOCTYPE svg PUBLIC "-//W3C//DTD SVG 1.1//EN"
 "http://www.w3.org/Graphics/SVG/1.1/DTD/svg11.dtd">
<!-- Generated by graphviz version 2.40.1 (20161225.0304)
 -->
<!-- Title: oneDegreeRelationshipsDiagram Pages: 1 -->
<svg width="372pt" height="184pt"
 viewBox="0.00 0.00 372.00 184.20" xmlns="http://www.w3.org/2000/svg" xmlns:xlink="http://www.w3.org/1999/xlink">
<g id="graph0" class="graph" transform="scale(1 1) rotate(0) translate(4 180.2)">
<title>oneDegreeRelationshipsDiagram</title>
<polygon fill="#ffffff" stroke="transparent" points="-4,4 -4,-180.2 368,-180.2 368,4 -4,4"/>
<text text-anchor="middle" x="72.4936" y="-7.3" font-family="Helvetica,sans-Serif" font-size="11.00" fill="#000000">Generated by SchemaSpy</text>
<!-- _KeywordToVideo -->
<g id="node1" class="node">
<title>_KeywordToVideo</title>
<g id="a_node1"><a xlink:href="../../tables/_KeywordToVideo.html" xlink:title="_KeywordToVideo" target="_top">
<polygon fill="#ffffff" stroke="transparent" points="212,-84.2 212,-170.2 356,-170.2 356,-84.2 212,-84.2"/>
<polygon fill="#f5f5f5" stroke="transparent" points="212,-147.2 212,-170.2 356,-170.2 356,-147.2 212,-147.2"/>
<polygon fill="none" stroke="#000000" points="212,-147.2 212,-170.2 356,-170.2 356,-147.2 212,-147.2"/>
<text text-anchor="start" x="217" y="-155.8" font-family="Helvetica,sans-Serif" font-weight="bold" font-size="11.00" fill="#000000">_KeywordToVideo</text>
<text text-anchor="start" x="321.5219" y="-155.3" font-family="Helvetica,sans-Serif" font-size="11.00" fill="#000000">[table]</text>
<polygon fill="#ffffff" stroke="transparent" points="212,-125.2 212,-147.2 356,-147.2 356,-125.2 212,-125.2"/>
<polygon fill="none" stroke="#000000" points="212,-125.2 212,-147.2 356,-147.2 356,-125.2 212,-125.2"/>
<image xlink:href="../../images/foreignKeys.png" width="11px" height="12px" preserveAspectRatio="xMinYMin meet" x="217" y="-142.2"/>
<text text-anchor="start" x="241" y="-132.3" font-family="Helvetica,sans-Serif" font-size="11.00" fill="#000000">A</text>
<polygon fill="#ffffff" stroke="transparent" points="212,-103.2 212,-125.2 356,-125.2 356,-103.2 212,-103.2"/>
<polygon fill="none" stroke="#000000" points="212,-103.2 212,-125.2 356,-125.2 356,-103.2 212,-103.2"/>
<image xlink:href="../../images/foreignKeys.png" width="11px" height="12px" preserveAspectRatio="xMinYMin meet" x="217" y="-120.2"/>
<text text-anchor="start" x="241" y="-110.3" font-family="Helvetica,sans-Serif" font-size="11.00" fill="#000000">B</text>
<polygon fill="#ffffff" stroke="transparent" points="212,-84.2 212,-103.2 269,-103.2 269,-84.2 212,-84.2"/>
<polygon fill="none" stroke="#000000" points="212,-84.2 212,-103.2 269,-103.2 269,-84.2 212,-84.2"/>
<text text-anchor="start" x="215" y="-90.3" font-family="Helvetica,sans-Serif" font-size="11.00" fill="#000000">&lt; 2</text>
<polygon fill="#ffffff" stroke="transparent" points="269,-84.2 269,-103.2 325,-103.2 325,-84.2 269,-84.2"/>
<polygon fill="none" stroke="#000000" points="269,-84.2 269,-103.2 325,-103.2 325,-84.2 269,-84.2"/>
<text text-anchor="start" x="289.6105" y="-90.3" font-family="Helvetica,sans-Serif" font-size="11.00" fill="#000000">0 rows</text>
<polygon fill="#ffffff" stroke="transparent" points="325,-84.2 325,-103.2 356,-103.2 356,-84.2 325,-84.2"/>
<polygon fill="none" stroke="#000000" points="325,-84.2 325,-103.2 356,-103.2 356,-84.2 325,-84.2"/>
<text text-anchor="start" x="346.8862" y="-90.3" font-family="Helvetica,sans-Serif" font-size="11.00" fill="#000000"> &#160;</text>
</a>
</g>
</g>
<!-- Keyword -->
<g id="node2" class="node">
<title>Keyword</title>
<g id="a_node2"><a xlink:href="../../tables/Keyword.html" xlink:title="Keyword" target="_top">
<polygon fill="#ffffff" stroke="transparent" points="8,-38.2 8,-172.2 163,-172.2 163,-38.2 8,-38.2"/>
<polygon fill="#f5f5f5" stroke="transparent" points="10.5,-147.2 10.5,-170.2 161.5,-170.2 161.5,-147.2 10.5,-147.2"/>
<polygon fill="none" stroke="#000000" points="10.5,-147.2 10.5,-170.2 161.5,-170.2 161.5,-147.2 10.5,-147.2"/>
<text text-anchor="start" x="15.5" y="-155.8" font-family="Helvetica,sans-Serif" font-weight="bold" font-size="11.00" fill="#000000">Keyword</text>
<text text-anchor="start" x="126.5437" y="-155.3" font-family="Helvetica,sans-Serif" font-size="11.00" fill="#000000">[table]</text>
<polygon fill="none" stroke="#000000" points="10.5,-125.2 10.5,-147.2 94.5,-147.2 94.5,-125.2 10.5,-125.2"/>
<image xlink:href="../../images/primaryKeys.png" width="11px" height="12px" preserveAspectRatio="xMinYMin meet" x="15.5" y="-142.2"/>
<text text-anchor="start" x="30.5" y="-132.3" font-family="Helvetica,sans-Serif" font-size="11.00" fill="#000000">id</text>
<polygon fill="none" stroke="#000000" points="94.5,-125.2 94.5,-147.2 161.5,-147.2 161.5,-125.2 94.5,-125.2"/>
<text text-anchor="start" x="97.5" y="-132.9" font-family="Helvetica,sans-Serif" font-size="11.00" fill="#000000">int[10]</text>
<polygon fill="none" stroke="#000000" points="10.5,-103.2 10.5,-125.2 94.5,-125.2 94.5,-103.2 10.5,-103.2"/>
<text text-anchor="start" x="30.5" y="-110.3" font-family="Helvetica,sans-Serif" font-size="11.00" fill="#000000">keyword</text>
<polygon fill="none" stroke="#000000" points="94.5,-103.2 94.5,-125.2 161.5,-125.2 161.5,-103.2 94.5,-103.2"/>
<text text-anchor="start" x="97.4365" y="-110.9" font-family="Helvetica,sans-Serif" font-size="11.00" fill="#000000">varchar[191]</text>
<polygon fill="none" stroke="#000000" points="10.5,-81.2 10.5,-103.2 94.5,-103.2 94.5,-81.2 10.5,-81.2"/>
<text text-anchor="start" x="30.5" y="-88.3" font-family="Helvetica,sans-Serif" font-size="11.00" fill="#000000">createdAt</text>
<polygon fill="none" stroke="#000000" points="94.5,-81.2 94.5,-103.2 161.5,-103.2 161.5,-81.2 94.5,-81.2"/>
<text text-anchor="start" x="97.5" y="-88.9" font-family="Helvetica,sans-Serif" font-size="11.00" fill="#000000">datetime[23]</text>
<polygon fill="none" stroke="#000000" points="10.5,-59.2 10.5,-81.2 94.5,-81.2 94.5,-59.2 10.5,-59.2"/>
<text text-anchor="start" x="30.5" y="-66.3" font-family="Helvetica,sans-Serif" font-size="11.00" fill="#000000">updatedAt</text>
<polygon fill="none" stroke="#000000" points="94.5,-59.2 94.5,-81.2 161.5,-81.2 161.5,-59.2 94.5,-59.2"/>
<text text-anchor="start" x="97.5" y="-66.9" font-family="Helvetica,sans-Serif" font-size="11.00" fill="#000000">datetime[23]</text>
<polygon fill="#ffffff" stroke="transparent" points="10.5,-40.2 10.5,-59.2 43.5,-59.2 43.5,-40.2 10.5,-40.2"/>
<polygon fill="none" stroke="#000000" points="10.5,-40.2 10.5,-59.2 43.5,-59.2 43.5,-40.2 10.5,-40.2"/>
<text text-anchor="start" x="13.5" y="-46.3" font-family="Helvetica,sans-Serif" font-size="11.00" fill="#000000">&lt; 0</text>
<polygon fill="#ffffff" stroke="transparent" points="43.5,-40.2 43.5,-59.2 94.5,-59.2 94.5,-40.2 43.5,-40.2"/>
<polygon fill="none" stroke="#000000" points="43.5,-40.2 43.5,-59.2 94.5,-59.2 94.5,-40.2 43.5,-40.2"/>
<text text-anchor="start" x="59.1105" y="-46.3" font-family="Helvetica,sans-Serif" font-size="11.00" fill="#000000">0 rows</text>
<polygon fill="#ffffff" stroke="transparent" points="94.5,-40.2 94.5,-59.2 161.5,-59.2 161.5,-40.2 94.5,-40.2"/>
<polygon fill="none" stroke="#000000" points="94.5,-40.2 94.5,-59.2 161.5,-59.2 161.5,-40.2 94.5,-40.2"/>
<text text-anchor="start" x="142.9053" y="-46.3" font-family="Helvetica,sans-Serif" font-size="11.00" fill="#000000">1 &gt;</text>
<polygon fill="none" stroke="#000000" stroke-width="2" points="9,-39.2 9,-171.2 162,-171.2 162,-39.2 9,-39.2"/>
</a>
</g>
</g>
<!-- _KeywordToVideo&#45;&gt;Keyword -->
<g id="edge1" class="edge">
<title>_KeywordToVideo:w&#45;&gt;Keyword:e</title>
<path fill="none" stroke="#000000" d="M197.4203,-136.2C185.5435,-136.2 178.158,-136.2 161.5,-136.2"/>
<polygon fill="#000000" stroke="#000000" points="204,-136.2001 212,-139.8 208,-136.2 212,-136.2 212,-136.2 212,-136.2 208,-136.2 212,-132.6 204,-136.2001 204,-136.2001"/>
<ellipse fill="none" stroke="#000000" cx="200.8" cy="-136.2001" rx="3.2" ry="3.2"/>
</g>
</g>
</svg>
