<?xml version="1.0" encoding="UTF-8" standalone="no"?>
<!DOCTYPE svg PUBLIC "-//W3C//DTD SVG 1.1//EN"
 "http://www.w3.org/Graphics/SVG/1.1/DTD/svg11.dtd">
<!-- Generated by graphviz version 2.40.1 (20161225.0304)
 -->
<!-- Title: twoDegreesRelationshipsDiagram Pages: 1 -->
<svg width="346pt" height="267pt"
 viewBox="0.00 0.00 346.00 266.70" xmlns="http://www.w3.org/2000/svg" xmlns:xlink="http://www.w3.org/1999/xlink">
<g id="graph0" class="graph" transform="scale(1 1) rotate(0) translate(4 262.7)">
<title>twoDegreesRelationshipsDiagram</title>
<polygon fill="#ffffff" stroke="transparent" points="-4,4 -4,-262.7 342,-262.7 342,4 -4,4"/>
<text text-anchor="middle" x="72.4936" y="-7.3" font-family="Helvetica,sans-Serif" font-size="11.00" fill="#000000">Generated by SchemaSpy</text>
<!-- Account -->
<g id="node1" class="node">
<title>Account</title>
<g id="a_node1"><a xlink:href="../../tables/Account.html" xlink:title="Account" target="_top">
<polygon fill="#ffffff" stroke="transparent" points="200,-193.7 200,-254.7 288,-254.7 288,-193.7 200,-193.7"/>
<polygon fill="#f5f5f5" stroke="transparent" points="200,-231.2 200,-254.2 288,-254.2 288,-231.2 200,-231.2"/>
<polygon fill="none" stroke="#000000" points="200,-231.2 200,-254.2 288,-254.2 288,-231.2 200,-231.2"/>
<text text-anchor="start" x="205" y="-239.8" font-family="Helvetica,sans-Serif" font-weight="bold" font-size="11.00" fill="#000000">Account</text>
<text text-anchor="start" x="253.5219" y="-239.3" font-family="Helvetica,sans-Serif" font-size="11.00" fill="#000000">[table]</text>
<polygon fill="none" stroke="#000000" points="200,-212.2 200,-231.2 288,-231.2 288,-212.2 200,-212.2"/>
<text text-anchor="start" x="203" y="-218.3" font-family="Helvetica,sans-Serif" font-size="11.00" fill="#000000">...</text>
<polygon fill="#ffffff" stroke="transparent" points="200,-193.2 200,-212.2 229,-212.2 229,-193.2 200,-193.2"/>
<polygon fill="none" stroke="#000000" points="200,-193.2 200,-212.2 229,-212.2 229,-193.2 200,-193.2"/>
<text text-anchor="start" x="203" y="-199.3" font-family="Helvetica,sans-Serif" font-size="11.00" fill="#000000">&lt; 1</text>
<polygon fill="#ffffff" stroke="transparent" points="229,-193.2 229,-212.2 271,-212.2 271,-193.2 229,-193.2"/>
<polygon fill="none" stroke="#000000" points="229,-193.2 229,-212.2 271,-212.2 271,-193.2 229,-193.2"/>
<text text-anchor="start" x="235.6105" y="-199.3" font-family="Helvetica,sans-Serif" font-size="11.00" fill="#000000">0 rows</text>
<polygon fill="#ffffff" stroke="transparent" points="271,-193.2 271,-212.2 288,-212.2 288,-193.2 271,-193.2"/>
<polygon fill="none" stroke="#000000" points="271,-193.2 271,-212.2 288,-212.2 288,-193.2 271,-193.2"/>
<text text-anchor="start" x="278.8862" y="-199.3" font-family="Helvetica,sans-Serif" font-size="11.00" fill="#000000"> &#160;</text>
</a>
</g>
</g>
<!-- User -->
<g id="node2" class="node">
<title>User</title>
<g id="a_node2"><a xlink:href="../../tables/User.html" xlink:title="User" target="_top">
<polygon fill="#ffffff" stroke="transparent" points="8,-85.7 8,-190.7 109,-190.7 109,-85.7 8,-85.7"/>
<polygon fill="#f5f5f5" stroke="transparent" points="8.5,-167.2 8.5,-190.2 109.5,-190.2 109.5,-167.2 8.5,-167.2"/>
<polygon fill="none" stroke="#000000" points="8.5,-167.2 8.5,-190.2 109.5,-190.2 109.5,-167.2 8.5,-167.2"/>
<text text-anchor="start" x="13.3912" y="-175.8" font-family="Helvetica,sans-Serif" font-weight="bold" font-size="11.00" fill="#000000">User</text>
<text text-anchor="start" x="74.5437" y="-175.3" font-family="Helvetica,sans-Serif" font-size="11.00" fill="#000000">[table]</text>
<polygon fill="none" stroke="#000000" points="8.5,-145.2 8.5,-167.2 109.5,-167.2 109.5,-145.2 8.5,-145.2"/>
<image xlink:href="../../images/primaryKeys.png" width="11px" height="12px" preserveAspectRatio="xMinYMin meet" x="13.5" y="-162.2"/>
<text text-anchor="start" x="28.5" y="-152.3" font-family="Helvetica,sans-Serif" font-size="11.00" fill="#000000">id</text>
<polygon fill="#ffffff" stroke="transparent" points="8.5,-123.2 8.5,-145.2 109.5,-145.2 109.5,-123.2 8.5,-123.2"/>
<polygon fill="none" stroke="#000000" points="8.5,-123.2 8.5,-145.2 109.5,-145.2 109.5,-123.2 8.5,-123.2"/>
<text text-anchor="start" x="28.5" y="-130.3" font-family="Helvetica,sans-Serif" font-size="11.00" fill="#000000">email</text>
<polygon fill="none" stroke="#000000" points="8.5,-104.2 8.5,-123.2 109.5,-123.2 109.5,-104.2 8.5,-104.2"/>
<text text-anchor="start" x="11.5" y="-110.3" font-family="Helvetica,sans-Serif" font-size="11.00" fill="#000000">...</text>
<polygon fill="#ffffff" stroke="transparent" points="8.5,-85.2 8.5,-104.2 35.5,-104.2 35.5,-85.2 8.5,-85.2"/>
<polygon fill="none" stroke="#000000" points="8.5,-85.2 8.5,-104.2 35.5,-104.2 35.5,-85.2 8.5,-85.2"/>
<text text-anchor="start" x="11.5" y="-91.3" font-family="Helvetica,sans-Serif" font-size="11.00" fill="#000000"> &#160;</text>
<polygon fill="#ffffff" stroke="transparent" points="35.5,-85.2 35.5,-104.2 80.5,-104.2 80.5,-85.2 35.5,-85.2"/>
<polygon fill="none" stroke="#000000" points="35.5,-85.2 35.5,-104.2 80.5,-104.2 80.5,-85.2 35.5,-85.2"/>
<text text-anchor="start" x="45.1105" y="-91.3" font-family="Helvetica,sans-Serif" font-size="11.00" fill="#000000">0 rows</text>
<polygon fill="#ffffff" stroke="transparent" points="80.5,-85.2 80.5,-104.2 109.5,-104.2 109.5,-85.2 80.5,-85.2"/>
<polygon fill="none" stroke="#000000" points="80.5,-85.2 80.5,-104.2 109.5,-104.2 109.5,-85.2 80.5,-85.2"/>
<text text-anchor="start" x="90.9053" y="-91.3" font-family="Helvetica,sans-Serif" font-size="11.00" fill="#000000">2 &gt;</text>
</a>
</g>
</g>
<!-- Account&#45;&gt;User -->
<g id="edge1" class="edge">
<title>Account:w&#45;&gt;User:e</title>
<path fill="none" stroke="#000000" d="M186.3039,-216.3144C161.9306,-201.1979 130.1018,-156.2 109.5,-156.2"/>
<polygon fill="#000000" stroke="#000000" points="192.465,-218.5121 198.7905,-224.5907 196.2325,-219.8561 200,-221.2 200,-221.2 200,-221.2 196.2325,-219.8561 201.2095,-217.8093 192.465,-218.5121 192.465,-218.5121"/>
<ellipse fill="none" stroke="#000000" cx="189.451" cy="-217.437" rx="3.2" ry="3.2"/>
</g>
<!-- Session -->
<g id="node3" class="node">
<title>Session</title>
<g id="a_node3"><a xlink:href="../../tables/Session.html" xlink:title="Session" target="_top">
<polygon fill="#ffffff" stroke="transparent" points="158,-38.2 158,-172.2 330,-172.2 330,-38.2 158,-38.2"/>
<polygon fill="#f5f5f5" stroke="transparent" points="160,-147.2 160,-170.2 328,-170.2 328,-147.2 160,-147.2"/>
<polygon fill="none" stroke="#000000" points="160,-147.2 160,-170.2 328,-170.2 328,-147.2 160,-147.2"/>
<text text-anchor="start" x="165" y="-155.8" font-family="Helvetica,sans-Serif" font-weight="bold" font-size="11.00" fill="#000000">Session</text>
<text text-anchor="start" x="293.0437" y="-155.3" font-family="Helvetica,sans-Serif" font-size="11.00" fill="#000000">[table]</text>
<polygon fill="none" stroke="#000000" points="160,-125.2 160,-147.2 261,-147.2 261,-125.2 160,-125.2"/>
<image xlink:href="../../images/primaryKeys.png" width="11px" height="12px" preserveAspectRatio="xMinYMin meet" x="165" y="-142.2"/>
<text text-anchor="start" x="180" y="-132.3" font-family="Helvetica,sans-Serif" font-size="11.00" fill="#000000">id</text>
<polygon fill="none" stroke="#000000" points="261,-125.2 261,-147.2 328,-147.2 328,-125.2 261,-125.2"/>
<text text-anchor="start" x="263.9365" y="-132.9" font-family="Helvetica,sans-Serif" font-size="11.00" fill="#000000">varchar[191]</text>
<polygon fill="#ffffff" stroke="transparent" points="160,-103.2 160,-125.2 261,-125.2 261,-103.2 160,-103.2"/>
<polygon fill="none" stroke="#000000" points="160,-103.2 160,-125.2 261,-125.2 261,-103.2 160,-103.2"/>
<text text-anchor="start" x="180" y="-110.3" font-family="Helvetica,sans-Serif" font-size="11.00" fill="#000000">sessionToken</text>
<polygon fill="none" stroke="#000000" points="261,-103.2 261,-125.2 328,-125.2 328,-103.2 261,-103.2"/>
<text text-anchor="start" x="263.9365" y="-110.9" font-family="Helvetica,sans-Serif" font-size="11.00" fill="#000000">varchar[191]</text>
<polygon fill="#ffffff" stroke="transparent" points="160,-81.2 160,-103.2 261,-103.2 261,-81.2 160,-81.2"/>
<polygon fill="none" stroke="#000000" points="160,-81.2 160,-103.2 261,-103.2 261,-81.2 160,-81.2"/>
<image xlink:href="../../images/foreignKeys.png" width="11px" height="12px" preserveAspectRatio="xMinYMin meet" x="165" y="-98.2"/>
<text text-anchor="start" x="180" y="-88.3" font-family="Helvetica,sans-Serif" font-size="11.00" fill="#000000">userId</text>
<polygon fill="none" stroke="#000000" points="261,-81.2 261,-103.2 328,-103.2 328,-81.2 261,-81.2"/>
<text text-anchor="start" x="263.9365" y="-88.9" font-family="Helvetica,sans-Serif" font-size="11.00" fill="#000000">varchar[191]</text>
<polygon fill="none" stroke="#000000" points="160,-59.2 160,-81.2 261,-81.2 261,-59.2 160,-59.2"/>
<text text-anchor="start" x="180" y="-66.3" font-family="Helvetica,sans-Serif" font-size="11.00" fill="#000000">expires</text>
<polygon fill="none" stroke="#000000" points="261,-59.2 261,-81.2 328,-81.2 328,-59.2 261,-59.2"/>
<text text-anchor="start" x="264" y="-66.9" font-family="Helvetica,sans-Serif" font-size="11.00" fill="#000000">datetime[23]</text>
<polygon fill="#ffffff" stroke="transparent" points="160,-40.2 160,-59.2 202,-59.2 202,-40.2 160,-40.2"/>
<polygon fill="none" stroke="#000000" points="160,-40.2 160,-59.2 202,-59.2 202,-40.2 160,-40.2"/>
<text text-anchor="start" x="163" y="-46.3" font-family="Helvetica,sans-Serif" font-size="11.00" fill="#000000">&lt; 1</text>
<polygon fill="#ffffff" stroke="transparent" points="202,-40.2 202,-59.2 261,-59.2 261,-40.2 202,-40.2"/>
<polygon fill="none" stroke="#000000" points="202,-40.2 202,-59.2 261,-59.2 261,-40.2 202,-40.2"/>
<text text-anchor="start" x="225.6105" y="-46.3" font-family="Helvetica,sans-Serif" font-size="11.00" fill="#000000">0 rows</text>
<polygon fill="#ffffff" stroke="transparent" points="261,-40.2 261,-59.2 328,-59.2 328,-40.2 261,-40.2"/>
<polygon fill="none" stroke="#000000" points="261,-40.2 261,-59.2 328,-59.2 328,-40.2 261,-40.2"/>
<text text-anchor="start" x="309.4053" y="-46.3" font-family="Helvetica,sans-Serif" font-size="11.00" fill="#000000">0 &gt;</text>
<polygon fill="none" stroke="#000000" stroke-width="2" points="159,-39.2 159,-171.2 329,-171.2 329,-39.2 159,-39.2"/>
</a>
</g>
</g>
<!-- Session&#45;&gt;User -->
<g id="edge2" class="edge">
<title>Session:w&#45;&gt;User:e</title>
<path fill="none" stroke="#000000" d="M146.3521,-96.8027C129.408,-111.4773 139.7886,-156.2 109.5,-156.2"/>
<polygon fill="#000000" stroke="#000000" points="152.4195,-94.7565 161.1504,-95.6112 156.2097,-93.4783 160,-92.2 160,-92.2 160,-92.2 156.2097,-93.4783 158.8496,-88.7888 152.4195,-94.7565 152.4195,-94.7565"/>
<ellipse fill="none" stroke="#000000" cx="149.3873" cy="-95.7792" rx="3.2" ry="3.2"/>
</g>
</g>
</svg>
