<?xml version="1.0" encoding="UTF-8" standalone="no"?>
<!DOCTYPE svg PUBLIC "-//W3C//DTD SVG 1.1//EN"
 "http://www.w3.org/Graphics/SVG/1.1/DTD/svg11.dtd">
<!-- Generated by graphviz version 2.40.1 (20161225.0304)
 -->
<!-- Title: oneDegreeRelationshipsDiagram Pages: 1 -->
<svg width="346pt" height="201pt"
 viewBox="0.00 0.00 346.00 200.70" xmlns="http://www.w3.org/2000/svg" xmlns:xlink="http://www.w3.org/1999/xlink">
<g id="graph0" class="graph" transform="scale(1 1) rotate(0) translate(4 196.7)">
<title>oneDegreeRelationshipsDiagram</title>
<polygon fill="#ffffff" stroke="transparent" points="-4,4 -4,-196.7 342,-196.7 342,4 -4,4"/>
<text text-anchor="middle" x="72.4936" y="-7.3" font-family="Helvetica,sans-Serif" font-size="11.00" fill="#000000">Generated by SchemaSpy</text>
<!-- Session -->
<g id="node1" class="node">
<title>Session</title>
<g id="a_node1"><a xlink:href="../../tables/Session.html" xlink:title="Session" target="_top">
<polygon fill="#ffffff" stroke="transparent" points="158,-54.7 158,-188.7 330,-188.7 330,-54.7 158,-54.7"/>
<polygon fill="#f5f5f5" stroke="transparent" points="160,-163.7 160,-186.7 328,-186.7 328,-163.7 160,-163.7"/>
<polygon fill="none" stroke="#000000" points="160,-163.7 160,-186.7 328,-186.7 328,-163.7 160,-163.7"/>
<text text-anchor="start" x="165" y="-172.3" font-family="Helvetica,sans-Serif" font-weight="bold" font-size="11.00" fill="#000000">Session</text>
<text text-anchor="start" x="293.0437" y="-171.8" font-family="Helvetica,sans-Serif" font-size="11.00" fill="#000000">[table]</text>
<polygon fill="none" stroke="#000000" points="160,-141.7 160,-163.7 261,-163.7 261,-141.7 160,-141.7"/>
<image xlink:href="../../images/primaryKeys.png" width="11px" height="12px" preserveAspectRatio="xMinYMin meet" x="165" y="-158.7"/>
<text text-anchor="start" x="180" y="-148.8" font-family="Helvetica,sans-Serif" font-size="11.00" fill="#000000">id</text>
<polygon fill="none" stroke="#000000" points="261,-141.7 261,-163.7 328,-163.7 328,-141.7 261,-141.7"/>
<text text-anchor="start" x="263.9365" y="-149.4" font-family="Helvetica,sans-Serif" font-size="11.00" fill="#000000">varchar[191]</text>
<polygon fill="#ffffff" stroke="transparent" points="160,-119.7 160,-141.7 261,-141.7 261,-119.7 160,-119.7"/>
<polygon fill="none" stroke="#000000" points="160,-119.7 160,-141.7 261,-141.7 261,-119.7 160,-119.7"/>
<text text-anchor="start" x="180" y="-126.8" font-family="Helvetica,sans-Serif" font-size="11.00" fill="#000000">sessionToken</text>
<polygon fill="none" stroke="#000000" points="261,-119.7 261,-141.7 328,-141.7 328,-119.7 261,-119.7"/>
<text text-anchor="start" x="263.9365" y="-127.4" font-family="Helvetica,sans-Serif" font-size="11.00" fill="#000000">varchar[191]</text>
<polygon fill="#ffffff" stroke="transparent" points="160,-97.7 160,-119.7 261,-119.7 261,-97.7 160,-97.7"/>
<polygon fill="none" stroke="#000000" points="160,-97.7 160,-119.7 261,-119.7 261,-97.7 160,-97.7"/>
<image xlink:href="../../images/foreignKeys.png" width="11px" height="12px" preserveAspectRatio="xMinYMin meet" x="165" y="-114.7"/>
<text text-anchor="start" x="180" y="-104.8" font-family="Helvetica,sans-Serif" font-size="11.00" fill="#000000">userId</text>
<polygon fill="none" stroke="#000000" points="261,-97.7 261,-119.7 328,-119.7 328,-97.7 261,-97.7"/>
<text text-anchor="start" x="263.9365" y="-105.4" font-family="Helvetica,sans-Serif" font-size="11.00" fill="#000000">varchar[191]</text>
<polygon fill="none" stroke="#000000" points="160,-75.7 160,-97.7 261,-97.7 261,-75.7 160,-75.7"/>
<text text-anchor="start" x="180" y="-82.8" font-family="Helvetica,sans-Serif" font-size="11.00" fill="#000000">expires</text>
<polygon fill="none" stroke="#000000" points="261,-75.7 261,-97.7 328,-97.7 328,-75.7 261,-75.7"/>
<text text-anchor="start" x="264" y="-83.4" font-family="Helvetica,sans-Serif" font-size="11.00" fill="#000000">datetime[23]</text>
<polygon fill="#ffffff" stroke="transparent" points="160,-56.7 160,-75.7 202,-75.7 202,-56.7 160,-56.7"/>
<polygon fill="none" stroke="#000000" points="160,-56.7 160,-75.7 202,-75.7 202,-56.7 160,-56.7"/>
<text text-anchor="start" x="163" y="-62.8" font-family="Helvetica,sans-Serif" font-size="11.00" fill="#000000">&lt; 1</text>
<polygon fill="#ffffff" stroke="transparent" points="202,-56.7 202,-75.7 261,-75.7 261,-56.7 202,-56.7"/>
<polygon fill="none" stroke="#000000" points="202,-56.7 202,-75.7 261,-75.7 261,-56.7 202,-56.7"/>
<text text-anchor="start" x="225.6105" y="-62.8" font-family="Helvetica,sans-Serif" font-size="11.00" fill="#000000">0 rows</text>
<polygon fill="#ffffff" stroke="transparent" points="261,-56.7 261,-75.7 328,-75.7 328,-56.7 261,-56.7"/>
<polygon fill="none" stroke="#000000" points="261,-56.7 261,-75.7 328,-75.7 328,-56.7 261,-56.7"/>
<text text-anchor="start" x="309.4053" y="-62.8" font-family="Helvetica,sans-Serif" font-size="11.00" fill="#000000">0 &gt;</text>
<polygon fill="none" stroke="#000000" stroke-width="2" points="159,-55.7 159,-187.7 329,-187.7 329,-55.7 159,-55.7"/>
</a>
</g>
</g>
<!-- User -->
<g id="node2" class="node">
<title>User</title>
<g id="a_node2"><a xlink:href="../../tables/User.html" xlink:title="User" target="_top">
<polygon fill="#ffffff" stroke="transparent" points="8,-38.2 8,-143.2 109,-143.2 109,-38.2 8,-38.2"/>
<polygon fill="#f5f5f5" stroke="transparent" points="8.5,-119.7 8.5,-142.7 109.5,-142.7 109.5,-119.7 8.5,-119.7"/>
<polygon fill="none" stroke="#000000" points="8.5,-119.7 8.5,-142.7 109.5,-142.7 109.5,-119.7 8.5,-119.7"/>
<text text-anchor="start" x="13.3912" y="-128.3" font-family="Helvetica,sans-Serif" font-weight="bold" font-size="11.00" fill="#000000">User</text>
<text text-anchor="start" x="74.5437" y="-127.8" font-family="Helvetica,sans-Serif" font-size="11.00" fill="#000000">[table]</text>
<polygon fill="none" stroke="#000000" points="8.5,-97.7 8.5,-119.7 109.5,-119.7 109.5,-97.7 8.5,-97.7"/>
<image xlink:href="../../images/primaryKeys.png" width="11px" height="12px" preserveAspectRatio="xMinYMin meet" x="13.5" y="-114.7"/>
<text text-anchor="start" x="28.5" y="-104.8" font-family="Helvetica,sans-Serif" font-size="11.00" fill="#000000">id</text>
<polygon fill="#ffffff" stroke="transparent" points="8.5,-75.7 8.5,-97.7 109.5,-97.7 109.5,-75.7 8.5,-75.7"/>
<polygon fill="none" stroke="#000000" points="8.5,-75.7 8.5,-97.7 109.5,-97.7 109.5,-75.7 8.5,-75.7"/>
<text text-anchor="start" x="28.5" y="-82.8" font-family="Helvetica,sans-Serif" font-size="11.00" fill="#000000">email</text>
<polygon fill="none" stroke="#000000" points="8.5,-56.7 8.5,-75.7 109.5,-75.7 109.5,-56.7 8.5,-56.7"/>
<text text-anchor="start" x="11.5" y="-62.8" font-family="Helvetica,sans-Serif" font-size="11.00" fill="#000000">...</text>
<polygon fill="#ffffff" stroke="transparent" points="8.5,-37.7 8.5,-56.7 35.5,-56.7 35.5,-37.7 8.5,-37.7"/>
<polygon fill="none" stroke="#000000" points="8.5,-37.7 8.5,-56.7 35.5,-56.7 35.5,-37.7 8.5,-37.7"/>
<text text-anchor="start" x="11.5" y="-43.8" font-family="Helvetica,sans-Serif" font-size="11.00" fill="#000000"> &#160;</text>
<polygon fill="#ffffff" stroke="transparent" points="35.5,-37.7 35.5,-56.7 80.5,-56.7 80.5,-37.7 35.5,-37.7"/>
<polygon fill="none" stroke="#000000" points="35.5,-37.7 35.5,-56.7 80.5,-56.7 80.5,-37.7 35.5,-37.7"/>
<text text-anchor="start" x="45.1105" y="-43.8" font-family="Helvetica,sans-Serif" font-size="11.00" fill="#000000">0 rows</text>
<polygon fill="#ffffff" stroke="transparent" points="80.5,-37.7 80.5,-56.7 109.5,-56.7 109.5,-37.7 80.5,-37.7"/>
<polygon fill="none" stroke="#000000" points="80.5,-37.7 80.5,-56.7 109.5,-56.7 109.5,-37.7 80.5,-37.7"/>
<text text-anchor="start" x="90.9053" y="-43.8" font-family="Helvetica,sans-Serif" font-size="11.00" fill="#000000">2 &gt;</text>
</a>
</g>
</g>
<!-- Session&#45;&gt;User -->
<g id="edge1" class="edge">
<title>Session:w&#45;&gt;User:e</title>
<path fill="none" stroke="#000000" d="M145.4203,-108.7C133.5435,-108.7 126.158,-108.7 109.5,-108.7"/>
<polygon fill="#000000" stroke="#000000" points="152,-108.7001 160,-112.3 156,-108.7 160,-108.7 160,-108.7 160,-108.7 156,-108.7 160,-105.1 152,-108.7001 152,-108.7001"/>
<ellipse fill="none" stroke="#000000" cx="148.8" cy="-108.7001" rx="3.2" ry="3.2"/>
</g>
</g>
</svg>
