<?xml version="1.0" encoding="UTF-8" standalone="no"?>
<!DOCTYPE svg PUBLIC "-//W3C//DTD SVG 1.1//EN"
 "http://www.w3.org/Graphics/SVG/1.1/DTD/svg11.dtd">
<!-- Generated by graphviz version 2.40.1 (20161225.0304)
 -->
<!-- Title: oneDegreeRelationshipsDiagram Pages: 1 -->
<svg width="377pt" height="347pt"
 viewBox="0.00 0.00 377.00 347.20" xmlns="http://www.w3.org/2000/svg" xmlns:xlink="http://www.w3.org/1999/xlink">
<g id="graph0" class="graph" transform="scale(1 1) rotate(0) translate(4 343.2)">
<title>oneDegreeRelationshipsDiagram</title>
<polygon fill="#ffffff" stroke="transparent" points="-4,4 -4,-343.2 373,-343.2 373,4 -4,4"/>
<text text-anchor="middle" x="72.4936" y="-7.3" font-family="Helvetica,sans-Serif" font-size="11.00" fill="#000000">Generated by SchemaSpy</text>
<!-- Account -->
<g id="node1" class="node">
<title>Account</title>
<g id="a_node1"><a xlink:href="../../tables/Account.html" xlink:title="Account" target="_top">
<polygon fill="#ffffff" stroke="transparent" points="229,-186.2 229,-335.2 361,-335.2 361,-186.2 229,-186.2"/>
<polygon fill="#f5f5f5" stroke="transparent" points="229,-311.7 229,-334.7 361,-334.7 361,-311.7 229,-311.7"/>
<polygon fill="none" stroke="#000000" points="229,-311.7 229,-334.7 361,-334.7 361,-311.7 229,-311.7"/>
<text text-anchor="start" x="234" y="-320.3" font-family="Helvetica,sans-Serif" font-weight="bold" font-size="11.00" fill="#000000">Account</text>
<text text-anchor="start" x="326.0437" y="-319.8" font-family="Helvetica,sans-Serif" font-size="11.00" fill="#000000">[table]</text>
<polygon fill="none" stroke="#000000" points="229,-289.7 229,-311.7 361,-311.7 361,-289.7 229,-289.7"/>
<image xlink:href="../../images/primaryKeys.png" width="11px" height="12px" preserveAspectRatio="xMinYMin meet" x="234" y="-306.7"/>
<text text-anchor="start" x="249" y="-296.8" font-family="Helvetica,sans-Serif" font-size="11.00" fill="#000000">id</text>
<polygon fill="#ffffff" stroke="transparent" points="229,-267.7 229,-289.7 361,-289.7 361,-267.7 229,-267.7"/>
<polygon fill="none" stroke="#000000" points="229,-267.7 229,-289.7 361,-289.7 361,-267.7 229,-267.7"/>
<image xlink:href="../../images/foreignKeys.png" width="11px" height="12px" preserveAspectRatio="xMinYMin meet" x="234" y="-284.7"/>
<text text-anchor="start" x="249" y="-274.8" font-family="Helvetica,sans-Serif" font-size="11.00" fill="#000000">userId</text>
<polygon fill="#ffffff" stroke="transparent" points="229,-245.7 229,-267.7 361,-267.7 361,-245.7 229,-245.7"/>
<polygon fill="none" stroke="#000000" points="229,-245.7 229,-267.7 361,-267.7 361,-245.7 229,-245.7"/>
<text text-anchor="start" x="249" y="-252.8" font-family="Helvetica,sans-Serif" font-size="11.00" fill="#000000">provider</text>
<polygon fill="#ffffff" stroke="transparent" points="229,-223.7 229,-245.7 361,-245.7 361,-223.7 229,-223.7"/>
<polygon fill="none" stroke="#000000" points="229,-223.7 229,-245.7 361,-245.7 361,-223.7 229,-223.7"/>
<text text-anchor="start" x="249" y="-230.8" font-family="Helvetica,sans-Serif" font-size="11.00" fill="#000000">providerAccountId</text>
<polygon fill="none" stroke="#000000" points="229,-204.7 229,-223.7 361,-223.7 361,-204.7 229,-204.7"/>
<text text-anchor="start" x="232" y="-210.8" font-family="Helvetica,sans-Serif" font-size="11.00" fill="#000000">...</text>
<polygon fill="#ffffff" stroke="transparent" points="229,-185.7 229,-204.7 280,-204.7 280,-185.7 229,-185.7"/>
<polygon fill="none" stroke="#000000" points="229,-185.7 229,-204.7 280,-204.7 280,-185.7 229,-185.7"/>
<text text-anchor="start" x="232" y="-191.8" font-family="Helvetica,sans-Serif" font-size="11.00" fill="#000000">&lt; 1</text>
<polygon fill="#ffffff" stroke="transparent" points="280,-185.7 280,-204.7 333,-204.7 333,-185.7 280,-185.7"/>
<polygon fill="none" stroke="#000000" points="280,-185.7 280,-204.7 333,-204.7 333,-185.7 280,-185.7"/>
<text text-anchor="start" x="297.6105" y="-191.8" font-family="Helvetica,sans-Serif" font-size="11.00" fill="#000000">0 rows</text>
<polygon fill="#ffffff" stroke="transparent" points="333,-185.7 333,-204.7 361,-204.7 361,-185.7 333,-185.7"/>
<polygon fill="none" stroke="#000000" points="333,-185.7 333,-204.7 361,-204.7 361,-185.7 333,-185.7"/>
<text text-anchor="start" x="351.8862" y="-191.8" font-family="Helvetica,sans-Serif" font-size="11.00" fill="#000000"> &#160;</text>
</a>
</g>
</g>
<!-- User -->
<g id="node2" class="node">
<title>User</title>
<g id="a_node2"><a xlink:href="../../tables/User.html" xlink:title="User" target="_top">
<polygon fill="#ffffff" stroke="transparent" points="8,-62.7 8,-218.7 180,-218.7 180,-62.7 8,-62.7"/>
<polygon fill="#f5f5f5" stroke="transparent" points="10,-193.7 10,-216.7 178,-216.7 178,-193.7 10,-193.7"/>
<polygon fill="none" stroke="#000000" points="10,-193.7 10,-216.7 178,-216.7 178,-193.7 10,-193.7"/>
<text text-anchor="start" x="14.8912" y="-202.3" font-family="Helvetica,sans-Serif" font-weight="bold" font-size="11.00" fill="#000000">User</text>
<text text-anchor="start" x="143.0437" y="-201.8" font-family="Helvetica,sans-Serif" font-size="11.00" fill="#000000">[table]</text>
<polygon fill="none" stroke="#000000" points="10,-171.7 10,-193.7 111,-193.7 111,-171.7 10,-171.7"/>
<image xlink:href="../../images/primaryKeys.png" width="11px" height="12px" preserveAspectRatio="xMinYMin meet" x="15" y="-188.7"/>
<text text-anchor="start" x="30" y="-178.8" font-family="Helvetica,sans-Serif" font-size="11.00" fill="#000000">id</text>
<polygon fill="none" stroke="#000000" points="111,-171.7 111,-193.7 178,-193.7 178,-171.7 111,-171.7"/>
<text text-anchor="start" x="113.9365" y="-179.4" font-family="Helvetica,sans-Serif" font-size="11.00" fill="#000000">varchar[191]</text>
<polygon fill="none" stroke="#000000" points="10,-149.7 10,-171.7 111,-171.7 111,-149.7 10,-149.7"/>
<text text-anchor="start" x="30" y="-156.8" font-family="Helvetica,sans-Serif" font-size="11.00" fill="#000000">name</text>
<polygon fill="none" stroke="#000000" points="111,-149.7 111,-171.7 178,-171.7 178,-149.7 111,-149.7"/>
<text text-anchor="start" x="113.9365" y="-157.4" font-family="Helvetica,sans-Serif" font-size="11.00" fill="#000000">varchar[191]</text>
<polygon fill="#ffffff" stroke="transparent" points="10,-127.7 10,-149.7 111,-149.7 111,-127.7 10,-127.7"/>
<polygon fill="none" stroke="#000000" points="10,-127.7 10,-149.7 111,-149.7 111,-127.7 10,-127.7"/>
<text text-anchor="start" x="30" y="-134.8" font-family="Helvetica,sans-Serif" font-size="11.00" fill="#000000">email</text>
<polygon fill="none" stroke="#000000" points="111,-127.7 111,-149.7 178,-149.7 178,-127.7 111,-127.7"/>
<text text-anchor="start" x="113.9365" y="-135.4" font-family="Helvetica,sans-Serif" font-size="11.00" fill="#000000">varchar[191]</text>
<polygon fill="none" stroke="#000000" points="10,-105.7 10,-127.7 111,-127.7 111,-105.7 10,-105.7"/>
<text text-anchor="start" x="30" y="-112.8" font-family="Helvetica,sans-Serif" font-size="11.00" fill="#000000">emailVerified</text>
<polygon fill="none" stroke="#000000" points="111,-105.7 111,-127.7 178,-127.7 178,-105.7 111,-105.7"/>
<text text-anchor="start" x="114" y="-113.4" font-family="Helvetica,sans-Serif" font-size="11.00" fill="#000000">datetime[23]</text>
<polygon fill="none" stroke="#000000" points="10,-83.7 10,-105.7 111,-105.7 111,-83.7 10,-83.7"/>
<text text-anchor="start" x="30" y="-90.8" font-family="Helvetica,sans-Serif" font-size="11.00" fill="#000000">image</text>
<polygon fill="none" stroke="#000000" points="111,-83.7 111,-105.7 178,-105.7 178,-83.7 111,-83.7"/>
<text text-anchor="start" x="113.9365" y="-91.4" font-family="Helvetica,sans-Serif" font-size="11.00" fill="#000000">varchar[191]</text>
<polygon fill="#ffffff" stroke="transparent" points="10,-64.7 10,-83.7 52,-83.7 52,-64.7 10,-64.7"/>
<polygon fill="none" stroke="#000000" points="10,-64.7 10,-83.7 52,-83.7 52,-64.7 10,-64.7"/>
<text text-anchor="start" x="13" y="-70.8" font-family="Helvetica,sans-Serif" font-size="11.00" fill="#000000">&lt; 0</text>
<polygon fill="#ffffff" stroke="transparent" points="52,-64.7 52,-83.7 111,-83.7 111,-64.7 52,-64.7"/>
<polygon fill="none" stroke="#000000" points="52,-64.7 52,-83.7 111,-83.7 111,-64.7 52,-64.7"/>
<text text-anchor="start" x="75.6105" y="-70.8" font-family="Helvetica,sans-Serif" font-size="11.00" fill="#000000">0 rows</text>
<polygon fill="#ffffff" stroke="transparent" points="111,-64.7 111,-83.7 178,-83.7 178,-64.7 111,-64.7"/>
<polygon fill="none" stroke="#000000" points="111,-64.7 111,-83.7 178,-83.7 178,-64.7 111,-64.7"/>
<text text-anchor="start" x="159.4053" y="-70.8" font-family="Helvetica,sans-Serif" font-size="11.00" fill="#000000">2 &gt;</text>
<polygon fill="none" stroke="#000000" stroke-width="2" points="9,-63.7 9,-217.7 179,-217.7 179,-63.7 9,-63.7"/>
</a>
</g>
</g>
<!-- Account&#45;&gt;User -->
<g id="edge1" class="edge">
<title>Account:w&#45;&gt;User:e</title>
<path fill="none" stroke="#000000" d="M214.9189,-274.575C190.6253,-256.2 220.2746,-182.7 178,-182.7"/>
<polygon fill="#000000" stroke="#000000" points="221.3226,-276.4509 227.9879,-282.1548 225.1613,-277.5755 229,-278.7 229,-278.7 229,-278.7 225.1613,-277.5755 230.0121,-275.2452 221.3226,-276.4509 221.3226,-276.4509"/>
<ellipse fill="none" stroke="#000000" cx="218.2517" cy="-275.5513" rx="3.2" ry="3.2"/>
</g>
<!-- Session -->
<g id="node3" class="node">
<title>Session</title>
<g id="a_node3"><a xlink:href="../../tables/Session.html" xlink:title="Session" target="_top">
<polygon fill="#ffffff" stroke="transparent" points="244.5,-38.2 244.5,-165.2 345.5,-165.2 345.5,-38.2 244.5,-38.2"/>
<polygon fill="#f5f5f5" stroke="transparent" points="245,-141.7 245,-164.7 346,-164.7 346,-141.7 245,-141.7"/>
<polygon fill="none" stroke="#000000" points="245,-141.7 245,-164.7 346,-164.7 346,-141.7 245,-141.7"/>
<text text-anchor="start" x="250" y="-150.3" font-family="Helvetica,sans-Serif" font-weight="bold" font-size="11.00" fill="#000000">Session</text>
<text text-anchor="start" x="311.0437" y="-149.8" font-family="Helvetica,sans-Serif" font-size="11.00" fill="#000000">[table]</text>
<polygon fill="none" stroke="#000000" points="245,-119.7 245,-141.7 346,-141.7 346,-119.7 245,-119.7"/>
<image xlink:href="../../images/primaryKeys.png" width="11px" height="12px" preserveAspectRatio="xMinYMin meet" x="250" y="-136.7"/>
<text text-anchor="start" x="265" y="-126.8" font-family="Helvetica,sans-Serif" font-size="11.00" fill="#000000">id</text>
<polygon fill="#ffffff" stroke="transparent" points="245,-97.7 245,-119.7 346,-119.7 346,-97.7 245,-97.7"/>
<polygon fill="none" stroke="#000000" points="245,-97.7 245,-119.7 346,-119.7 346,-97.7 245,-97.7"/>
<text text-anchor="start" x="265" y="-104.8" font-family="Helvetica,sans-Serif" font-size="11.00" fill="#000000">sessionToken</text>
<polygon fill="#ffffff" stroke="transparent" points="245,-75.7 245,-97.7 346,-97.7 346,-75.7 245,-75.7"/>
<polygon fill="none" stroke="#000000" points="245,-75.7 245,-97.7 346,-97.7 346,-75.7 245,-75.7"/>
<image xlink:href="../../images/foreignKeys.png" width="11px" height="12px" preserveAspectRatio="xMinYMin meet" x="250" y="-92.7"/>
<text text-anchor="start" x="265" y="-82.8" font-family="Helvetica,sans-Serif" font-size="11.00" fill="#000000">userId</text>
<polygon fill="none" stroke="#000000" points="245,-56.7 245,-75.7 346,-75.7 346,-56.7 245,-56.7"/>
<text text-anchor="start" x="248" y="-62.8" font-family="Helvetica,sans-Serif" font-size="11.00" fill="#000000">...</text>
<polygon fill="#ffffff" stroke="transparent" points="245,-37.7 245,-56.7 281,-56.7 281,-37.7 245,-37.7"/>
<polygon fill="none" stroke="#000000" points="245,-37.7 245,-56.7 281,-56.7 281,-37.7 245,-37.7"/>
<text text-anchor="start" x="248" y="-43.8" font-family="Helvetica,sans-Serif" font-size="11.00" fill="#000000">&lt; 1</text>
<polygon fill="#ffffff" stroke="transparent" points="281,-37.7 281,-56.7 326,-56.7 326,-37.7 281,-37.7"/>
<polygon fill="none" stroke="#000000" points="281,-37.7 281,-56.7 326,-56.7 326,-37.7 281,-37.7"/>
<text text-anchor="start" x="290.6105" y="-43.8" font-family="Helvetica,sans-Serif" font-size="11.00" fill="#000000">0 rows</text>
<polygon fill="#ffffff" stroke="transparent" points="326,-37.7 326,-56.7 346,-56.7 346,-37.7 326,-37.7"/>
<polygon fill="none" stroke="#000000" points="326,-37.7 326,-56.7 346,-56.7 346,-37.7 326,-37.7"/>
<text text-anchor="start" x="336.8862" y="-43.8" font-family="Helvetica,sans-Serif" font-size="11.00" fill="#000000"> &#160;</text>
</a>
</g>
</g>
<!-- Session&#45;&gt;User -->
<g id="edge2" class="edge">
<title>Session:w&#45;&gt;User:e</title>
<path fill="none" stroke="#000000" d="M230.8918,-89.8941C200.0109,-106.5516 224.3396,-182.7 178,-182.7"/>
<polygon fill="#000000" stroke="#000000" points="237.1975,-88.4665 245.7949,-90.2111 241.0987,-87.5833 245,-86.7 245,-86.7 245,-86.7 241.0987,-87.5833 244.2051,-83.1889 237.1975,-88.4665 237.1975,-88.4665"/>
<ellipse fill="none" stroke="#000000" cx="234.0765" cy="-89.1731" rx="3.2" ry="3.2"/>
</g>
</g>
</svg>
