<?xml version="1.0" encoding="UTF-8" standalone="no"?>
<!DOCTYPE svg PUBLIC "-//W3C//DTD SVG 1.1//EN"
 "http://www.w3.org/Graphics/SVG/1.1/DTD/svg11.dtd">
<!-- Generated by graphviz version 2.40.1 (20161225.0304)
 -->
<!-- Title: oneDegreeRelationshipsDiagram Pages: 1 -->
<svg width="222pt" height="162pt"
 viewBox="0.00 0.00 222.00 162.20" xmlns="http://www.w3.org/2000/svg" xmlns:xlink="http://www.w3.org/1999/xlink">
<g id="graph0" class="graph" transform="scale(1 1) rotate(0) translate(4 158.2)">
<title>oneDegreeRelationshipsDiagram</title>
<polygon fill="#ffffff" stroke="transparent" points="-4,4 -4,-158.2 218,-158.2 218,4 -4,4"/>
<text text-anchor="middle" x="72.4936" y="-7.3" font-family="Helvetica,sans-Serif" font-size="11.00" fill="#000000">Generated by SchemaSpy</text>
<!-- VerificationToken -->
<g id="node1" class="node">
<title>VerificationToken</title>
<g id="a_node1"><a xlink:href="../../tables/VerificationToken.html" xlink:title="VerificationToken" target="_top">
<polygon fill="#ffffff" stroke="transparent" points="8,-38.2 8,-150.2 206,-150.2 206,-38.2 8,-38.2"/>
<polygon fill="#f5f5f5" stroke="transparent" points="10,-125.2 10,-148.2 204,-148.2 204,-125.2 10,-125.2"/>
<polygon fill="none" stroke="#000000" points="10,-125.2 10,-148.2 204,-148.2 204,-125.2 10,-125.2"/>
<text text-anchor="start" x="15" y="-133.8" font-family="Helvetica,sans-Serif" font-weight="bold" font-size="11.00" fill="#000000">VerificationToken</text>
<text text-anchor="start" x="169.0437" y="-133.3" font-family="Helvetica,sans-Serif" font-size="11.00" fill="#000000">[table]</text>
<polygon fill="#ffffff" stroke="transparent" points="10,-103.2 10,-125.2 137,-125.2 137,-103.2 10,-103.2"/>
<polygon fill="none" stroke="#000000" points="10,-103.2 10,-125.2 137,-125.2 137,-103.2 10,-103.2"/>
<text text-anchor="start" x="30" y="-110.3" font-family="Helvetica,sans-Serif" font-size="11.00" fill="#000000">identifier</text>
<polygon fill="none" stroke="#000000" points="137,-103.2 137,-125.2 204,-125.2 204,-103.2 137,-103.2"/>
<text text-anchor="start" x="139.9365" y="-110.9" font-family="Helvetica,sans-Serif" font-size="11.00" fill="#000000">varchar[191]</text>
<polygon fill="#ffffff" stroke="transparent" points="10,-81.2 10,-103.2 137,-103.2 137,-81.2 10,-81.2"/>
<polygon fill="none" stroke="#000000" points="10,-81.2 10,-103.2 137,-103.2 137,-81.2 10,-81.2"/>
<text text-anchor="start" x="30" y="-88.3" font-family="Helvetica,sans-Serif" font-size="11.00" fill="#000000">token</text>
<polygon fill="none" stroke="#000000" points="137,-81.2 137,-103.2 204,-103.2 204,-81.2 137,-81.2"/>
<text text-anchor="start" x="139.9365" y="-88.9" font-family="Helvetica,sans-Serif" font-size="11.00" fill="#000000">varchar[191]</text>
<polygon fill="none" stroke="#000000" points="10,-59.2 10,-81.2 137,-81.2 137,-59.2 10,-59.2"/>
<text text-anchor="start" x="30" y="-66.3" font-family="Helvetica,sans-Serif" font-size="11.00" fill="#000000">expires</text>
<polygon fill="none" stroke="#000000" points="137,-59.2 137,-81.2 204,-81.2 204,-59.2 137,-59.2"/>
<text text-anchor="start" x="140" y="-66.9" font-family="Helvetica,sans-Serif" font-size="11.00" fill="#000000">datetime[23]</text>
<polygon fill="#ffffff" stroke="transparent" points="10,-40.2 10,-59.2 65,-59.2 65,-40.2 10,-40.2"/>
<polygon fill="none" stroke="#000000" points="10,-40.2 10,-59.2 65,-59.2 65,-40.2 10,-40.2"/>
<text text-anchor="start" x="13" y="-46.3" font-family="Helvetica,sans-Serif" font-size="11.00" fill="#000000">&lt; 0</text>
<polygon fill="#ffffff" stroke="transparent" points="65,-40.2 65,-59.2 137,-59.2 137,-40.2 65,-40.2"/>
<polygon fill="none" stroke="#000000" points="65,-40.2 65,-59.2 137,-59.2 137,-40.2 65,-40.2"/>
<text text-anchor="start" x="101.6105" y="-46.3" font-family="Helvetica,sans-Serif" font-size="11.00" fill="#000000">0 rows</text>
<polygon fill="#ffffff" stroke="transparent" points="137,-40.2 137,-59.2 204,-59.2 204,-40.2 137,-40.2"/>
<polygon fill="none" stroke="#000000" points="137,-40.2 137,-59.2 204,-59.2 204,-40.2 137,-40.2"/>
<text text-anchor="start" x="185.4053" y="-46.3" font-family="Helvetica,sans-Serif" font-size="11.00" fill="#000000">0 &gt;</text>
<polygon fill="none" stroke="#000000" stroke-width="2" points="9,-39.2 9,-149.2 205,-149.2 205,-39.2 9,-39.2"/>
</a>
</g>
</g>
</g>
</svg>
