<?xml version="1.0" encoding="UTF-8" standalone="no"?>
<!DOCTYPE svg PUBLIC "-//W3C//DTD SVG 1.1//EN"
 "http://www.w3.org/Graphics/SVG/1.1/DTD/svg11.dtd">
<!-- Generated by graphviz version 2.40.1 (20161225.0304)
 -->
<!-- Title: twoDegreesRelationshipsDiagram Pages: 1 -->
<svg width="372pt" height="311pt"
 viewBox="0.00 0.00 372.00 310.70" xmlns="http://www.w3.org/2000/svg" xmlns:xlink="http://www.w3.org/1999/xlink">
<g id="graph0" class="graph" transform="scale(1 1) rotate(0) translate(4 306.7)">
<title>twoDegreesRelationshipsDiagram</title>
<polygon fill="#ffffff" stroke="transparent" points="-4,4 -4,-306.7 368,-306.7 368,4 -4,4"/>
<text text-anchor="middle" x="72.4936" y="-7.3" font-family="Helvetica,sans-Serif" font-size="11.00" fill="#000000">Generated by SchemaSpy</text>
<!-- _KeywordToVideo -->
<g id="node1" class="node">
<title>_KeywordToVideo</title>
<g id="a_node1"><a xlink:href="../../tables/_KeywordToVideo.html" xlink:title="_KeywordToVideo" target="_top">
<polygon fill="#ffffff" stroke="transparent" points="212,-181.2 212,-267.2 356,-267.2 356,-181.2 212,-181.2"/>
<polygon fill="#f5f5f5" stroke="transparent" points="212,-244.2 212,-267.2 356,-267.2 356,-244.2 212,-244.2"/>
<polygon fill="none" stroke="#000000" points="212,-244.2 212,-267.2 356,-267.2 356,-244.2 212,-244.2"/>
<text text-anchor="start" x="217" y="-252.8" font-family="Helvetica,sans-Serif" font-weight="bold" font-size="11.00" fill="#000000">_KeywordToVideo</text>
<text text-anchor="start" x="321.5219" y="-252.3" font-family="Helvetica,sans-Serif" font-size="11.00" fill="#000000">[table]</text>
<polygon fill="#ffffff" stroke="transparent" points="212,-222.2 212,-244.2 356,-244.2 356,-222.2 212,-222.2"/>
<polygon fill="none" stroke="#000000" points="212,-222.2 212,-244.2 356,-244.2 356,-222.2 212,-222.2"/>
<image xlink:href="../../images/foreignKeys.png" width="11px" height="12px" preserveAspectRatio="xMinYMin meet" x="217" y="-239.2"/>
<text text-anchor="start" x="241" y="-229.3" font-family="Helvetica,sans-Serif" font-size="11.00" fill="#000000">A</text>
<polygon fill="#ffffff" stroke="transparent" points="212,-200.2 212,-222.2 356,-222.2 356,-200.2 212,-200.2"/>
<polygon fill="none" stroke="#000000" points="212,-200.2 212,-222.2 356,-222.2 356,-200.2 212,-200.2"/>
<image xlink:href="../../images/foreignKeys.png" width="11px" height="12px" preserveAspectRatio="xMinYMin meet" x="217" y="-217.2"/>
<text text-anchor="start" x="241" y="-207.3" font-family="Helvetica,sans-Serif" font-size="11.00" fill="#000000">B</text>
<polygon fill="#ffffff" stroke="transparent" points="212,-181.2 212,-200.2 269,-200.2 269,-181.2 212,-181.2"/>
<polygon fill="none" stroke="#000000" points="212,-181.2 212,-200.2 269,-200.2 269,-181.2 212,-181.2"/>
<text text-anchor="start" x="215" y="-187.3" font-family="Helvetica,sans-Serif" font-size="11.00" fill="#000000">&lt; 2</text>
<polygon fill="#ffffff" stroke="transparent" points="269,-181.2 269,-200.2 325,-200.2 325,-181.2 269,-181.2"/>
<polygon fill="none" stroke="#000000" points="269,-181.2 269,-200.2 325,-200.2 325,-181.2 269,-181.2"/>
<text text-anchor="start" x="289.6105" y="-187.3" font-family="Helvetica,sans-Serif" font-size="11.00" fill="#000000">0 rows</text>
<polygon fill="#ffffff" stroke="transparent" points="325,-181.2 325,-200.2 356,-200.2 356,-181.2 325,-181.2"/>
<polygon fill="none" stroke="#000000" points="325,-181.2 325,-200.2 356,-200.2 356,-181.2 325,-181.2"/>
<text text-anchor="start" x="346.8862" y="-187.3" font-family="Helvetica,sans-Serif" font-size="11.00" fill="#000000"> &#160;</text>
</a>
</g>
</g>
<!-- Keyword -->
<g id="node2" class="node">
<title>Keyword</title>
<g id="a_node2"><a xlink:href="../../tables/Keyword.html" xlink:title="Keyword" target="_top">
<polygon fill="#ffffff" stroke="transparent" points="40,-237.7 40,-298.7 131,-298.7 131,-237.7 40,-237.7"/>
<polygon fill="#f5f5f5" stroke="transparent" points="40.5,-275.2 40.5,-298.2 131.5,-298.2 131.5,-275.2 40.5,-275.2"/>
<polygon fill="none" stroke="#000000" points="40.5,-275.2 40.5,-298.2 131.5,-298.2 131.5,-275.2 40.5,-275.2"/>
<text text-anchor="start" x="45.5" y="-283.8" font-family="Helvetica,sans-Serif" font-weight="bold" font-size="11.00" fill="#000000">Keyword</text>
<text text-anchor="start" x="97.0219" y="-283.3" font-family="Helvetica,sans-Serif" font-size="11.00" fill="#000000">[table]</text>
<polygon fill="none" stroke="#000000" points="40.5,-256.2 40.5,-275.2 131.5,-275.2 131.5,-256.2 40.5,-256.2"/>
<text text-anchor="start" x="43.5" y="-262.3" font-family="Helvetica,sans-Serif" font-size="11.00" fill="#000000">...</text>
<polygon fill="#ffffff" stroke="transparent" points="40.5,-237.2 40.5,-256.2 62.5,-256.2 62.5,-237.2 40.5,-237.2"/>
<polygon fill="none" stroke="#000000" points="40.5,-237.2 40.5,-256.2 62.5,-256.2 62.5,-237.2 40.5,-237.2"/>
<text text-anchor="start" x="43.5" y="-243.3" font-family="Helvetica,sans-Serif" font-size="11.00" fill="#000000"> &#160;</text>
<polygon fill="#ffffff" stroke="transparent" points="62.5,-237.2 62.5,-256.2 105.5,-256.2 105.5,-237.2 62.5,-237.2"/>
<polygon fill="none" stroke="#000000" points="62.5,-237.2 62.5,-256.2 105.5,-256.2 105.5,-237.2 62.5,-237.2"/>
<text text-anchor="start" x="70.1105" y="-243.3" font-family="Helvetica,sans-Serif" font-size="11.00" fill="#000000">0 rows</text>
<polygon fill="#ffffff" stroke="transparent" points="105.5,-237.2 105.5,-256.2 131.5,-256.2 131.5,-237.2 105.5,-237.2"/>
<polygon fill="none" stroke="#000000" points="105.5,-237.2 105.5,-256.2 131.5,-256.2 131.5,-237.2 105.5,-237.2"/>
<text text-anchor="start" x="112.9053" y="-243.3" font-family="Helvetica,sans-Serif" font-size="11.00" fill="#000000">1 &gt;</text>
</a>
</g>
</g>
<!-- _KeywordToVideo&#45;&gt;Keyword -->
<g id="edge1" class="edge">
<title>_KeywordToVideo:w&#45;&gt;Keyword:e</title>
<path fill="none" stroke="#000000" d="M197.6393,-234.9205C171.823,-241.5672 164.5867,-265.2 131.5,-265.2"/>
<polygon fill="#000000" stroke="#000000" points="204.0568,-234.1517 212.4283,-236.7744 208.0284,-233.6758 212,-233.2 212,-233.2 212,-233.2 208.0284,-233.6758 211.5717,-229.6256 204.0568,-234.1517 204.0568,-234.1517"/>
<ellipse fill="none" stroke="#000000" cx="200.8795" cy="-234.5323" rx="3.2" ry="3.2"/>
</g>
<!-- Video -->
<g id="node3" class="node">
<title>Video</title>
<g id="a_node3"><a xlink:href="../../tables/Video.html" xlink:title="Video" target="_top">
<polygon fill="#ffffff" stroke="transparent" points="8,-38.2 8,-216.2 163,-216.2 163,-38.2 8,-38.2"/>
<polygon fill="#f5f5f5" stroke="transparent" points="10.5,-191.2 10.5,-214.2 161.5,-214.2 161.5,-191.2 10.5,-191.2"/>
<polygon fill="none" stroke="#000000" points="10.5,-191.2 10.5,-214.2 161.5,-214.2 161.5,-191.2 10.5,-191.2"/>
<text text-anchor="start" x="15.5" y="-199.8" font-family="Helvetica,sans-Serif" font-weight="bold" font-size="11.00" fill="#000000">Video</text>
<text text-anchor="start" x="126.5437" y="-199.3" font-family="Helvetica,sans-Serif" font-size="11.00" fill="#000000">[table]</text>
<polygon fill="none" stroke="#000000" points="10.5,-169.2 10.5,-191.2 94.5,-191.2 94.5,-169.2 10.5,-169.2"/>
<image xlink:href="../../images/primaryKeys.png" width="11px" height="12px" preserveAspectRatio="xMinYMin meet" x="15.5" y="-186.2"/>
<text text-anchor="start" x="30.5" y="-176.3" font-family="Helvetica,sans-Serif" font-size="11.00" fill="#000000">id</text>
<polygon fill="none" stroke="#000000" points="94.5,-169.2 94.5,-191.2 161.5,-191.2 161.5,-169.2 94.5,-169.2"/>
<text text-anchor="start" x="97.5" y="-176.9" font-family="Helvetica,sans-Serif" font-size="11.00" fill="#000000">int[10]</text>
<polygon fill="none" stroke="#000000" points="10.5,-147.2 10.5,-169.2 94.5,-169.2 94.5,-147.2 10.5,-147.2"/>
<text text-anchor="start" x="30.5" y="-154.3" font-family="Helvetica,sans-Serif" font-size="11.00" fill="#000000">title</text>
<polygon fill="none" stroke="#000000" points="94.5,-147.2 94.5,-169.2 161.5,-169.2 161.5,-147.2 94.5,-147.2"/>
<text text-anchor="start" x="97.4365" y="-154.9" font-family="Helvetica,sans-Serif" font-size="11.00" fill="#000000">varchar[191]</text>
<polygon fill="none" stroke="#000000" points="10.5,-125.2 10.5,-147.2 94.5,-147.2 94.5,-125.2 10.5,-125.2"/>
<text text-anchor="start" x="30.5" y="-132.3" font-family="Helvetica,sans-Serif" font-size="11.00" fill="#000000">imageUrl</text>
<polygon fill="none" stroke="#000000" points="94.5,-125.2 94.5,-147.2 161.5,-147.2 161.5,-125.2 94.5,-125.2"/>
<text text-anchor="start" x="97.5" y="-132.9" font-family="Helvetica,sans-Serif" font-size="11.00" fill="#000000">text[65535]</text>
<polygon fill="none" stroke="#000000" points="10.5,-103.2 10.5,-125.2 94.5,-125.2 94.5,-103.2 10.5,-103.2"/>
<text text-anchor="start" x="30.5" y="-110.3" font-family="Helvetica,sans-Serif" font-size="11.00" fill="#000000">createdAt</text>
<polygon fill="none" stroke="#000000" points="94.5,-103.2 94.5,-125.2 161.5,-125.2 161.5,-103.2 94.5,-103.2"/>
<text text-anchor="start" x="97.5" y="-110.9" font-family="Helvetica,sans-Serif" font-size="11.00" fill="#000000">datetime[23]</text>
<polygon fill="none" stroke="#000000" points="10.5,-81.2 10.5,-103.2 94.5,-103.2 94.5,-81.2 10.5,-81.2"/>
<text text-anchor="start" x="30.5" y="-88.3" font-family="Helvetica,sans-Serif" font-size="11.00" fill="#000000">updatedAt</text>
<polygon fill="none" stroke="#000000" points="94.5,-81.2 94.5,-103.2 161.5,-103.2 161.5,-81.2 94.5,-81.2"/>
<text text-anchor="start" x="97.5" y="-88.9" font-family="Helvetica,sans-Serif" font-size="11.00" fill="#000000">datetime[23]</text>
<polygon fill="none" stroke="#000000" points="10.5,-59.2 10.5,-81.2 94.5,-81.2 94.5,-59.2 10.5,-59.2"/>
<text text-anchor="start" x="30.5" y="-66.3" font-family="Helvetica,sans-Serif" font-size="11.00" fill="#000000">url</text>
<polygon fill="none" stroke="#000000" points="94.5,-59.2 94.5,-81.2 161.5,-81.2 161.5,-59.2 94.5,-59.2"/>
<text text-anchor="start" x="97.5" y="-66.9" font-family="Helvetica,sans-Serif" font-size="11.00" fill="#000000">text[65535]</text>
<polygon fill="#ffffff" stroke="transparent" points="10.5,-40.2 10.5,-59.2 43.5,-59.2 43.5,-40.2 10.5,-40.2"/>
<polygon fill="none" stroke="#000000" points="10.5,-40.2 10.5,-59.2 43.5,-59.2 43.5,-40.2 10.5,-40.2"/>
<text text-anchor="start" x="13.5" y="-46.3" font-family="Helvetica,sans-Serif" font-size="11.00" fill="#000000">&lt; 0</text>
<polygon fill="#ffffff" stroke="transparent" points="43.5,-40.2 43.5,-59.2 94.5,-59.2 94.5,-40.2 43.5,-40.2"/>
<polygon fill="none" stroke="#000000" points="43.5,-40.2 43.5,-59.2 94.5,-59.2 94.5,-40.2 43.5,-40.2"/>
<text text-anchor="start" x="59.1105" y="-46.3" font-family="Helvetica,sans-Serif" font-size="11.00" fill="#000000">0 rows</text>
<polygon fill="#ffffff" stroke="transparent" points="94.5,-40.2 94.5,-59.2 161.5,-59.2 161.5,-40.2 94.5,-40.2"/>
<polygon fill="none" stroke="#000000" points="94.5,-40.2 94.5,-59.2 161.5,-59.2 161.5,-40.2 94.5,-40.2"/>
<text text-anchor="start" x="142.9053" y="-46.3" font-family="Helvetica,sans-Serif" font-size="11.00" fill="#000000">1 &gt;</text>
<polygon fill="none" stroke="#000000" stroke-width="2" points="9,-39.2 9,-215.2 162,-215.2 162,-39.2 9,-39.2"/>
</a>
</g>
</g>
<!-- _KeywordToVideo&#45;&gt;Video -->
<g id="edge2" class="edge">
<title>_KeywordToVideo:w&#45;&gt;Video:e</title>
<path fill="none" stroke="#000000" d="M197.8267,-207.1473C185.1849,-198.7444 181.8692,-180.2 161.5,-180.2"/>
<polygon fill="#000000" stroke="#000000" points="204.3083,-209.0006 211.0103,-214.6613 208.1541,-210.1003 212,-211.2 212,-211.2 212,-211.2 208.1541,-210.1003 212.9897,-207.7387 204.3083,-209.0006 204.3083,-209.0006"/>
<ellipse fill="none" stroke="#000000" cx="201.2316" cy="-208.1208" rx="3.2" ry="3.2"/>
</g>
</g>
</svg>
