<?xml version="1.0" encoding="UTF-8" standalone="no"?>
<!DOCTYPE svg PUBLIC "-//W3C//DTD SVG 1.1//EN"
 "http://www.w3.org/Graphics/SVG/1.1/DTD/svg11.dtd">
<!-- Generated by graphviz version 2.40.1 (20161225.0304)
 -->
<!-- Title: twoDegreesRelationshipsDiagram Pages: 1 -->
<svg width="376pt" height="311pt"
 viewBox="0.00 0.00 376.00 310.70" xmlns="http://www.w3.org/2000/svg" xmlns:xlink="http://www.w3.org/1999/xlink">
<g id="graph0" class="graph" transform="scale(1 1) rotate(0) translate(4 306.7)">
<title>twoDegreesRelationshipsDiagram</title>
<polygon fill="#ffffff" stroke="transparent" points="-4,4 -4,-306.7 372,-306.7 372,4 -4,4"/>
<text text-anchor="middle" x="72.4936" y="-7.3" font-family="Helvetica,sans-Serif" font-size="11.00" fill="#000000">Generated by SchemaSpy</text>
<!-- _KeywordToVideo -->
<g id="node1" class="node">
<title>_KeywordToVideo</title>
<g id="a_node1"><a xlink:href="../../tables/_KeywordToVideo.html" xlink:title="_KeywordToVideo" target="_top">
<polygon fill="#ffffff" stroke="transparent" points="216,-181.2 216,-267.2 360,-267.2 360,-181.2 216,-181.2"/>
<polygon fill="#f5f5f5" stroke="transparent" points="216,-244.2 216,-267.2 360,-267.2 360,-244.2 216,-244.2"/>
<polygon fill="none" stroke="#000000" points="216,-244.2 216,-267.2 360,-267.2 360,-244.2 216,-244.2"/>
<text text-anchor="start" x="221" y="-252.8" font-family="Helvetica,sans-Serif" font-weight="bold" font-size="11.00" fill="#000000">_KeywordToVideo</text>
<text text-anchor="start" x="325.5219" y="-252.3" font-family="Helvetica,sans-Serif" font-size="11.00" fill="#000000">[table]</text>
<polygon fill="#ffffff" stroke="transparent" points="216,-222.2 216,-244.2 360,-244.2 360,-222.2 216,-222.2"/>
<polygon fill="none" stroke="#000000" points="216,-222.2 216,-244.2 360,-244.2 360,-222.2 216,-222.2"/>
<image xlink:href="../../images/foreignKeys.png" width="11px" height="12px" preserveAspectRatio="xMinYMin meet" x="221" y="-239.2"/>
<text text-anchor="start" x="245" y="-229.3" font-family="Helvetica,sans-Serif" font-size="11.00" fill="#000000">A</text>
<polygon fill="#ffffff" stroke="transparent" points="216,-200.2 216,-222.2 360,-222.2 360,-200.2 216,-200.2"/>
<polygon fill="none" stroke="#000000" points="216,-200.2 216,-222.2 360,-222.2 360,-200.2 216,-200.2"/>
<image xlink:href="../../images/foreignKeys.png" width="11px" height="12px" preserveAspectRatio="xMinYMin meet" x="221" y="-217.2"/>
<text text-anchor="start" x="245" y="-207.3" font-family="Helvetica,sans-Serif" font-size="11.00" fill="#000000">B</text>
<polygon fill="#ffffff" stroke="transparent" points="216,-181.2 216,-200.2 273,-200.2 273,-181.2 216,-181.2"/>
<polygon fill="none" stroke="#000000" points="216,-181.2 216,-200.2 273,-200.2 273,-181.2 216,-181.2"/>
<text text-anchor="start" x="219" y="-187.3" font-family="Helvetica,sans-Serif" font-size="11.00" fill="#000000">&lt; 2</text>
<polygon fill="#ffffff" stroke="transparent" points="273,-181.2 273,-200.2 329,-200.2 329,-181.2 273,-181.2"/>
<polygon fill="none" stroke="#000000" points="273,-181.2 273,-200.2 329,-200.2 329,-181.2 273,-181.2"/>
<text text-anchor="start" x="293.6105" y="-187.3" font-family="Helvetica,sans-Serif" font-size="11.00" fill="#000000">0 rows</text>
<polygon fill="#ffffff" stroke="transparent" points="329,-181.2 329,-200.2 360,-200.2 360,-181.2 329,-181.2"/>
<polygon fill="none" stroke="#000000" points="329,-181.2 329,-200.2 360,-200.2 360,-181.2 329,-181.2"/>
<text text-anchor="start" x="350.8862" y="-187.3" font-family="Helvetica,sans-Serif" font-size="11.00" fill="#000000"> &#160;</text>
</a>
</g>
</g>
<!-- Keyword -->
<g id="node2" class="node">
<title>Keyword</title>
<g id="a_node2"><a xlink:href="../../tables/Keyword.html" xlink:title="Keyword" target="_top">
<polygon fill="#ffffff" stroke="transparent" points="42,-237.7 42,-298.7 133,-298.7 133,-237.7 42,-237.7"/>
<polygon fill="#f5f5f5" stroke="transparent" points="42.5,-275.2 42.5,-298.2 133.5,-298.2 133.5,-275.2 42.5,-275.2"/>
<polygon fill="none" stroke="#000000" points="42.5,-275.2 42.5,-298.2 133.5,-298.2 133.5,-275.2 42.5,-275.2"/>
<text text-anchor="start" x="47.5" y="-283.8" font-family="Helvetica,sans-Serif" font-weight="bold" font-size="11.00" fill="#000000">Keyword</text>
<text text-anchor="start" x="99.0219" y="-283.3" font-family="Helvetica,sans-Serif" font-size="11.00" fill="#000000">[table]</text>
<polygon fill="none" stroke="#000000" points="42.5,-256.2 42.5,-275.2 133.5,-275.2 133.5,-256.2 42.5,-256.2"/>
<text text-anchor="start" x="45.5" y="-262.3" font-family="Helvetica,sans-Serif" font-size="11.00" fill="#000000">...</text>
<polygon fill="#ffffff" stroke="transparent" points="42.5,-237.2 42.5,-256.2 64.5,-256.2 64.5,-237.2 42.5,-237.2"/>
<polygon fill="none" stroke="#000000" points="42.5,-237.2 42.5,-256.2 64.5,-256.2 64.5,-237.2 42.5,-237.2"/>
<text text-anchor="start" x="45.5" y="-243.3" font-family="Helvetica,sans-Serif" font-size="11.00" fill="#000000"> &#160;</text>
<polygon fill="#ffffff" stroke="transparent" points="64.5,-237.2 64.5,-256.2 107.5,-256.2 107.5,-237.2 64.5,-237.2"/>
<polygon fill="none" stroke="#000000" points="64.5,-237.2 64.5,-256.2 107.5,-256.2 107.5,-237.2 64.5,-237.2"/>
<text text-anchor="start" x="72.1105" y="-243.3" font-family="Helvetica,sans-Serif" font-size="11.00" fill="#000000">0 rows</text>
<polygon fill="#ffffff" stroke="transparent" points="107.5,-237.2 107.5,-256.2 133.5,-256.2 133.5,-237.2 107.5,-237.2"/>
<polygon fill="none" stroke="#000000" points="107.5,-237.2 107.5,-256.2 133.5,-256.2 133.5,-237.2 107.5,-237.2"/>
<text text-anchor="start" x="114.9053" y="-243.3" font-family="Helvetica,sans-Serif" font-size="11.00" fill="#000000">1 &gt;</text>
</a>
</g>
</g>
<!-- _KeywordToVideo&#45;&gt;Keyword -->
<g id="edge1" class="edge">
<title>_KeywordToVideo:w&#45;&gt;Keyword:e</title>
<path fill="none" stroke="#000000" d="M201.6777,-234.8309C174.9575,-241.3519 167.4514,-265.2 133.5,-265.2"/>
<polygon fill="#000000" stroke="#000000" points="208.0514,-234.1052 216.4073,-236.7769 212.0257,-233.6526 216,-233.2 216,-233.2 216,-233.2 212.0257,-233.6526 215.5927,-229.6231 208.0514,-234.1052 208.0514,-234.1052"/>
<ellipse fill="none" stroke="#000000" cx="204.8719" cy="-234.4672" rx="3.2" ry="3.2"/>
</g>
<!-- Video -->
<g id="node3" class="node">
<title>Video</title>
<g id="a_node3"><a xlink:href="../../tables/Video.html" xlink:title="Video" target="_top">
<polygon fill="#ffffff" stroke="transparent" points="8,-38.2 8,-216.2 167,-216.2 167,-38.2 8,-38.2"/>
<polygon fill="#f5f5f5" stroke="transparent" points="10.5,-191.2 10.5,-214.2 165.5,-214.2 165.5,-191.2 10.5,-191.2"/>
<polygon fill="none" stroke="#000000" points="10.5,-191.2 10.5,-214.2 165.5,-214.2 165.5,-191.2 10.5,-191.2"/>
<text text-anchor="start" x="15.5" y="-199.8" font-family="Helvetica,sans-Serif" font-weight="bold" font-size="11.00" fill="#000000">Video</text>
<text text-anchor="start" x="130.5437" y="-199.3" font-family="Helvetica,sans-Serif" font-size="11.00" fill="#000000">[table]</text>
<polygon fill="none" stroke="#000000" points="10.5,-169.2 10.5,-191.2 98.5,-191.2 98.5,-169.2 10.5,-169.2"/>
<image xlink:href="../../images/primaryKeys.png" width="11px" height="12px" preserveAspectRatio="xMinYMin meet" x="15.5" y="-186.2"/>
<text text-anchor="start" x="30.5" y="-176.3" font-family="Helvetica,sans-Serif" font-size="11.00" fill="#000000">id</text>
<polygon fill="none" stroke="#000000" points="98.5,-169.2 98.5,-191.2 165.5,-191.2 165.5,-169.2 98.5,-169.2"/>
<text text-anchor="start" x="101.5" y="-176.9" font-family="Helvetica,sans-Serif" font-size="11.00" fill="#000000">int[10]</text>
<polygon fill="none" stroke="#000000" points="10.5,-147.2 10.5,-169.2 98.5,-169.2 98.5,-147.2 10.5,-147.2"/>
<text text-anchor="start" x="30.5" y="-154.3" font-family="Helvetica,sans-Serif" font-size="11.00" fill="#000000">title</text>
<polygon fill="none" stroke="#000000" points="98.5,-147.2 98.5,-169.2 165.5,-169.2 165.5,-147.2 98.5,-147.2"/>
<text text-anchor="start" x="101.4365" y="-154.9" font-family="Helvetica,sans-Serif" font-size="11.00" fill="#000000">varchar[191]</text>
<polygon fill="none" stroke="#000000" points="10.5,-125.2 10.5,-147.2 98.5,-147.2 98.5,-125.2 10.5,-125.2"/>
<text text-anchor="start" x="30.5" y="-132.3" font-family="Helvetica,sans-Serif" font-size="11.00" fill="#000000">description</text>
<polygon fill="none" stroke="#000000" points="98.5,-125.2 98.5,-147.2 165.5,-147.2 165.5,-125.2 98.5,-125.2"/>
<text text-anchor="start" x="101.5" y="-132.9" font-family="Helvetica,sans-Serif" font-size="11.00" fill="#000000">text[65535]</text>
<polygon fill="none" stroke="#000000" points="10.5,-103.2 10.5,-125.2 98.5,-125.2 98.5,-103.2 10.5,-103.2"/>
<text text-anchor="start" x="30.5" y="-110.3" font-family="Helvetica,sans-Serif" font-size="11.00" fill="#000000">imageUrl</text>
<polygon fill="none" stroke="#000000" points="98.5,-103.2 98.5,-125.2 165.5,-125.2 165.5,-103.2 98.5,-103.2"/>
<text text-anchor="start" x="101.4365" y="-110.9" font-family="Helvetica,sans-Serif" font-size="11.00" fill="#000000">varchar[191]</text>
<polygon fill="none" stroke="#000000" points="10.5,-81.2 10.5,-103.2 98.5,-103.2 98.5,-81.2 10.5,-81.2"/>
<text text-anchor="start" x="30.5" y="-88.3" font-family="Helvetica,sans-Serif" font-size="11.00" fill="#000000">createdAt</text>
<polygon fill="none" stroke="#000000" points="98.5,-81.2 98.5,-103.2 165.5,-103.2 165.5,-81.2 98.5,-81.2"/>
<text text-anchor="start" x="101.5" y="-88.9" font-family="Helvetica,sans-Serif" font-size="11.00" fill="#000000">datetime[23]</text>
<polygon fill="none" stroke="#000000" points="10.5,-59.2 10.5,-81.2 98.5,-81.2 98.5,-59.2 10.5,-59.2"/>
<text text-anchor="start" x="30.5" y="-66.3" font-family="Helvetica,sans-Serif" font-size="11.00" fill="#000000">updatedAt</text>
<polygon fill="none" stroke="#000000" points="98.5,-59.2 98.5,-81.2 165.5,-81.2 165.5,-59.2 98.5,-59.2"/>
<text text-anchor="start" x="101.5" y="-66.9" font-family="Helvetica,sans-Serif" font-size="11.00" fill="#000000">datetime[23]</text>
<polygon fill="#ffffff" stroke="transparent" points="10.5,-40.2 10.5,-59.2 45.5,-59.2 45.5,-40.2 10.5,-40.2"/>
<polygon fill="none" stroke="#000000" points="10.5,-40.2 10.5,-59.2 45.5,-59.2 45.5,-40.2 10.5,-40.2"/>
<text text-anchor="start" x="13.5" y="-46.3" font-family="Helvetica,sans-Serif" font-size="11.00" fill="#000000">&lt; 0</text>
<polygon fill="#ffffff" stroke="transparent" points="45.5,-40.2 45.5,-59.2 98.5,-59.2 98.5,-40.2 45.5,-40.2"/>
<polygon fill="none" stroke="#000000" points="45.5,-40.2 45.5,-59.2 98.5,-59.2 98.5,-40.2 45.5,-40.2"/>
<text text-anchor="start" x="63.1105" y="-46.3" font-family="Helvetica,sans-Serif" font-size="11.00" fill="#000000">0 rows</text>
<polygon fill="#ffffff" stroke="transparent" points="98.5,-40.2 98.5,-59.2 165.5,-59.2 165.5,-40.2 98.5,-40.2"/>
<polygon fill="none" stroke="#000000" points="98.5,-40.2 98.5,-59.2 165.5,-59.2 165.5,-40.2 98.5,-40.2"/>
<text text-anchor="start" x="146.9053" y="-46.3" font-family="Helvetica,sans-Serif" font-size="11.00" fill="#000000">1 &gt;</text>
<polygon fill="none" stroke="#000000" stroke-width="2" points="9,-39.2 9,-215.2 166,-215.2 166,-39.2 9,-39.2"/>
</a>
</g>
</g>
<!-- _KeywordToVideo&#45;&gt;Video -->
<g id="edge2" class="edge">
<title>_KeywordToVideo:w&#45;&gt;Video:e</title>
<path fill="none" stroke="#000000" d="M201.8267,-207.1473C189.1849,-198.7444 185.8692,-180.2 165.5,-180.2"/>
<polygon fill="#000000" stroke="#000000" points="208.3083,-209.0006 215.0103,-214.6613 212.1541,-210.1003 216,-211.2 216,-211.2 216,-211.2 212.1541,-210.1003 216.9897,-207.7387 208.3083,-209.0006 208.3083,-209.0006"/>
<ellipse fill="none" stroke="#000000" cx="205.2316" cy="-208.1208" rx="3.2" ry="3.2"/>
</g>
</g>
</svg>
