<?xml version="1.0" encoding="UTF-8" standalone="no"?>
<!DOCTYPE svg PUBLIC "-//W3C//DTD SVG 1.1//EN"
 "http://www.w3.org/Graphics/SVG/1.1/DTD/svg11.dtd">
<!-- Generated by graphviz version 2.40.1 (20161225.0304)
 -->
<!-- Title: oneDegreeRelationshipsDiagram Pages: 1 -->
<svg width="376pt" height="248pt"
 viewBox="0.00 0.00 376.00 248.20" xmlns="http://www.w3.org/2000/svg" xmlns:xlink="http://www.w3.org/1999/xlink">
<g id="graph0" class="graph" transform="scale(1 1) rotate(0) translate(4 244.2)">
<title>oneDegreeRelationshipsDiagram</title>
<polygon fill="#ffffff" stroke="transparent" points="-4,4 -4,-244.2 372,-244.2 372,4 -4,4"/>
<text text-anchor="middle" x="72.4936" y="-7.3" font-family="Helvetica,sans-Serif" font-size="11.00" fill="#000000">Generated by SchemaSpy</text>
<!-- _KeywordToVideo -->
<g id="node1" class="node">
<title>_KeywordToVideo</title>
<g id="a_node1"><a xlink:href="../../tables/_KeywordToVideo.html" xlink:title="_KeywordToVideo" target="_top">
<polygon fill="#ffffff" stroke="transparent" points="216,-150.2 216,-236.2 360,-236.2 360,-150.2 216,-150.2"/>
<polygon fill="#f5f5f5" stroke="transparent" points="216,-213.2 216,-236.2 360,-236.2 360,-213.2 216,-213.2"/>
<polygon fill="none" stroke="#000000" points="216,-213.2 216,-236.2 360,-236.2 360,-213.2 216,-213.2"/>
<text text-anchor="start" x="221" y="-221.8" font-family="Helvetica,sans-Serif" font-weight="bold" font-size="11.00" fill="#000000">_KeywordToVideo</text>
<text text-anchor="start" x="325.5219" y="-221.3" font-family="Helvetica,sans-Serif" font-size="11.00" fill="#000000">[table]</text>
<polygon fill="#ffffff" stroke="transparent" points="216,-191.2 216,-213.2 360,-213.2 360,-191.2 216,-191.2"/>
<polygon fill="none" stroke="#000000" points="216,-191.2 216,-213.2 360,-213.2 360,-191.2 216,-191.2"/>
<image xlink:href="../../images/foreignKeys.png" width="11px" height="12px" preserveAspectRatio="xMinYMin meet" x="221" y="-208.2"/>
<text text-anchor="start" x="245" y="-198.3" font-family="Helvetica,sans-Serif" font-size="11.00" fill="#000000">A</text>
<polygon fill="#ffffff" stroke="transparent" points="216,-169.2 216,-191.2 360,-191.2 360,-169.2 216,-169.2"/>
<polygon fill="none" stroke="#000000" points="216,-169.2 216,-191.2 360,-191.2 360,-169.2 216,-169.2"/>
<image xlink:href="../../images/foreignKeys.png" width="11px" height="12px" preserveAspectRatio="xMinYMin meet" x="221" y="-186.2"/>
<text text-anchor="start" x="245" y="-176.3" font-family="Helvetica,sans-Serif" font-size="11.00" fill="#000000">B</text>
<polygon fill="#ffffff" stroke="transparent" points="216,-150.2 216,-169.2 273,-169.2 273,-150.2 216,-150.2"/>
<polygon fill="none" stroke="#000000" points="216,-150.2 216,-169.2 273,-169.2 273,-150.2 216,-150.2"/>
<text text-anchor="start" x="219" y="-156.3" font-family="Helvetica,sans-Serif" font-size="11.00" fill="#000000">&lt; 2</text>
<polygon fill="#ffffff" stroke="transparent" points="273,-150.2 273,-169.2 329,-169.2 329,-150.2 273,-150.2"/>
<polygon fill="none" stroke="#000000" points="273,-150.2 273,-169.2 329,-169.2 329,-150.2 273,-150.2"/>
<text text-anchor="start" x="293.6105" y="-156.3" font-family="Helvetica,sans-Serif" font-size="11.00" fill="#000000">0 rows</text>
<polygon fill="#ffffff" stroke="transparent" points="329,-150.2 329,-169.2 360,-169.2 360,-150.2 329,-150.2"/>
<polygon fill="none" stroke="#000000" points="329,-150.2 329,-169.2 360,-169.2 360,-150.2 329,-150.2"/>
<text text-anchor="start" x="350.8862" y="-156.3" font-family="Helvetica,sans-Serif" font-size="11.00" fill="#000000"> &#160;</text>
</a>
</g>
</g>
<!-- Video -->
<g id="node2" class="node">
<title>Video</title>
<g id="a_node2"><a xlink:href="../../tables/Video.html" xlink:title="Video" target="_top">
<polygon fill="#ffffff" stroke="transparent" points="8,-38.2 8,-216.2 167,-216.2 167,-38.2 8,-38.2"/>
<polygon fill="#f5f5f5" stroke="transparent" points="10.5,-191.2 10.5,-214.2 165.5,-214.2 165.5,-191.2 10.5,-191.2"/>
<polygon fill="none" stroke="#000000" points="10.5,-191.2 10.5,-214.2 165.5,-214.2 165.5,-191.2 10.5,-191.2"/>
<text text-anchor="start" x="15.5" y="-199.8" font-family="Helvetica,sans-Serif" font-weight="bold" font-size="11.00" fill="#000000">Video</text>
<text text-anchor="start" x="130.5437" y="-199.3" font-family="Helvetica,sans-Serif" font-size="11.00" fill="#000000">[table]</text>
<polygon fill="none" stroke="#000000" points="10.5,-169.2 10.5,-191.2 98.5,-191.2 98.5,-169.2 10.5,-169.2"/>
<image xlink:href="../../images/primaryKeys.png" width="11px" height="12px" preserveAspectRatio="xMinYMin meet" x="15.5" y="-186.2"/>
<text text-anchor="start" x="30.5" y="-176.3" font-family="Helvetica,sans-Serif" font-size="11.00" fill="#000000">id</text>
<polygon fill="none" stroke="#000000" points="98.5,-169.2 98.5,-191.2 165.5,-191.2 165.5,-169.2 98.5,-169.2"/>
<text text-anchor="start" x="101.5" y="-176.9" font-family="Helvetica,sans-Serif" font-size="11.00" fill="#000000">int[10]</text>
<polygon fill="none" stroke="#000000" points="10.5,-147.2 10.5,-169.2 98.5,-169.2 98.5,-147.2 10.5,-147.2"/>
<text text-anchor="start" x="30.5" y="-154.3" font-family="Helvetica,sans-Serif" font-size="11.00" fill="#000000">title</text>
<polygon fill="none" stroke="#000000" points="98.5,-147.2 98.5,-169.2 165.5,-169.2 165.5,-147.2 98.5,-147.2"/>
<text text-anchor="start" x="101.4365" y="-154.9" font-family="Helvetica,sans-Serif" font-size="11.00" fill="#000000">varchar[191]</text>
<polygon fill="none" stroke="#000000" points="10.5,-125.2 10.5,-147.2 98.5,-147.2 98.5,-125.2 10.5,-125.2"/>
<text text-anchor="start" x="30.5" y="-132.3" font-family="Helvetica,sans-Serif" font-size="11.00" fill="#000000">description</text>
<polygon fill="none" stroke="#000000" points="98.5,-125.2 98.5,-147.2 165.5,-147.2 165.5,-125.2 98.5,-125.2"/>
<text text-anchor="start" x="101.5" y="-132.9" font-family="Helvetica,sans-Serif" font-size="11.00" fill="#000000">text[65535]</text>
<polygon fill="none" stroke="#000000" points="10.5,-103.2 10.5,-125.2 98.5,-125.2 98.5,-103.2 10.5,-103.2"/>
<text text-anchor="start" x="30.5" y="-110.3" font-family="Helvetica,sans-Serif" font-size="11.00" fill="#000000">imageUrl</text>
<polygon fill="none" stroke="#000000" points="98.5,-103.2 98.5,-125.2 165.5,-125.2 165.5,-103.2 98.5,-103.2"/>
<text text-anchor="start" x="101.4365" y="-110.9" font-family="Helvetica,sans-Serif" font-size="11.00" fill="#000000">varchar[191]</text>
<polygon fill="none" stroke="#000000" points="10.5,-81.2 10.5,-103.2 98.5,-103.2 98.5,-81.2 10.5,-81.2"/>
<text text-anchor="start" x="30.5" y="-88.3" font-family="Helvetica,sans-Serif" font-size="11.00" fill="#000000">createdAt</text>
<polygon fill="none" stroke="#000000" points="98.5,-81.2 98.5,-103.2 165.5,-103.2 165.5,-81.2 98.5,-81.2"/>
<text text-anchor="start" x="101.5" y="-88.9" font-family="Helvetica,sans-Serif" font-size="11.00" fill="#000000">datetime[23]</text>
<polygon fill="none" stroke="#000000" points="10.5,-59.2 10.5,-81.2 98.5,-81.2 98.5,-59.2 10.5,-59.2"/>
<text text-anchor="start" x="30.5" y="-66.3" font-family="Helvetica,sans-Serif" font-size="11.00" fill="#000000">updatedAt</text>
<polygon fill="none" stroke="#000000" points="98.5,-59.2 98.5,-81.2 165.5,-81.2 165.5,-59.2 98.5,-59.2"/>
<text text-anchor="start" x="101.5" y="-66.9" font-family="Helvetica,sans-Serif" font-size="11.00" fill="#000000">datetime[23]</text>
<polygon fill="#ffffff" stroke="transparent" points="10.5,-40.2 10.5,-59.2 45.5,-59.2 45.5,-40.2 10.5,-40.2"/>
<polygon fill="none" stroke="#000000" points="10.5,-40.2 10.5,-59.2 45.5,-59.2 45.5,-40.2 10.5,-40.2"/>
<text text-anchor="start" x="13.5" y="-46.3" font-family="Helvetica,sans-Serif" font-size="11.00" fill="#000000">&lt; 0</text>
<polygon fill="#ffffff" stroke="transparent" points="45.5,-40.2 45.5,-59.2 98.5,-59.2 98.5,-40.2 45.5,-40.2"/>
<polygon fill="none" stroke="#000000" points="45.5,-40.2 45.5,-59.2 98.5,-59.2 98.5,-40.2 45.5,-40.2"/>
<text text-anchor="start" x="63.1105" y="-46.3" font-family="Helvetica,sans-Serif" font-size="11.00" fill="#000000">0 rows</text>
<polygon fill="#ffffff" stroke="transparent" points="98.5,-40.2 98.5,-59.2 165.5,-59.2 165.5,-40.2 98.5,-40.2"/>
<polygon fill="none" stroke="#000000" points="98.5,-40.2 98.5,-59.2 165.5,-59.2 165.5,-40.2 98.5,-40.2"/>
<text text-anchor="start" x="146.9053" y="-46.3" font-family="Helvetica,sans-Serif" font-size="11.00" fill="#000000">1 &gt;</text>
<polygon fill="none" stroke="#000000" stroke-width="2" points="9,-39.2 9,-215.2 166,-215.2 166,-39.2 9,-39.2"/>
</a>
</g>
</g>
<!-- _KeywordToVideo&#45;&gt;Video -->
<g id="edge1" class="edge">
<title>_KeywordToVideo:w&#45;&gt;Video:e</title>
<path fill="none" stroke="#000000" d="M201.4203,-180.2C189.5435,-180.2 182.158,-180.2 165.5,-180.2"/>
<polygon fill="#000000" stroke="#000000" points="208,-180.2001 216,-183.8 212,-180.2 216,-180.2 216,-180.2 216,-180.2 212,-180.2 216,-176.6 208,-180.2001 208,-180.2001"/>
<ellipse fill="none" stroke="#000000" cx="204.8" cy="-180.2001" rx="3.2" ry="3.2"/>
</g>
</g>
</svg>
