<?xml version="1.0" encoding="UTF-8" standalone="no"?>
<!DOCTYPE svg PUBLIC "-//W3C//DTD SVG 1.1//EN"
 "http://www.w3.org/Graphics/SVG/1.1/DTD/svg11.dtd">
<!-- Generated by graphviz version 2.40.1 (20161225.0304)
 -->
<!-- Title: oneDegreeRelationshipsDiagram Pages: 1 -->
<svg width="372pt" height="248pt"
 viewBox="0.00 0.00 372.00 248.20" xmlns="http://www.w3.org/2000/svg" xmlns:xlink="http://www.w3.org/1999/xlink">
<g id="graph0" class="graph" transform="scale(1 1) rotate(0) translate(4 244.2)">
<title>oneDegreeRelationshipsDiagram</title>
<polygon fill="#ffffff" stroke="transparent" points="-4,4 -4,-244.2 368,-244.2 368,4 -4,4"/>
<text text-anchor="middle" x="72.4936" y="-7.3" font-family="Helvetica,sans-Serif" font-size="11.00" fill="#000000">Generated by SchemaSpy</text>
<!-- _KeywordToVideo -->
<g id="node1" class="node">
<title>_KeywordToVideo</title>
<g id="a_node1"><a xlink:href="../../tables/_KeywordToVideo.html" xlink:title="_KeywordToVideo" target="_top">
<polygon fill="#ffffff" stroke="transparent" points="212,-150.2 212,-236.2 356,-236.2 356,-150.2 212,-150.2"/>
<polygon fill="#f5f5f5" stroke="transparent" points="212,-213.2 212,-236.2 356,-236.2 356,-213.2 212,-213.2"/>
<polygon fill="none" stroke="#000000" points="212,-213.2 212,-236.2 356,-236.2 356,-213.2 212,-213.2"/>
<text text-anchor="start" x="217" y="-221.8" font-family="Helvetica,sans-Serif" font-weight="bold" font-size="11.00" fill="#000000">_KeywordToVideo</text>
<text text-anchor="start" x="321.5219" y="-221.3" font-family="Helvetica,sans-Serif" font-size="11.00" fill="#000000">[table]</text>
<polygon fill="#ffffff" stroke="transparent" points="212,-191.2 212,-213.2 356,-213.2 356,-191.2 212,-191.2"/>
<polygon fill="none" stroke="#000000" points="212,-191.2 212,-213.2 356,-213.2 356,-191.2 212,-191.2"/>
<image xlink:href="../../images/foreignKeys.png" width="11px" height="12px" preserveAspectRatio="xMinYMin meet" x="217" y="-208.2"/>
<text text-anchor="start" x="241" y="-198.3" font-family="Helvetica,sans-Serif" font-size="11.00" fill="#000000">A</text>
<polygon fill="#ffffff" stroke="transparent" points="212,-169.2 212,-191.2 356,-191.2 356,-169.2 212,-169.2"/>
<polygon fill="none" stroke="#000000" points="212,-169.2 212,-191.2 356,-191.2 356,-169.2 212,-169.2"/>
<image xlink:href="../../images/foreignKeys.png" width="11px" height="12px" preserveAspectRatio="xMinYMin meet" x="217" y="-186.2"/>
<text text-anchor="start" x="241" y="-176.3" font-family="Helvetica,sans-Serif" font-size="11.00" fill="#000000">B</text>
<polygon fill="#ffffff" stroke="transparent" points="212,-150.2 212,-169.2 269,-169.2 269,-150.2 212,-150.2"/>
<polygon fill="none" stroke="#000000" points="212,-150.2 212,-169.2 269,-169.2 269,-150.2 212,-150.2"/>
<text text-anchor="start" x="215" y="-156.3" font-family="Helvetica,sans-Serif" font-size="11.00" fill="#000000">&lt; 2</text>
<polygon fill="#ffffff" stroke="transparent" points="269,-150.2 269,-169.2 325,-169.2 325,-150.2 269,-150.2"/>
<polygon fill="none" stroke="#000000" points="269,-150.2 269,-169.2 325,-169.2 325,-150.2 269,-150.2"/>
<text text-anchor="start" x="289.6105" y="-156.3" font-family="Helvetica,sans-Serif" font-size="11.00" fill="#000000">0 rows</text>
<polygon fill="#ffffff" stroke="transparent" points="325,-150.2 325,-169.2 356,-169.2 356,-150.2 325,-150.2"/>
<polygon fill="none" stroke="#000000" points="325,-150.2 325,-169.2 356,-169.2 356,-150.2 325,-150.2"/>
<text text-anchor="start" x="346.8862" y="-156.3" font-family="Helvetica,sans-Serif" font-size="11.00" fill="#000000"> &#160;</text>
</a>
</g>
</g>
<!-- Video -->
<g id="node2" class="node">
<title>Video</title>
<g id="a_node2"><a xlink:href="../../tables/Video.html" xlink:title="Video" target="_top">
<polygon fill="#ffffff" stroke="transparent" points="8,-38.2 8,-216.2 163,-216.2 163,-38.2 8,-38.2"/>
<polygon fill="#f5f5f5" stroke="transparent" points="10.5,-191.2 10.5,-214.2 161.5,-214.2 161.5,-191.2 10.5,-191.2"/>
<polygon fill="none" stroke="#000000" points="10.5,-191.2 10.5,-214.2 161.5,-214.2 161.5,-191.2 10.5,-191.2"/>
<text text-anchor="start" x="15.5" y="-199.8" font-family="Helvetica,sans-Serif" font-weight="bold" font-size="11.00" fill="#000000">Video</text>
<text text-anchor="start" x="126.5437" y="-199.3" font-family="Helvetica,sans-Serif" font-size="11.00" fill="#000000">[table]</text>
<polygon fill="none" stroke="#000000" points="10.5,-169.2 10.5,-191.2 94.5,-191.2 94.5,-169.2 10.5,-169.2"/>
<image xlink:href="../../images/primaryKeys.png" width="11px" height="12px" preserveAspectRatio="xMinYMin meet" x="15.5" y="-186.2"/>
<text text-anchor="start" x="30.5" y="-176.3" font-family="Helvetica,sans-Serif" font-size="11.00" fill="#000000">id</text>
<polygon fill="none" stroke="#000000" points="94.5,-169.2 94.5,-191.2 161.5,-191.2 161.5,-169.2 94.5,-169.2"/>
<text text-anchor="start" x="97.5" y="-176.9" font-family="Helvetica,sans-Serif" font-size="11.00" fill="#000000">int[10]</text>
<polygon fill="none" stroke="#000000" points="10.5,-147.2 10.5,-169.2 94.5,-169.2 94.5,-147.2 10.5,-147.2"/>
<text text-anchor="start" x="30.5" y="-154.3" font-family="Helvetica,sans-Serif" font-size="11.00" fill="#000000">title</text>
<polygon fill="none" stroke="#000000" points="94.5,-147.2 94.5,-169.2 161.5,-169.2 161.5,-147.2 94.5,-147.2"/>
<text text-anchor="start" x="97.4365" y="-154.9" font-family="Helvetica,sans-Serif" font-size="11.00" fill="#000000">varchar[191]</text>
<polygon fill="none" stroke="#000000" points="10.5,-125.2 10.5,-147.2 94.5,-147.2 94.5,-125.2 10.5,-125.2"/>
<text text-anchor="start" x="30.5" y="-132.3" font-family="Helvetica,sans-Serif" font-size="11.00" fill="#000000">imageUrl</text>
<polygon fill="none" stroke="#000000" points="94.5,-125.2 94.5,-147.2 161.5,-147.2 161.5,-125.2 94.5,-125.2"/>
<text text-anchor="start" x="97.5" y="-132.9" font-family="Helvetica,sans-Serif" font-size="11.00" fill="#000000">text[65535]</text>
<polygon fill="none" stroke="#000000" points="10.5,-103.2 10.5,-125.2 94.5,-125.2 94.5,-103.2 10.5,-103.2"/>
<text text-anchor="start" x="30.5" y="-110.3" font-family="Helvetica,sans-Serif" font-size="11.00" fill="#000000">createdAt</text>
<polygon fill="none" stroke="#000000" points="94.5,-103.2 94.5,-125.2 161.5,-125.2 161.5,-103.2 94.5,-103.2"/>
<text text-anchor="start" x="97.5" y="-110.9" font-family="Helvetica,sans-Serif" font-size="11.00" fill="#000000">datetime[23]</text>
<polygon fill="none" stroke="#000000" points="10.5,-81.2 10.5,-103.2 94.5,-103.2 94.5,-81.2 10.5,-81.2"/>
<text text-anchor="start" x="30.5" y="-88.3" font-family="Helvetica,sans-Serif" font-size="11.00" fill="#000000">updatedAt</text>
<polygon fill="none" stroke="#000000" points="94.5,-81.2 94.5,-103.2 161.5,-103.2 161.5,-81.2 94.5,-81.2"/>
<text text-anchor="start" x="97.5" y="-88.9" font-family="Helvetica,sans-Serif" font-size="11.00" fill="#000000">datetime[23]</text>
<polygon fill="none" stroke="#000000" points="10.5,-59.2 10.5,-81.2 94.5,-81.2 94.5,-59.2 10.5,-59.2"/>
<text text-anchor="start" x="30.5" y="-66.3" font-family="Helvetica,sans-Serif" font-size="11.00" fill="#000000">url</text>
<polygon fill="none" stroke="#000000" points="94.5,-59.2 94.5,-81.2 161.5,-81.2 161.5,-59.2 94.5,-59.2"/>
<text text-anchor="start" x="97.5" y="-66.9" font-family="Helvetica,sans-Serif" font-size="11.00" fill="#000000">text[65535]</text>
<polygon fill="#ffffff" stroke="transparent" points="10.5,-40.2 10.5,-59.2 43.5,-59.2 43.5,-40.2 10.5,-40.2"/>
<polygon fill="none" stroke="#000000" points="10.5,-40.2 10.5,-59.2 43.5,-59.2 43.5,-40.2 10.5,-40.2"/>
<text text-anchor="start" x="13.5" y="-46.3" font-family="Helvetica,sans-Serif" font-size="11.00" fill="#000000">&lt; 0</text>
<polygon fill="#ffffff" stroke="transparent" points="43.5,-40.2 43.5,-59.2 94.5,-59.2 94.5,-40.2 43.5,-40.2"/>
<polygon fill="none" stroke="#000000" points="43.5,-40.2 43.5,-59.2 94.5,-59.2 94.5,-40.2 43.5,-40.2"/>
<text text-anchor="start" x="59.1105" y="-46.3" font-family="Helvetica,sans-Serif" font-size="11.00" fill="#000000">0 rows</text>
<polygon fill="#ffffff" stroke="transparent" points="94.5,-40.2 94.5,-59.2 161.5,-59.2 161.5,-40.2 94.5,-40.2"/>
<polygon fill="none" stroke="#000000" points="94.5,-40.2 94.5,-59.2 161.5,-59.2 161.5,-40.2 94.5,-40.2"/>
<text text-anchor="start" x="142.9053" y="-46.3" font-family="Helvetica,sans-Serif" font-size="11.00" fill="#000000">1 &gt;</text>
<polygon fill="none" stroke="#000000" stroke-width="2" points="9,-39.2 9,-215.2 162,-215.2 162,-39.2 9,-39.2"/>
</a>
</g>
</g>
<!-- _KeywordToVideo&#45;&gt;Video -->
<g id="edge1" class="edge">
<title>_KeywordToVideo:w&#45;&gt;Video:e</title>
<path fill="none" stroke="#000000" d="M197.4203,-180.2C185.5435,-180.2 178.158,-180.2 161.5,-180.2"/>
<polygon fill="#000000" stroke="#000000" points="204,-180.2001 212,-183.8 208,-180.2 212,-180.2 212,-180.2 212,-180.2 208,-180.2 212,-176.6 204,-180.2001 204,-180.2001"/>
<ellipse fill="none" stroke="#000000" cx="200.8" cy="-180.2001" rx="3.2" ry="3.2"/>
</g>
</g>
</svg>
