<?xml version="1.0" encoding="UTF-8" standalone="no"?>
<!DOCTYPE svg PUBLIC "-//W3C//DTD SVG 1.1//EN"
 "http://www.w3.org/Graphics/SVG/1.1/DTD/svg11.dtd">
<!-- Generated by graphviz version 2.40.1 (20161225.0304)
 -->
<!-- Title: largeRelationshipsDiagram Pages: 1 -->
<svg width="318pt" height="678pt"
 viewBox="0.00 0.00 318.00 678.20" xmlns="http://www.w3.org/2000/svg" xmlns:xlink="http://www.w3.org/1999/xlink">
<g id="graph0" class="graph" transform="scale(1 1) rotate(0) translate(4 674.2)">
<title>largeRelationshipsDiagram</title>
<polygon fill="#ffffff" stroke="transparent" points="-4,4 -4,-674.2 314,-674.2 314,4 -4,4"/>
<text text-anchor="middle" x="72.4936" y="-7.3" font-family="Helvetica,sans-Serif" font-size="11.00" fill="#000000">Generated by SchemaSpy</text>
<!-- Account -->
<g id="node1" class="node">
<title>Account</title>
<g id="a_node1"><a xlink:href="../../tables/Account.html" xlink:title="Account" target="_top">
<polygon fill="#ffffff" stroke="transparent" points="164,-189.2 164,-495.2 296,-495.2 296,-189.2 164,-189.2"/>
<polygon fill="#f5f5f5" stroke="transparent" points="164,-472.2 164,-495.2 296,-495.2 296,-472.2 164,-472.2"/>
<polygon fill="none" stroke="#000000" points="164,-472.2 164,-495.2 296,-495.2 296,-472.2 164,-472.2"/>
<text text-anchor="start" x="169" y="-480.8" font-family="Helvetica,sans-Serif" font-weight="bold" font-size="11.00" fill="#000000">Account</text>
<text text-anchor="start" x="261.0437" y="-480.3" font-family="Helvetica,sans-Serif" font-size="11.00" fill="#000000">[table]</text>
<polygon fill="none" stroke="#000000" points="164,-450.2 164,-472.2 296,-472.2 296,-450.2 164,-450.2"/>
<image xlink:href="../../images/primaryKeys.png" width="11px" height="12px" preserveAspectRatio="xMinYMin meet" x="169" y="-467.2"/>
<text text-anchor="start" x="184" y="-457.3" font-family="Helvetica,sans-Serif" font-size="11.00" fill="#000000">id</text>
<polygon fill="#ffffff" stroke="transparent" points="164,-428.2 164,-450.2 296,-450.2 296,-428.2 164,-428.2"/>
<polygon fill="none" stroke="#000000" points="164,-428.2 164,-450.2 296,-450.2 296,-428.2 164,-428.2"/>
<image xlink:href="../../images/foreignKeys.png" width="11px" height="12px" preserveAspectRatio="xMinYMin meet" x="169" y="-445.2"/>
<text text-anchor="start" x="184" y="-435.3" font-family="Helvetica,sans-Serif" font-size="11.00" fill="#000000">userId</text>
<polygon fill="none" stroke="#000000" points="164,-406.2 164,-428.2 296,-428.2 296,-406.2 164,-406.2"/>
<text text-anchor="start" x="184" y="-413.3" font-family="Helvetica,sans-Serif" font-size="11.00" fill="#000000">type</text>
<polygon fill="#ffffff" stroke="transparent" points="164,-384.2 164,-406.2 296,-406.2 296,-384.2 164,-384.2"/>
<polygon fill="none" stroke="#000000" points="164,-384.2 164,-406.2 296,-406.2 296,-384.2 164,-384.2"/>
<text text-anchor="start" x="184" y="-391.3" font-family="Helvetica,sans-Serif" font-size="11.00" fill="#000000">provider</text>
<polygon fill="#ffffff" stroke="transparent" points="164,-362.2 164,-384.2 296,-384.2 296,-362.2 164,-362.2"/>
<polygon fill="none" stroke="#000000" points="164,-362.2 164,-384.2 296,-384.2 296,-362.2 164,-362.2"/>
<text text-anchor="start" x="184" y="-369.3" font-family="Helvetica,sans-Serif" font-size="11.00" fill="#000000">providerAccountId</text>
<polygon fill="none" stroke="#000000" points="164,-340.2 164,-362.2 296,-362.2 296,-340.2 164,-340.2"/>
<text text-anchor="start" x="184" y="-347.3" font-family="Helvetica,sans-Serif" font-size="11.00" fill="#000000">refresh_token</text>
<polygon fill="none" stroke="#000000" points="164,-318.2 164,-340.2 296,-340.2 296,-318.2 164,-318.2"/>
<text text-anchor="start" x="184" y="-325.3" font-family="Helvetica,sans-Serif" font-size="11.00" fill="#000000">access_token</text>
<polygon fill="none" stroke="#000000" points="164,-296.2 164,-318.2 296,-318.2 296,-296.2 164,-296.2"/>
<text text-anchor="start" x="184" y="-303.3" font-family="Helvetica,sans-Serif" font-size="11.00" fill="#000000">expires_at</text>
<polygon fill="none" stroke="#000000" points="164,-274.2 164,-296.2 296,-296.2 296,-274.2 164,-274.2"/>
<text text-anchor="start" x="184" y="-281.3" font-family="Helvetica,sans-Serif" font-size="11.00" fill="#000000">token_type</text>
<polygon fill="none" stroke="#000000" points="164,-252.2 164,-274.2 296,-274.2 296,-252.2 164,-252.2"/>
<text text-anchor="start" x="184" y="-259.3" font-family="Helvetica,sans-Serif" font-size="11.00" fill="#000000">scope</text>
<polygon fill="none" stroke="#000000" points="164,-230.2 164,-252.2 296,-252.2 296,-230.2 164,-230.2"/>
<text text-anchor="start" x="184" y="-237.3" font-family="Helvetica,sans-Serif" font-size="11.00" fill="#000000">id_token</text>
<polygon fill="none" stroke="#000000" points="164,-208.2 164,-230.2 296,-230.2 296,-208.2 164,-208.2"/>
<text text-anchor="start" x="184" y="-215.3" font-family="Helvetica,sans-Serif" font-size="11.00" fill="#000000">session_state</text>
<polygon fill="#ffffff" stroke="transparent" points="164,-189.2 164,-208.2 215,-208.2 215,-189.2 164,-189.2"/>
<polygon fill="none" stroke="#000000" points="164,-189.2 164,-208.2 215,-208.2 215,-189.2 164,-189.2"/>
<text text-anchor="start" x="167" y="-195.3" font-family="Helvetica,sans-Serif" font-size="11.00" fill="#000000">&lt; 1</text>
<polygon fill="#ffffff" stroke="transparent" points="215,-189.2 215,-208.2 268,-208.2 268,-189.2 215,-189.2"/>
<polygon fill="none" stroke="#000000" points="215,-189.2 215,-208.2 268,-208.2 268,-189.2 215,-189.2"/>
<text text-anchor="start" x="232.6105" y="-195.3" font-family="Helvetica,sans-Serif" font-size="11.00" fill="#000000">0 rows</text>
<polygon fill="#ffffff" stroke="transparent" points="268,-189.2 268,-208.2 296,-208.2 296,-189.2 268,-189.2"/>
<polygon fill="none" stroke="#000000" points="268,-189.2 268,-208.2 296,-208.2 296,-189.2 268,-189.2"/>
<text text-anchor="start" x="286.8862" y="-195.3" font-family="Helvetica,sans-Serif" font-size="11.00" fill="#000000"> &#160;</text>
</a>
</g>
</g>
<!-- User -->
<g id="node6" class="node">
<title>User</title>
<g id="a_node6"><a xlink:href="../../tables/User.html" xlink:title="User" target="_top">
<polygon fill="#ffffff" stroke="transparent" points="8,-70.2 8,-222.2 109,-222.2 109,-70.2 8,-70.2"/>
<polygon fill="#f5f5f5" stroke="transparent" points="8.5,-199.2 8.5,-222.2 109.5,-222.2 109.5,-199.2 8.5,-199.2"/>
<polygon fill="none" stroke="#000000" points="8.5,-199.2 8.5,-222.2 109.5,-222.2 109.5,-199.2 8.5,-199.2"/>
<text text-anchor="start" x="13.3912" y="-207.8" font-family="Helvetica,sans-Serif" font-weight="bold" font-size="11.00" fill="#000000">User</text>
<text text-anchor="start" x="74.5437" y="-207.3" font-family="Helvetica,sans-Serif" font-size="11.00" fill="#000000">[table]</text>
<polygon fill="none" stroke="#000000" points="8.5,-177.2 8.5,-199.2 109.5,-199.2 109.5,-177.2 8.5,-177.2"/>
<image xlink:href="../../images/primaryKeys.png" width="11px" height="12px" preserveAspectRatio="xMinYMin meet" x="13.5" y="-194.2"/>
<text text-anchor="start" x="28.5" y="-184.3" font-family="Helvetica,sans-Serif" font-size="11.00" fill="#000000">id</text>
<polygon fill="none" stroke="#000000" points="8.5,-155.2 8.5,-177.2 109.5,-177.2 109.5,-155.2 8.5,-155.2"/>
<text text-anchor="start" x="28.5" y="-162.3" font-family="Helvetica,sans-Serif" font-size="11.00" fill="#000000">name</text>
<polygon fill="#ffffff" stroke="transparent" points="8.5,-133.2 8.5,-155.2 109.5,-155.2 109.5,-133.2 8.5,-133.2"/>
<polygon fill="none" stroke="#000000" points="8.5,-133.2 8.5,-155.2 109.5,-155.2 109.5,-133.2 8.5,-133.2"/>
<text text-anchor="start" x="28.5" y="-140.3" font-family="Helvetica,sans-Serif" font-size="11.00" fill="#000000">email</text>
<polygon fill="none" stroke="#000000" points="8.5,-111.2 8.5,-133.2 109.5,-133.2 109.5,-111.2 8.5,-111.2"/>
<text text-anchor="start" x="28.5" y="-118.3" font-family="Helvetica,sans-Serif" font-size="11.00" fill="#000000">emailVerified</text>
<polygon fill="none" stroke="#000000" points="8.5,-89.2 8.5,-111.2 109.5,-111.2 109.5,-89.2 8.5,-89.2"/>
<text text-anchor="start" x="28.5" y="-96.3" font-family="Helvetica,sans-Serif" font-size="11.00" fill="#000000">image</text>
<polygon fill="#ffffff" stroke="transparent" points="8.5,-70.2 8.5,-89.2 35.5,-89.2 35.5,-70.2 8.5,-70.2"/>
<polygon fill="none" stroke="#000000" points="8.5,-70.2 8.5,-89.2 35.5,-89.2 35.5,-70.2 8.5,-70.2"/>
<text text-anchor="start" x="11.5" y="-76.3" font-family="Helvetica,sans-Serif" font-size="11.00" fill="#000000"> &#160;</text>
<polygon fill="#ffffff" stroke="transparent" points="35.5,-70.2 35.5,-89.2 80.5,-89.2 80.5,-70.2 35.5,-70.2"/>
<polygon fill="none" stroke="#000000" points="35.5,-70.2 35.5,-89.2 80.5,-89.2 80.5,-70.2 35.5,-70.2"/>
<text text-anchor="start" x="45.1105" y="-76.3" font-family="Helvetica,sans-Serif" font-size="11.00" fill="#000000">0 rows</text>
<polygon fill="#ffffff" stroke="transparent" points="80.5,-70.2 80.5,-89.2 109.5,-89.2 109.5,-70.2 80.5,-70.2"/>
<polygon fill="none" stroke="#000000" points="80.5,-70.2 80.5,-89.2 109.5,-89.2 109.5,-70.2 80.5,-70.2"/>
<text text-anchor="start" x="90.9053" y="-76.3" font-family="Helvetica,sans-Serif" font-size="11.00" fill="#000000">2 &gt;</text>
</a>
</g>
</g>
<!-- Account&#45;&gt;User -->
<g id="edge3" class="edge">
<title>Account:w&#45;&gt;User:e</title>
<path fill="none" stroke="#000000" d="M149.5275,-437.5308C65.8198,-415.7532 218.1925,-188.2 109.5,-188.2"/>
<polygon fill="#000000" stroke="#000000" points="156.0527,-438.2833 163.5875,-442.7763 160.0263,-438.7417 164,-439.2 164,-439.2 164,-439.2 160.0263,-438.7417 164.4125,-435.6237 156.0527,-438.2833 156.0527,-438.2833"/>
<ellipse fill="none" stroke="#000000" cx="152.8738" cy="-437.9167" rx="3.2" ry="3.2"/>
</g>
<!-- Video -->
<g id="node2" class="node">
<title>Video</title>
<g id="a_node2"><a xlink:href="../../tables/Video.html" xlink:title="Video" target="_top">
<polygon fill="#ffffff" stroke="transparent" points="14.5,-341.2 14.5,-515.2 102.5,-515.2 102.5,-341.2 14.5,-341.2"/>
<polygon fill="#f5f5f5" stroke="transparent" points="14.5,-492.2 14.5,-515.2 102.5,-515.2 102.5,-492.2 14.5,-492.2"/>
<polygon fill="none" stroke="#000000" points="14.5,-492.2 14.5,-515.2 102.5,-515.2 102.5,-492.2 14.5,-492.2"/>
<text text-anchor="start" x="19.5" y="-500.8" font-family="Helvetica,sans-Serif" font-weight="bold" font-size="11.00" fill="#000000">Video</text>
<text text-anchor="start" x="67.5437" y="-500.3" font-family="Helvetica,sans-Serif" font-size="11.00" fill="#000000">[table]</text>
<polygon fill="none" stroke="#000000" points="14.5,-470.2 14.5,-492.2 102.5,-492.2 102.5,-470.2 14.5,-470.2"/>
<image xlink:href="../../images/primaryKeys.png" width="11px" height="12px" preserveAspectRatio="xMinYMin meet" x="19.5" y="-487.2"/>
<text text-anchor="start" x="34.5" y="-477.3" font-family="Helvetica,sans-Serif" font-size="11.00" fill="#000000">id</text>
<polygon fill="none" stroke="#000000" points="14.5,-448.2 14.5,-470.2 102.5,-470.2 102.5,-448.2 14.5,-448.2"/>
<text text-anchor="start" x="34.5" y="-455.3" font-family="Helvetica,sans-Serif" font-size="11.00" fill="#000000">title</text>
<polygon fill="none" stroke="#000000" points="14.5,-426.2 14.5,-448.2 102.5,-448.2 102.5,-426.2 14.5,-426.2"/>
<text text-anchor="start" x="34.5" y="-433.3" font-family="Helvetica,sans-Serif" font-size="11.00" fill="#000000">description</text>
<polygon fill="none" stroke="#000000" points="14.5,-404.2 14.5,-426.2 102.5,-426.2 102.5,-404.2 14.5,-404.2"/>
<text text-anchor="start" x="34.5" y="-411.3" font-family="Helvetica,sans-Serif" font-size="11.00" fill="#000000">imageUrl</text>
<polygon fill="none" stroke="#000000" points="14.5,-382.2 14.5,-404.2 102.5,-404.2 102.5,-382.2 14.5,-382.2"/>
<text text-anchor="start" x="34.5" y="-389.3" font-family="Helvetica,sans-Serif" font-size="11.00" fill="#000000">createdAt</text>
<polygon fill="none" stroke="#000000" points="14.5,-360.2 14.5,-382.2 102.5,-382.2 102.5,-360.2 14.5,-360.2"/>
<text text-anchor="start" x="34.5" y="-367.3" font-family="Helvetica,sans-Serif" font-size="11.00" fill="#000000">updatedAt</text>
<polygon fill="#ffffff" stroke="transparent" points="14.5,-341.2 14.5,-360.2 34.5,-360.2 34.5,-341.2 14.5,-341.2"/>
<polygon fill="none" stroke="#000000" points="14.5,-341.2 14.5,-360.2 34.5,-360.2 34.5,-341.2 14.5,-341.2"/>
<text text-anchor="start" x="17.5" y="-347.3" font-family="Helvetica,sans-Serif" font-size="11.00" fill="#000000"> &#160;</text>
<polygon fill="#ffffff" stroke="transparent" points="34.5,-341.2 34.5,-360.2 76.5,-360.2 76.5,-341.2 34.5,-341.2"/>
<polygon fill="none" stroke="#000000" points="34.5,-341.2 34.5,-360.2 76.5,-360.2 76.5,-341.2 34.5,-341.2"/>
<text text-anchor="start" x="41.1105" y="-347.3" font-family="Helvetica,sans-Serif" font-size="11.00" fill="#000000">0 rows</text>
<polygon fill="#ffffff" stroke="transparent" points="76.5,-341.2 76.5,-360.2 102.5,-360.2 102.5,-341.2 76.5,-341.2"/>
<polygon fill="none" stroke="#000000" points="76.5,-341.2 76.5,-360.2 102.5,-360.2 102.5,-341.2 76.5,-341.2"/>
<text text-anchor="start" x="83.9053" y="-347.3" font-family="Helvetica,sans-Serif" font-size="11.00" fill="#000000">1 &gt;</text>
</a>
</g>
</g>
<!-- _KeywordToVideo -->
<g id="node3" class="node">
<title>_KeywordToVideo</title>
<g id="a_node3"><a xlink:href="../../tables/_KeywordToVideo.html" xlink:title="_KeywordToVideo" target="_top">
<polygon fill="#ffffff" stroke="transparent" points="158,-516.2 158,-602.2 302,-602.2 302,-516.2 158,-516.2"/>
<polygon fill="#f5f5f5" stroke="transparent" points="158,-579.2 158,-602.2 302,-602.2 302,-579.2 158,-579.2"/>
<polygon fill="none" stroke="#000000" points="158,-579.2 158,-602.2 302,-602.2 302,-579.2 158,-579.2"/>
<text text-anchor="start" x="163" y="-587.8" font-family="Helvetica,sans-Serif" font-weight="bold" font-size="11.00" fill="#000000">_KeywordToVideo</text>
<text text-anchor="start" x="267.5219" y="-587.3" font-family="Helvetica,sans-Serif" font-size="11.00" fill="#000000">[table]</text>
<polygon fill="#ffffff" stroke="transparent" points="158,-557.2 158,-579.2 302,-579.2 302,-557.2 158,-557.2"/>
<polygon fill="none" stroke="#000000" points="158,-557.2 158,-579.2 302,-579.2 302,-557.2 158,-557.2"/>
<image xlink:href="../../images/foreignKeys.png" width="11px" height="12px" preserveAspectRatio="xMinYMin meet" x="163" y="-574.2"/>
<text text-anchor="start" x="187" y="-564.3" font-family="Helvetica,sans-Serif" font-size="11.00" fill="#000000">A</text>
<polygon fill="#ffffff" stroke="transparent" points="158,-535.2 158,-557.2 302,-557.2 302,-535.2 158,-535.2"/>
<polygon fill="none" stroke="#000000" points="158,-535.2 158,-557.2 302,-557.2 302,-535.2 158,-535.2"/>
<image xlink:href="../../images/foreignKeys.png" width="11px" height="12px" preserveAspectRatio="xMinYMin meet" x="163" y="-552.2"/>
<text text-anchor="start" x="187" y="-542.3" font-family="Helvetica,sans-Serif" font-size="11.00" fill="#000000">B</text>
<polygon fill="#ffffff" stroke="transparent" points="158,-516.2 158,-535.2 215,-535.2 215,-516.2 158,-516.2"/>
<polygon fill="none" stroke="#000000" points="158,-516.2 158,-535.2 215,-535.2 215,-516.2 158,-516.2"/>
<text text-anchor="start" x="161" y="-522.3" font-family="Helvetica,sans-Serif" font-size="11.00" fill="#000000">&lt; 2</text>
<polygon fill="#ffffff" stroke="transparent" points="215,-516.2 215,-535.2 271,-535.2 271,-516.2 215,-516.2"/>
<polygon fill="none" stroke="#000000" points="215,-516.2 215,-535.2 271,-535.2 271,-516.2 215,-516.2"/>
<text text-anchor="start" x="235.6105" y="-522.3" font-family="Helvetica,sans-Serif" font-size="11.00" fill="#000000">0 rows</text>
<polygon fill="#ffffff" stroke="transparent" points="271,-516.2 271,-535.2 302,-535.2 302,-516.2 271,-516.2"/>
<polygon fill="none" stroke="#000000" points="271,-516.2 271,-535.2 302,-535.2 302,-516.2 271,-516.2"/>
<text text-anchor="start" x="292.8862" y="-522.3" font-family="Helvetica,sans-Serif" font-size="11.00" fill="#000000"> &#160;</text>
</a>
</g>
</g>
<!-- _KeywordToVideo&#45;&gt;Video -->
<g id="edge2" class="edge">
<title>_KeywordToVideo:w&#45;&gt;Video:e</title>
<path fill="none" stroke="#000000" d="M144.0294,-541.9352C124.9839,-527.4744 134.5515,-481.2 102.5,-481.2"/>
<polygon fill="#000000" stroke="#000000" points="150.3486,-543.8642 156.9489,-549.6431 154.1743,-545.0321 158,-546.2 158,-546.2 158,-546.2 154.1743,-545.0321 159.0511,-542.7569 150.3486,-543.8642 150.3486,-543.8642"/>
<ellipse fill="none" stroke="#000000" cx="147.288" cy="-542.9299" rx="3.2" ry="3.2"/>
</g>
<!-- Keyword -->
<g id="node4" class="node">
<title>Keyword</title>
<g id="a_node4"><a xlink:href="../../tables/Keyword.html" xlink:title="Keyword" target="_top">
<polygon fill="#ffffff" stroke="transparent" points="13,-536.2 13,-666.2 104,-666.2 104,-536.2 13,-536.2"/>
<polygon fill="#f5f5f5" stroke="transparent" points="13.5,-643.2 13.5,-666.2 104.5,-666.2 104.5,-643.2 13.5,-643.2"/>
<polygon fill="none" stroke="#000000" points="13.5,-643.2 13.5,-666.2 104.5,-666.2 104.5,-643.2 13.5,-643.2"/>
<text text-anchor="start" x="18.5" y="-651.8" font-family="Helvetica,sans-Serif" font-weight="bold" font-size="11.00" fill="#000000">Keyword</text>
<text text-anchor="start" x="70.0219" y="-651.3" font-family="Helvetica,sans-Serif" font-size="11.00" fill="#000000">[table]</text>
<polygon fill="none" stroke="#000000" points="13.5,-621.2 13.5,-643.2 104.5,-643.2 104.5,-621.2 13.5,-621.2"/>
<image xlink:href="../../images/primaryKeys.png" width="11px" height="12px" preserveAspectRatio="xMinYMin meet" x="18.5" y="-638.2"/>
<text text-anchor="start" x="37.5" y="-628.3" font-family="Helvetica,sans-Serif" font-size="11.00" fill="#000000">id</text>
<polygon fill="none" stroke="#000000" points="13.5,-599.2 13.5,-621.2 104.5,-621.2 104.5,-599.2 13.5,-599.2"/>
<text text-anchor="start" x="37.5" y="-606.3" font-family="Helvetica,sans-Serif" font-size="11.00" fill="#000000">keyword</text>
<polygon fill="none" stroke="#000000" points="13.5,-577.2 13.5,-599.2 104.5,-599.2 104.5,-577.2 13.5,-577.2"/>
<text text-anchor="start" x="37.5" y="-584.3" font-family="Helvetica,sans-Serif" font-size="11.00" fill="#000000">createdAt</text>
<polygon fill="none" stroke="#000000" points="13.5,-555.2 13.5,-577.2 104.5,-577.2 104.5,-555.2 13.5,-555.2"/>
<text text-anchor="start" x="37.5" y="-562.3" font-family="Helvetica,sans-Serif" font-size="11.00" fill="#000000">updatedAt</text>
<polygon fill="#ffffff" stroke="transparent" points="13.5,-536.2 13.5,-555.2 35.5,-555.2 35.5,-536.2 13.5,-536.2"/>
<polygon fill="none" stroke="#000000" points="13.5,-536.2 13.5,-555.2 35.5,-555.2 35.5,-536.2 13.5,-536.2"/>
<text text-anchor="start" x="16.5" y="-542.3" font-family="Helvetica,sans-Serif" font-size="11.00" fill="#000000"> &#160;</text>
<polygon fill="#ffffff" stroke="transparent" points="35.5,-536.2 35.5,-555.2 78.5,-555.2 78.5,-536.2 35.5,-536.2"/>
<polygon fill="none" stroke="#000000" points="35.5,-536.2 35.5,-555.2 78.5,-555.2 78.5,-536.2 35.5,-536.2"/>
<text text-anchor="start" x="43.1105" y="-542.3" font-family="Helvetica,sans-Serif" font-size="11.00" fill="#000000">0 rows</text>
<polygon fill="#ffffff" stroke="transparent" points="78.5,-536.2 78.5,-555.2 104.5,-555.2 104.5,-536.2 78.5,-536.2"/>
<polygon fill="none" stroke="#000000" points="78.5,-536.2 78.5,-555.2 104.5,-555.2 104.5,-536.2 78.5,-536.2"/>
<text text-anchor="start" x="85.9053" y="-542.3" font-family="Helvetica,sans-Serif" font-size="11.00" fill="#000000">1 &gt;</text>
</a>
</g>
</g>
<!-- _KeywordToVideo&#45;&gt;Keyword -->
<g id="edge1" class="edge">
<title>_KeywordToVideo:w&#45;&gt;Keyword:e</title>
<path fill="none" stroke="#000000" d="M143.9039,-572.8027C126.1475,-587.4773 135.4914,-632.2 104.5,-632.2"/>
<polygon fill="#000000" stroke="#000000" points="150.3951,-570.6832 159.1174,-571.6222 154.1976,-569.4416 158,-568.2 158,-568.2 158,-568.2 154.1976,-569.4416 156.8826,-564.7778 150.3951,-570.6832 150.3951,-570.6832"/>
<ellipse fill="none" stroke="#000000" cx="147.3532" cy="-571.6765" rx="3.2" ry="3.2"/>
</g>
<!-- Session -->
<g id="node5" class="node">
<title>Session</title>
<g id="a_node5"><a xlink:href="../../tables/Session.html" xlink:title="Session" target="_top">
<polygon fill="#ffffff" stroke="transparent" points="179.5,-38.2 179.5,-168.2 280.5,-168.2 280.5,-38.2 179.5,-38.2"/>
<polygon fill="#f5f5f5" stroke="transparent" points="180,-145.2 180,-168.2 281,-168.2 281,-145.2 180,-145.2"/>
<polygon fill="none" stroke="#000000" points="180,-145.2 180,-168.2 281,-168.2 281,-145.2 180,-145.2"/>
<text text-anchor="start" x="185" y="-153.8" font-family="Helvetica,sans-Serif" font-weight="bold" font-size="11.00" fill="#000000">Session</text>
<text text-anchor="start" x="246.0437" y="-153.3" font-family="Helvetica,sans-Serif" font-size="11.00" fill="#000000">[table]</text>
<polygon fill="none" stroke="#000000" points="180,-123.2 180,-145.2 281,-145.2 281,-123.2 180,-123.2"/>
<image xlink:href="../../images/primaryKeys.png" width="11px" height="12px" preserveAspectRatio="xMinYMin meet" x="185" y="-140.2"/>
<text text-anchor="start" x="200" y="-130.3" font-family="Helvetica,sans-Serif" font-size="11.00" fill="#000000">id</text>
<polygon fill="#ffffff" stroke="transparent" points="180,-101.2 180,-123.2 281,-123.2 281,-101.2 180,-101.2"/>
<polygon fill="none" stroke="#000000" points="180,-101.2 180,-123.2 281,-123.2 281,-101.2 180,-101.2"/>
<text text-anchor="start" x="200" y="-108.3" font-family="Helvetica,sans-Serif" font-size="11.00" fill="#000000">sessionToken</text>
<polygon fill="#ffffff" stroke="transparent" points="180,-79.2 180,-101.2 281,-101.2 281,-79.2 180,-79.2"/>
<polygon fill="none" stroke="#000000" points="180,-79.2 180,-101.2 281,-101.2 281,-79.2 180,-79.2"/>
<image xlink:href="../../images/foreignKeys.png" width="11px" height="12px" preserveAspectRatio="xMinYMin meet" x="185" y="-96.2"/>
<text text-anchor="start" x="200" y="-86.3" font-family="Helvetica,sans-Serif" font-size="11.00" fill="#000000">userId</text>
<polygon fill="none" stroke="#000000" points="180,-57.2 180,-79.2 281,-79.2 281,-57.2 180,-57.2"/>
<text text-anchor="start" x="200" y="-64.3" font-family="Helvetica,sans-Serif" font-size="11.00" fill="#000000">expires</text>
<polygon fill="#ffffff" stroke="transparent" points="180,-38.2 180,-57.2 216,-57.2 216,-38.2 180,-38.2"/>
<polygon fill="none" stroke="#000000" points="180,-38.2 180,-57.2 216,-57.2 216,-38.2 180,-38.2"/>
<text text-anchor="start" x="183" y="-44.3" font-family="Helvetica,sans-Serif" font-size="11.00" fill="#000000">&lt; 1</text>
<polygon fill="#ffffff" stroke="transparent" points="216,-38.2 216,-57.2 261,-57.2 261,-38.2 216,-38.2"/>
<polygon fill="none" stroke="#000000" points="216,-38.2 216,-57.2 261,-57.2 261,-38.2 216,-38.2"/>
<text text-anchor="start" x="225.6105" y="-44.3" font-family="Helvetica,sans-Serif" font-size="11.00" fill="#000000">0 rows</text>
<polygon fill="#ffffff" stroke="transparent" points="261,-38.2 261,-57.2 281,-57.2 281,-38.2 261,-38.2"/>
<polygon fill="none" stroke="#000000" points="261,-38.2 261,-57.2 281,-57.2 281,-38.2 261,-38.2"/>
<text text-anchor="start" x="271.8862" y="-44.3" font-family="Helvetica,sans-Serif" font-size="11.00" fill="#000000"> &#160;</text>
</a>
</g>
</g>
<!-- Session&#45;&gt;User -->
<g id="edge4" class="edge">
<title>Session:w&#45;&gt;User:e</title>
<path fill="none" stroke="#000000" d="M165.8299,-93.2404C133.1033,-109.7818 157.4961,-188.2 109.5,-188.2"/>
<polygon fill="#000000" stroke="#000000" points="172.178,-91.8784 180.7553,-93.7199 176.089,-91.0392 180,-90.2 180,-90.2 180,-90.2 176.089,-91.0392 179.2447,-86.6801 172.178,-91.8784 172.178,-91.8784"/>
<ellipse fill="none" stroke="#000000" cx="169.0492" cy="-92.5497" rx="3.2" ry="3.2"/>
</g>
</g>
</svg>
