<?xml version="1.0" encoding="UTF-8" standalone="no"?>
<!DOCTYPE svg PUBLIC "-//W3C//DTD SVG 1.1//EN"
 "http://www.w3.org/Graphics/SVG/1.1/DTD/svg11.dtd">
<!-- Generated by graphviz version 2.40.1 (20161225.0304)
 -->
<!-- Title: compactRelationshipsDiagram Pages: 1 -->
<svg width="318pt" height="535pt"
 viewBox="0.00 0.00 318.00 535.20" xmlns="http://www.w3.org/2000/svg" xmlns:xlink="http://www.w3.org/1999/xlink">
<g id="graph0" class="graph" transform="scale(1 1) rotate(0) translate(4 531.2)">
<title>compactRelationshipsDiagram</title>
<polygon fill="#ffffff" stroke="transparent" points="-4,4 -4,-531.2 314,-531.2 314,4 -4,4"/>
<text text-anchor="middle" x="72.4936" y="-7.3" font-family="Helvetica,sans-Serif" font-size="11.00" fill="#000000">Generated by SchemaSpy</text>
<!-- Account -->
<g id="node1" class="node">
<title>Account</title>
<g id="a_node1"><a xlink:href="../../tables/Account.html" xlink:title="Account" target="_top">
<polygon fill="#ffffff" stroke="transparent" points="164,-186.2 164,-335.2 296,-335.2 296,-186.2 164,-186.2"/>
<polygon fill="#f5f5f5" stroke="transparent" points="164,-311.7 164,-334.7 296,-334.7 296,-311.7 164,-311.7"/>
<polygon fill="none" stroke="#000000" points="164,-311.7 164,-334.7 296,-334.7 296,-311.7 164,-311.7"/>
<text text-anchor="start" x="169" y="-320.3" font-family="Helvetica,sans-Serif" font-weight="bold" font-size="11.00" fill="#000000">Account</text>
<text text-anchor="start" x="261.0437" y="-319.8" font-family="Helvetica,sans-Serif" font-size="11.00" fill="#000000">[table]</text>
<polygon fill="none" stroke="#000000" points="164,-289.7 164,-311.7 296,-311.7 296,-289.7 164,-289.7"/>
<image xlink:href="../../images/primaryKeys.png" width="11px" height="12px" preserveAspectRatio="xMinYMin meet" x="169" y="-306.7"/>
<text text-anchor="start" x="184" y="-296.8" font-family="Helvetica,sans-Serif" font-size="11.00" fill="#000000">id</text>
<polygon fill="#ffffff" stroke="transparent" points="164,-267.7 164,-289.7 296,-289.7 296,-267.7 164,-267.7"/>
<polygon fill="none" stroke="#000000" points="164,-267.7 164,-289.7 296,-289.7 296,-267.7 164,-267.7"/>
<image xlink:href="../../images/foreignKeys.png" width="11px" height="12px" preserveAspectRatio="xMinYMin meet" x="169" y="-284.7"/>
<text text-anchor="start" x="184" y="-274.8" font-family="Helvetica,sans-Serif" font-size="11.00" fill="#000000">userId</text>
<polygon fill="#ffffff" stroke="transparent" points="164,-245.7 164,-267.7 296,-267.7 296,-245.7 164,-245.7"/>
<polygon fill="none" stroke="#000000" points="164,-245.7 164,-267.7 296,-267.7 296,-245.7 164,-245.7"/>
<text text-anchor="start" x="184" y="-252.8" font-family="Helvetica,sans-Serif" font-size="11.00" fill="#000000">provider</text>
<polygon fill="#ffffff" stroke="transparent" points="164,-223.7 164,-245.7 296,-245.7 296,-223.7 164,-223.7"/>
<polygon fill="none" stroke="#000000" points="164,-223.7 164,-245.7 296,-245.7 296,-223.7 164,-223.7"/>
<text text-anchor="start" x="184" y="-230.8" font-family="Helvetica,sans-Serif" font-size="11.00" fill="#000000">providerAccountId</text>
<polygon fill="none" stroke="#000000" points="164,-204.7 164,-223.7 296,-223.7 296,-204.7 164,-204.7"/>
<text text-anchor="start" x="167" y="-210.8" font-family="Helvetica,sans-Serif" font-size="11.00" fill="#000000">...</text>
<polygon fill="#ffffff" stroke="transparent" points="164,-185.7 164,-204.7 215,-204.7 215,-185.7 164,-185.7"/>
<polygon fill="none" stroke="#000000" points="164,-185.7 164,-204.7 215,-204.7 215,-185.7 164,-185.7"/>
<text text-anchor="start" x="167" y="-191.8" font-family="Helvetica,sans-Serif" font-size="11.00" fill="#000000">&lt; 1</text>
<polygon fill="#ffffff" stroke="transparent" points="215,-185.7 215,-204.7 268,-204.7 268,-185.7 215,-185.7"/>
<polygon fill="none" stroke="#000000" points="215,-185.7 215,-204.7 268,-204.7 268,-185.7 215,-185.7"/>
<text text-anchor="start" x="232.6105" y="-191.8" font-family="Helvetica,sans-Serif" font-size="11.00" fill="#000000">0 rows</text>
<polygon fill="#ffffff" stroke="transparent" points="268,-185.7 268,-204.7 296,-204.7 296,-185.7 268,-185.7"/>
<polygon fill="none" stroke="#000000" points="268,-185.7 268,-204.7 296,-204.7 296,-185.7 268,-185.7"/>
<text text-anchor="start" x="286.8862" y="-191.8" font-family="Helvetica,sans-Serif" font-size="11.00" fill="#000000"> &#160;</text>
</a>
</g>
</g>
<!-- User -->
<g id="node6" class="node">
<title>User</title>
<g id="a_node6"><a xlink:href="../../tables/User.html" xlink:title="User" target="_top">
<polygon fill="#ffffff" stroke="transparent" points="8,-134.2 8,-239.2 109,-239.2 109,-134.2 8,-134.2"/>
<polygon fill="#f5f5f5" stroke="transparent" points="8.5,-215.7 8.5,-238.7 109.5,-238.7 109.5,-215.7 8.5,-215.7"/>
<polygon fill="none" stroke="#000000" points="8.5,-215.7 8.5,-238.7 109.5,-238.7 109.5,-215.7 8.5,-215.7"/>
<text text-anchor="start" x="13.3912" y="-224.3" font-family="Helvetica,sans-Serif" font-weight="bold" font-size="11.00" fill="#000000">User</text>
<text text-anchor="start" x="74.5437" y="-223.8" font-family="Helvetica,sans-Serif" font-size="11.00" fill="#000000">[table]</text>
<polygon fill="none" stroke="#000000" points="8.5,-193.7 8.5,-215.7 109.5,-215.7 109.5,-193.7 8.5,-193.7"/>
<image xlink:href="../../images/primaryKeys.png" width="11px" height="12px" preserveAspectRatio="xMinYMin meet" x="13.5" y="-210.7"/>
<text text-anchor="start" x="28.5" y="-200.8" font-family="Helvetica,sans-Serif" font-size="11.00" fill="#000000">id</text>
<polygon fill="#ffffff" stroke="transparent" points="8.5,-171.7 8.5,-193.7 109.5,-193.7 109.5,-171.7 8.5,-171.7"/>
<polygon fill="none" stroke="#000000" points="8.5,-171.7 8.5,-193.7 109.5,-193.7 109.5,-171.7 8.5,-171.7"/>
<text text-anchor="start" x="28.5" y="-178.8" font-family="Helvetica,sans-Serif" font-size="11.00" fill="#000000">email</text>
<polygon fill="none" stroke="#000000" points="8.5,-152.7 8.5,-171.7 109.5,-171.7 109.5,-152.7 8.5,-152.7"/>
<text text-anchor="start" x="11.5" y="-158.8" font-family="Helvetica,sans-Serif" font-size="11.00" fill="#000000">...</text>
<polygon fill="#ffffff" stroke="transparent" points="8.5,-133.7 8.5,-152.7 35.5,-152.7 35.5,-133.7 8.5,-133.7"/>
<polygon fill="none" stroke="#000000" points="8.5,-133.7 8.5,-152.7 35.5,-152.7 35.5,-133.7 8.5,-133.7"/>
<text text-anchor="start" x="11.5" y="-139.8" font-family="Helvetica,sans-Serif" font-size="11.00" fill="#000000"> &#160;</text>
<polygon fill="#ffffff" stroke="transparent" points="35.5,-133.7 35.5,-152.7 80.5,-152.7 80.5,-133.7 35.5,-133.7"/>
<polygon fill="none" stroke="#000000" points="35.5,-133.7 35.5,-152.7 80.5,-152.7 80.5,-133.7 35.5,-133.7"/>
<text text-anchor="start" x="45.1105" y="-139.8" font-family="Helvetica,sans-Serif" font-size="11.00" fill="#000000">0 rows</text>
<polygon fill="#ffffff" stroke="transparent" points="80.5,-133.7 80.5,-152.7 109.5,-152.7 109.5,-133.7 80.5,-133.7"/>
<polygon fill="none" stroke="#000000" points="80.5,-133.7 80.5,-152.7 109.5,-152.7 109.5,-133.7 80.5,-133.7"/>
<text text-anchor="start" x="90.9053" y="-139.8" font-family="Helvetica,sans-Serif" font-size="11.00" fill="#000000">2 &gt;</text>
</a>
</g>
</g>
<!-- Account&#45;&gt;User -->
<g id="edge3" class="edge">
<title>Account:w&#45;&gt;User:e</title>
<path fill="none" stroke="#000000" d="M150.1424,-274.5094C129.5929,-258.8552 144.4425,-204.7 109.5,-204.7"/>
<polygon fill="#000000" stroke="#000000" points="156.3425,-276.3843 162.9579,-282.1459 160.1712,-277.5421 164,-278.7 164,-278.7 164,-278.7 160.1712,-277.5421 165.0421,-275.2541 156.3425,-276.3843 156.3425,-276.3843"/>
<ellipse fill="none" stroke="#000000" cx="153.2795" cy="-275.458" rx="3.2" ry="3.2"/>
</g>
<!-- Video -->
<g id="node2" class="node">
<title>Video</title>
<g id="a_node2"><a xlink:href="../../tables/Video.html" xlink:title="Video" target="_top">
<polygon fill="#ffffff" stroke="transparent" points="16.5,-336.2 16.5,-419.2 100.5,-419.2 100.5,-336.2 16.5,-336.2"/>
<polygon fill="#f5f5f5" stroke="transparent" points="16.5,-395.7 16.5,-418.7 100.5,-418.7 100.5,-395.7 16.5,-395.7"/>
<polygon fill="none" stroke="#000000" points="16.5,-395.7 16.5,-418.7 100.5,-418.7 100.5,-395.7 16.5,-395.7"/>
<text text-anchor="start" x="21.5" y="-404.3" font-family="Helvetica,sans-Serif" font-weight="bold" font-size="11.00" fill="#000000">Video</text>
<text text-anchor="start" x="65.5437" y="-403.8" font-family="Helvetica,sans-Serif" font-size="11.00" fill="#000000">[table]</text>
<polygon fill="none" stroke="#000000" points="16.5,-373.7 16.5,-395.7 100.5,-395.7 100.5,-373.7 16.5,-373.7"/>
<image xlink:href="../../images/primaryKeys.png" width="11px" height="12px" preserveAspectRatio="xMinYMin meet" x="21.5" y="-390.7"/>
<text text-anchor="start" x="36.5" y="-380.8" font-family="Helvetica,sans-Serif" font-size="11.00" fill="#000000">id</text>
<polygon fill="none" stroke="#000000" points="16.5,-354.7 16.5,-373.7 100.5,-373.7 100.5,-354.7 16.5,-354.7"/>
<text text-anchor="start" x="19.5" y="-360.8" font-family="Helvetica,sans-Serif" font-size="11.00" fill="#000000">...</text>
<polygon fill="#ffffff" stroke="transparent" points="16.5,-335.7 16.5,-354.7 34.5,-354.7 34.5,-335.7 16.5,-335.7"/>
<polygon fill="none" stroke="#000000" points="16.5,-335.7 16.5,-354.7 34.5,-354.7 34.5,-335.7 16.5,-335.7"/>
<text text-anchor="start" x="19.5" y="-341.8" font-family="Helvetica,sans-Serif" font-size="11.00" fill="#000000"> &#160;</text>
<polygon fill="#ffffff" stroke="transparent" points="34.5,-335.7 34.5,-354.7 75.5,-354.7 75.5,-335.7 34.5,-335.7"/>
<polygon fill="none" stroke="#000000" points="34.5,-335.7 34.5,-354.7 75.5,-354.7 75.5,-335.7 34.5,-335.7"/>
<text text-anchor="start" x="40.1105" y="-341.8" font-family="Helvetica,sans-Serif" font-size="11.00" fill="#000000">0 rows</text>
<polygon fill="#ffffff" stroke="transparent" points="75.5,-335.7 75.5,-354.7 100.5,-354.7 100.5,-335.7 75.5,-335.7"/>
<polygon fill="none" stroke="#000000" points="75.5,-335.7 75.5,-354.7 100.5,-354.7 100.5,-335.7 75.5,-335.7"/>
<text text-anchor="start" x="81.9053" y="-341.8" font-family="Helvetica,sans-Serif" font-size="11.00" fill="#000000">1 &gt;</text>
</a>
</g>
</g>
<!-- _KeywordToVideo -->
<g id="node3" class="node">
<title>_KeywordToVideo</title>
<g id="a_node3"><a xlink:href="../../tables/_KeywordToVideo.html" xlink:title="_KeywordToVideo" target="_top">
<polygon fill="#ffffff" stroke="transparent" points="158,-395.7 158,-481.7 302,-481.7 302,-395.7 158,-395.7"/>
<polygon fill="#f5f5f5" stroke="transparent" points="158,-458.7 158,-481.7 302,-481.7 302,-458.7 158,-458.7"/>
<polygon fill="none" stroke="#000000" points="158,-458.7 158,-481.7 302,-481.7 302,-458.7 158,-458.7"/>
<text text-anchor="start" x="163" y="-467.3" font-family="Helvetica,sans-Serif" font-weight="bold" font-size="11.00" fill="#000000">_KeywordToVideo</text>
<text text-anchor="start" x="267.5219" y="-466.8" font-family="Helvetica,sans-Serif" font-size="11.00" fill="#000000">[table]</text>
<polygon fill="#ffffff" stroke="transparent" points="158,-436.7 158,-458.7 302,-458.7 302,-436.7 158,-436.7"/>
<polygon fill="none" stroke="#000000" points="158,-436.7 158,-458.7 302,-458.7 302,-436.7 158,-436.7"/>
<image xlink:href="../../images/foreignKeys.png" width="11px" height="12px" preserveAspectRatio="xMinYMin meet" x="163" y="-453.7"/>
<text text-anchor="start" x="187" y="-443.8" font-family="Helvetica,sans-Serif" font-size="11.00" fill="#000000">A</text>
<polygon fill="#ffffff" stroke="transparent" points="158,-414.7 158,-436.7 302,-436.7 302,-414.7 158,-414.7"/>
<polygon fill="none" stroke="#000000" points="158,-414.7 158,-436.7 302,-436.7 302,-414.7 158,-414.7"/>
<image xlink:href="../../images/foreignKeys.png" width="11px" height="12px" preserveAspectRatio="xMinYMin meet" x="163" y="-431.7"/>
<text text-anchor="start" x="187" y="-421.8" font-family="Helvetica,sans-Serif" font-size="11.00" fill="#000000">B</text>
<polygon fill="#ffffff" stroke="transparent" points="158,-395.7 158,-414.7 215,-414.7 215,-395.7 158,-395.7"/>
<polygon fill="none" stroke="#000000" points="158,-395.7 158,-414.7 215,-414.7 215,-395.7 158,-395.7"/>
<text text-anchor="start" x="161" y="-401.8" font-family="Helvetica,sans-Serif" font-size="11.00" fill="#000000">&lt; 2</text>
<polygon fill="#ffffff" stroke="transparent" points="215,-395.7 215,-414.7 271,-414.7 271,-395.7 215,-395.7"/>
<polygon fill="none" stroke="#000000" points="215,-395.7 215,-414.7 271,-414.7 271,-395.7 215,-395.7"/>
<text text-anchor="start" x="235.6105" y="-401.8" font-family="Helvetica,sans-Serif" font-size="11.00" fill="#000000">0 rows</text>
<polygon fill="#ffffff" stroke="transparent" points="271,-395.7 271,-414.7 302,-414.7 302,-395.7 271,-395.7"/>
<polygon fill="none" stroke="#000000" points="271,-395.7 271,-414.7 302,-414.7 302,-395.7 271,-395.7"/>
<text text-anchor="start" x="292.8862" y="-401.8" font-family="Helvetica,sans-Serif" font-size="11.00" fill="#000000"> &#160;</text>
</a>
</g>
</g>
<!-- _KeywordToVideo&#45;&gt;Video -->
<g id="edge2" class="edge">
<title>_KeywordToVideo:w&#45;&gt;Video:e</title>
<path fill="none" stroke="#000000" d="M143.7281,-421.9163C127.3019,-411.7664 126.0018,-384.7 100.5,-384.7"/>
<polygon fill="#000000" stroke="#000000" points="150.2671,-423.6499 157.0774,-429.1798 154.1336,-424.6749 158,-425.7 158,-425.7 158,-425.7 154.1336,-424.6749 158.9226,-422.2202 150.2671,-423.6499 150.2671,-423.6499"/>
<ellipse fill="none" stroke="#000000" cx="147.174" cy="-422.8298" rx="3.2" ry="3.2"/>
</g>
<!-- Keyword -->
<g id="node4" class="node">
<title>Keyword</title>
<g id="a_node4"><a xlink:href="../../tables/Keyword.html" xlink:title="Keyword" target="_top">
<polygon fill="#ffffff" stroke="transparent" points="13,-440.2 13,-523.2 104,-523.2 104,-440.2 13,-440.2"/>
<polygon fill="#f5f5f5" stroke="transparent" points="13.5,-499.7 13.5,-522.7 104.5,-522.7 104.5,-499.7 13.5,-499.7"/>
<polygon fill="none" stroke="#000000" points="13.5,-499.7 13.5,-522.7 104.5,-522.7 104.5,-499.7 13.5,-499.7"/>
<text text-anchor="start" x="18.5" y="-508.3" font-family="Helvetica,sans-Serif" font-weight="bold" font-size="11.00" fill="#000000">Keyword</text>
<text text-anchor="start" x="70.0219" y="-507.8" font-family="Helvetica,sans-Serif" font-size="11.00" fill="#000000">[table]</text>
<polygon fill="none" stroke="#000000" points="13.5,-477.7 13.5,-499.7 104.5,-499.7 104.5,-477.7 13.5,-477.7"/>
<image xlink:href="../../images/primaryKeys.png" width="11px" height="12px" preserveAspectRatio="xMinYMin meet" x="18.5" y="-494.7"/>
<text text-anchor="start" x="37.5" y="-484.8" font-family="Helvetica,sans-Serif" font-size="11.00" fill="#000000">id</text>
<polygon fill="none" stroke="#000000" points="13.5,-458.7 13.5,-477.7 104.5,-477.7 104.5,-458.7 13.5,-458.7"/>
<text text-anchor="start" x="16.5" y="-464.8" font-family="Helvetica,sans-Serif" font-size="11.00" fill="#000000">...</text>
<polygon fill="#ffffff" stroke="transparent" points="13.5,-439.7 13.5,-458.7 35.5,-458.7 35.5,-439.7 13.5,-439.7"/>
<polygon fill="none" stroke="#000000" points="13.5,-439.7 13.5,-458.7 35.5,-458.7 35.5,-439.7 13.5,-439.7"/>
<text text-anchor="start" x="16.5" y="-445.8" font-family="Helvetica,sans-Serif" font-size="11.00" fill="#000000"> &#160;</text>
<polygon fill="#ffffff" stroke="transparent" points="35.5,-439.7 35.5,-458.7 78.5,-458.7 78.5,-439.7 35.5,-439.7"/>
<polygon fill="none" stroke="#000000" points="35.5,-439.7 35.5,-458.7 78.5,-458.7 78.5,-439.7 35.5,-439.7"/>
<text text-anchor="start" x="43.1105" y="-445.8" font-family="Helvetica,sans-Serif" font-size="11.00" fill="#000000">0 rows</text>
<polygon fill="#ffffff" stroke="transparent" points="78.5,-439.7 78.5,-458.7 104.5,-458.7 104.5,-439.7 78.5,-439.7"/>
<polygon fill="none" stroke="#000000" points="78.5,-439.7 78.5,-458.7 104.5,-458.7 104.5,-439.7 78.5,-439.7"/>
<text text-anchor="start" x="85.9053" y="-445.8" font-family="Helvetica,sans-Serif" font-size="11.00" fill="#000000">1 &gt;</text>
</a>
</g>
</g>
<!-- _KeywordToVideo&#45;&gt;Keyword -->
<g id="edge1" class="edge">
<title>_KeywordToVideo:w&#45;&gt;Keyword:e</title>
<path fill="none" stroke="#000000" d="M144.0674,-451.7811C129.161,-462.1516 128.6062,-488.7 104.5,-488.7"/>
<polygon fill="#000000" stroke="#000000" points="150.3226,-449.9489 159.012,-451.1548 154.1613,-448.8244 158,-447.7 158,-447.7 158,-447.7 154.1613,-448.8244 156.988,-444.2452 150.3226,-449.9489 150.3226,-449.9489"/>
<ellipse fill="none" stroke="#000000" cx="147.2516" cy="-450.8485" rx="3.2" ry="3.2"/>
</g>
<!-- Session -->
<g id="node5" class="node">
<title>Session</title>
<g id="a_node5"><a xlink:href="../../tables/Session.html" xlink:title="Session" target="_top">
<polygon fill="#ffffff" stroke="transparent" points="179.5,-38.2 179.5,-165.2 280.5,-165.2 280.5,-38.2 179.5,-38.2"/>
<polygon fill="#f5f5f5" stroke="transparent" points="180,-141.7 180,-164.7 281,-164.7 281,-141.7 180,-141.7"/>
<polygon fill="none" stroke="#000000" points="180,-141.7 180,-164.7 281,-164.7 281,-141.7 180,-141.7"/>
<text text-anchor="start" x="185" y="-150.3" font-family="Helvetica,sans-Serif" font-weight="bold" font-size="11.00" fill="#000000">Session</text>
<text text-anchor="start" x="246.0437" y="-149.8" font-family="Helvetica,sans-Serif" font-size="11.00" fill="#000000">[table]</text>
<polygon fill="none" stroke="#000000" points="180,-119.7 180,-141.7 281,-141.7 281,-119.7 180,-119.7"/>
<image xlink:href="../../images/primaryKeys.png" width="11px" height="12px" preserveAspectRatio="xMinYMin meet" x="185" y="-136.7"/>
<text text-anchor="start" x="200" y="-126.8" font-family="Helvetica,sans-Serif" font-size="11.00" fill="#000000">id</text>
<polygon fill="#ffffff" stroke="transparent" points="180,-97.7 180,-119.7 281,-119.7 281,-97.7 180,-97.7"/>
<polygon fill="none" stroke="#000000" points="180,-97.7 180,-119.7 281,-119.7 281,-97.7 180,-97.7"/>
<text text-anchor="start" x="200" y="-104.8" font-family="Helvetica,sans-Serif" font-size="11.00" fill="#000000">sessionToken</text>
<polygon fill="#ffffff" stroke="transparent" points="180,-75.7 180,-97.7 281,-97.7 281,-75.7 180,-75.7"/>
<polygon fill="none" stroke="#000000" points="180,-75.7 180,-97.7 281,-97.7 281,-75.7 180,-75.7"/>
<image xlink:href="../../images/foreignKeys.png" width="11px" height="12px" preserveAspectRatio="xMinYMin meet" x="185" y="-92.7"/>
<text text-anchor="start" x="200" y="-82.8" font-family="Helvetica,sans-Serif" font-size="11.00" fill="#000000">userId</text>
<polygon fill="none" stroke="#000000" points="180,-56.7 180,-75.7 281,-75.7 281,-56.7 180,-56.7"/>
<text text-anchor="start" x="183" y="-62.8" font-family="Helvetica,sans-Serif" font-size="11.00" fill="#000000">...</text>
<polygon fill="#ffffff" stroke="transparent" points="180,-37.7 180,-56.7 216,-56.7 216,-37.7 180,-37.7"/>
<polygon fill="none" stroke="#000000" points="180,-37.7 180,-56.7 216,-56.7 216,-37.7 180,-37.7"/>
<text text-anchor="start" x="183" y="-43.8" font-family="Helvetica,sans-Serif" font-size="11.00" fill="#000000">&lt; 1</text>
<polygon fill="#ffffff" stroke="transparent" points="216,-37.7 216,-56.7 261,-56.7 261,-37.7 216,-37.7"/>
<polygon fill="none" stroke="#000000" points="216,-37.7 216,-56.7 261,-56.7 261,-37.7 216,-37.7"/>
<text text-anchor="start" x="225.6105" y="-43.8" font-family="Helvetica,sans-Serif" font-size="11.00" fill="#000000">0 rows</text>
<polygon fill="#ffffff" stroke="transparent" points="261,-37.7 261,-56.7 281,-56.7 281,-37.7 261,-37.7"/>
<polygon fill="none" stroke="#000000" points="261,-37.7 261,-56.7 281,-56.7 281,-37.7 261,-37.7"/>
<text text-anchor="start" x="271.8862" y="-43.8" font-family="Helvetica,sans-Serif" font-size="11.00" fill="#000000"> &#160;</text>
</a>
</g>
</g>
<!-- Session&#45;&gt;User -->
<g id="edge4" class="edge">
<title>Session:w&#45;&gt;User:e</title>
<path fill="none" stroke="#000000" d="M165.8524,-89.5005C127.4467,-107.3697 164.9837,-204.7 109.5,-204.7"/>
<polygon fill="#000000" stroke="#000000" points="172.1523,-88.2535 180.6991,-90.2315 176.0761,-87.4767 180,-86.7 180,-86.7 180,-86.7 176.0761,-87.4767 179.3009,-83.1685 172.1523,-88.2535 172.1523,-88.2535"/>
<ellipse fill="none" stroke="#000000" cx="169.0132" cy="-88.8749" rx="3.2" ry="3.2"/>
</g>
</g>
</svg>
